<mxfile host="65bd71144e">
    <diagram id="8jhpcAXdyOR-SbHHE_OV" name="Page-1">
        <mxGraphModel dx="5940" dy="5015" grid="1" gridSize="10" guides="1" tooltips="1" connect="1" arrows="1" fold="1" page="1" pageScale="1" pageWidth="850" pageHeight="1100" math="0" shadow="0">
            <root>
                <mxCell id="0"/>
                <mxCell id="1" parent="0"/>
                <UserObject label="" mermaidData="{&#xa;  &quot;data&quot;: &quot;classDiagram\n    direction LR\n\n    %% Firebase Services\n    class FirebaseAuth {\n        +User? currentUser\n        +Future~UserCredential~ signInWithEmailAndPassword(String email, String password)\n        +Future~UserCredential~ createUserWithEmailAndPassword(String email, String password)\n        +Future~void~ signOut()\n    }\n    class FirebaseDatabase {\n        +DatabaseReference ref(String path)\n        +DatabaseReference child(String path)\n        +Future~DataSnapshot~ get()\n        +Future~void~ set(Object? value)\n        +Future~void~ update(Map~String, Object?~ values)\n        +Future~void~ remove()\n    }\n\n    %% Firebase Auth User Model (Conceptual)\n    class User {\n        +String uid\n        +String? email\n        +String? displayName\n    }\n\n    %% Data Models\n    class Hotel {\n      +String id\n      +String name\n      +String location\n      +String price\n      +String rating\n      +String? description\n      +String? imageData\n      +String? imageUrl\n      +List~String~ features\n      +String? phone\n    }\n    class Booking {\n      +String id\n      +String hotelId\n      +String userId\n      +String hotelName\n      +DateTime checkInDate\n      +DateTime checkOutDate\n      +double totalPrice\n      +String status\n    }\n    class Client {\n        +String id\n        +String username\n        +String email\n        +bool isAdmin\n        +String? profileImageBase64\n    }\n\n    %% UI Pages - Authentication\n    class LoginPage {\n      -TextEditingController _emailController\n      -TextEditingController _passwordController\n      +Future~void~ _signIn()\n      +void _navigateToSignUp()\n    }\n    class SignupPage {\n      -TextEditingController _usernameController\n      -TextEditingController _emailController\n      -TextEditingController _passwordController\n      +Future~void~ _signUp()\n    }\n\n    %% UI Pages - Core Application\n    class HomePage {\n      -User? _currentUser\n      -bool _isAdmin\n      +void _onItemTapped(int index)\n      +Future~void~ _loadUserData()\n      +Future~void~ _loadHotels()\n      +void _navigateToProfile()\n      +void _navigateToAdmin()\n      +void _navigateToExplore()\n      +void _navigateToBookings()\n      +Future~void~ _signOut()\n    }\n    class ProfilePage {\n      -User? _currentUser\n      -Client? _clientData\n      -bool _isLoading\n      +Future~void~ _loadUserData()\n      +Future~void~ _signOut()\n      +void _navigateToEditProfile()\n    }\n\n    %% UI Pages - Admin Section\n    class AdminPage {\n      -List~Map~ _hotels\n      -bool _isLoading\n      +Future~void~ _loadHotels()\n      +Future~void~ _deleteHotel(String hotelId)\n      +void _navigateToAddHotelPage()\n      +void _navigateToEditHotelPage(Map hotelData)\n      +void _navigateToClientsPage()\n      +Future~void~ _logout()\n    }\n    class ClientsPage {\n      -List~Map~ _clients\n      -bool _isLoading\n      -Map~String, int~ _bookingCounts\n      +Future~void~ _loadClients()\n      +Future~void~ _deleteClient(String clientId)\n      +void _navigateToClientDetails(Map clientData)\n    }\n    class AddHotelPage {\n        -TextEditingController _nameController\n        -TextEditingController _locationController\n        +Future~void~ _addHotel()\n    }\n    class EditHotelPage {\n        +Map~String, dynamic~ hotelToEdit\n        -TextEditingController _nameController\n        +Future~void~ _updateHotel()\n    }\n    class ClientDetailsPage {\n        +Map~String, dynamic~ client\n        -List~Map~ _bookings\n        +Future~void~ _loadBookingsForClient()\n    }\n\n\n    %% Relationships\n    LoginPage ..&gt; FirebaseAuth : uses\n    LoginPage ..&gt; HomePage : navigates to\n    LoginPage ..&gt; SignupPage : navigates to\n\n    SignupPage ..&gt; FirebaseAuth : uses\n    SignupPage ..&gt; FirebaseDatabase : creates Client\n\n    HomePage ..&gt; FirebaseAuth : uses\n    HomePage ..&gt; FirebaseDatabase : reads Hotel, Client\n    HomePage ..&gt; ProfilePage : navigates to\n    HomePage ..&gt; AdminPage : navigates to (if admin)\n    HomePage ..&gt; ExplorePage : navigates to\n    HomePage ..&gt; BookingsPage : navigates to\n    HomePage ..&gt; LoginPage : navigates to (on logout)\n\n    ProfilePage ..&gt; FirebaseAuth : uses\n    ProfilePage ..&gt; FirebaseDatabase : reads Client\n    ProfilePage ..&gt; EditProfilePage : navigates to\n    ProfilePage ..&gt; LoginPage : navigates to (on logout)\n\n    AdminPage ..&gt; FirebaseDatabase : CRUD Hotel\n    AdminPage ..&gt; AddHotelPage : navigates to\n    AdminPage ..&gt; EditHotelPage : navigates to\n    AdminPage ..&gt; ClientsPage : navigates to\n    AdminPage ..&gt; LoginPage : navigates to (on logout)\n\n    ClientsPage ..&gt; FirebaseDatabase : reads/deletes Client, reads Booking\n    ClientsPage ..&gt; ClientDetailsPage : navigates to\n    ClientsPage ..&gt; Client : displays list of\n    ClientsPage ..&gt; Booking : reads count of\n\n    AddHotelPage ..&gt; FirebaseDatabase : creates Hotel\n    EditHotelPage ..&gt; FirebaseDatabase : updates Hotel\n    ClientDetailsPage ..&gt; FirebaseDatabase : reads Booking for Client\n    ClientDetailsPage ..&gt; Client : displays details of\n    ClientDetailsPage ..&gt; Booking : displays list of\n\n    FirebaseAuth ..&gt; User : manages\n    FirebaseDatabase ..&gt; Hotel : stores\n    FirebaseDatabase ..&gt; Booking : stores\n    FirebaseDatabase ..&gt; Client : stores\n\n    %% Conceptual Pages (navigated from HomePage, not detailed further for brevity)\n    class ExplorePage\n    class BookingsPage\n    class EditProfilePage\n\n    HomePage ..&gt; Hotel : displays list of (via ExplorePage or directly)\n    BookingsPage ..&gt; Booking : displays list of&quot;&#xa;}" id="320">
                    <mxCell style="shape=image;noLabel=1;verticalAlign=top;imageAspect=1;image=data:image/svg+xml,PHN2ZyBhcmlhLXJvbGVkZXNjcmlwdGlvbj0iY2xhc3MiIHJvbGU9ImdyYXBoaWNzLWRvY3VtZW50IGRvY3VtZW50IiB2aWV3Qm94PSIwLjAwMDAxNTI1ODc4OTA2MjUgLTEuMTk5OTk4ODU1NTkwODIwMyA0MDg3LjMyOTgzMzk4NDM3NSAyMjk3LjYwMDA5NzY1NjI1IiBzdHlsZT0ibWF4LXdpZHRoOiA0MDg3LjMyOTgzMzk4NDM3NXB4OyIgY2xhc3M9ImNsYXNzRGlhZ3JhbSIgeG1sbnM9Imh0dHA6Ly93d3cudzMub3JnLzIwMDAvc3ZnIiB3aWR0aD0iMTAwJSIgaWQ9ImdlTWVybWFpZE91dHB1dC0xNzQ3MTI5MDMwNDUyIj48c3R5bGU+I2dlTWVybWFpZE91dHB1dC0xNzQ3MTI5MDMwNDUye2ZvbnQtZmFtaWx5OiJ0cmVidWNoZXQgbXMiLHZlcmRhbmEsYXJpYWwsc2Fucy1zZXJpZjtmb250LXNpemU6MTZweDtmaWxsOiMwMDAwMDA7fSNnZU1lcm1haWRPdXRwdXQtMTc0NzEyOTAzMDQ1MiAuZXJyb3ItaWNvbntmaWxsOiM1NTIyMjI7fSNnZU1lcm1haWRPdXRwdXQtMTc0NzEyOTAzMDQ1MiAuZXJyb3ItdGV4dHtmaWxsOiM1NTIyMjI7c3Ryb2tlOiM1NTIyMjI7fSNnZU1lcm1haWRPdXRwdXQtMTc0NzEyOTAzMDQ1MiAuZWRnZS10aGlja25lc3Mtbm9ybWFse3N0cm9rZS13aWR0aDoxcHg7fSNnZU1lcm1haWRPdXRwdXQtMTc0NzEyOTAzMDQ1MiAuZWRnZS10aGlja25lc3MtdGhpY2t7c3Ryb2tlLXdpZHRoOjMuNXB4O30jZ2VNZXJtYWlkT3V0cHV0LTE3NDcxMjkwMzA0NTIgLmVkZ2UtcGF0dGVybi1zb2xpZHtzdHJva2UtZGFzaGFycmF5OjA7fSNnZU1lcm1haWRPdXRwdXQtMTc0NzEyOTAzMDQ1MiAuZWRnZS10aGlja25lc3MtaW52aXNpYmxle3N0cm9rZS13aWR0aDowO2ZpbGw6bm9uZTt9I2dlTWVybWFpZE91dHB1dC0xNzQ3MTI5MDMwNDUyIC5lZGdlLXBhdHRlcm4tZGFzaGVke3N0cm9rZS1kYXNoYXJyYXk6Mzt9I2dlTWVybWFpZE91dHB1dC0xNzQ3MTI5MDMwNDUyIC5lZGdlLXBhdHRlcm4tZG90dGVke3N0cm9rZS1kYXNoYXJyYXk6Mjt9I2dlTWVybWFpZE91dHB1dC0xNzQ3MTI5MDMwNDUyIC5tYXJrZXJ7ZmlsbDojNjY2O3N0cm9rZTojNjY2O30jZ2VNZXJtYWlkT3V0cHV0LTE3NDcxMjkwMzA0NTIgLm1hcmtlci5jcm9zc3tzdHJva2U6IzY2Njt9I2dlTWVybWFpZE91dHB1dC0xNzQ3MTI5MDMwNDUyIHN2Z3tmb250LWZhbWlseToidHJlYnVjaGV0IG1zIix2ZXJkYW5hLGFyaWFsLHNhbnMtc2VyaWY7Zm9udC1zaXplOjE2cHg7fSNnZU1lcm1haWRPdXRwdXQtMTc0NzEyOTAzMDQ1MiBwe21hcmdpbjowO30jZ2VNZXJtYWlkT3V0cHV0LTE3NDcxMjkwMzA0NTIgZy5jbGFzc0dyb3VwIHRleHR7ZmlsbDojOTk5O3N0cm9rZTpub25lO2ZvbnQtZmFtaWx5OiJ0cmVidWNoZXQgbXMiLHZlcmRhbmEsYXJpYWwsc2Fucy1zZXJpZjtmb250LXNpemU6MTBweDt9I2dlTWVybWFpZE91dHB1dC0xNzQ3MTI5MDMwNDUyIGcuY2xhc3NHcm91cCB0ZXh0IC50aXRsZXtmb250LXdlaWdodDpib2xkZXI7fSNnZU1lcm1haWRPdXRwdXQtMTc0NzEyOTAzMDQ1MiAubm9kZUxhYmVsLCNnZU1lcm1haWRPdXRwdXQtMTc0NzEyOTAzMDQ1MiAuZWRnZUxhYmVse2NvbG9yOiMxMTExMTE7fSNnZU1lcm1haWRPdXRwdXQtMTc0NzEyOTAzMDQ1MiAuZWRnZUxhYmVsIC5sYWJlbCByZWN0e2ZpbGw6I2VlZTt9I2dlTWVybWFpZE91dHB1dC0xNzQ3MTI5MDMwNDUyIC5sYWJlbCB0ZXh0e2ZpbGw6IzExMTExMTt9I2dlTWVybWFpZE91dHB1dC0xNzQ3MTI5MDMwNDUyIC5sYWJlbEJrZ3tiYWNrZ3JvdW5kOiNlZWU7fSNnZU1lcm1haWRPdXRwdXQtMTc0NzEyOTAzMDQ1MiAuZWRnZUxhYmVsIC5sYWJlbCBzcGFue2JhY2tncm91bmQ6I2VlZTt9I2dlTWVybWFpZE91dHB1dC0xNzQ3MTI5MDMwNDUyIC5jbGFzc1RpdGxle2ZvbnQtd2VpZ2h0OmJvbGRlcjt9I2dlTWVybWFpZE91dHB1dC0xNzQ3MTI5MDMwNDUyIC5ub2RlIHJlY3QsI2dlTWVybWFpZE91dHB1dC0xNzQ3MTI5MDMwNDUyIC5ub2RlIGNpcmNsZSwjZ2VNZXJtYWlkT3V0cHV0LTE3NDcxMjkwMzA0NTIgLm5vZGUgZWxsaXBzZSwjZ2VNZXJtYWlkT3V0cHV0LTE3NDcxMjkwMzA0NTIgLm5vZGUgcG9seWdvbiwjZ2VNZXJtYWlkT3V0cHV0LTE3NDcxMjkwMzA0NTIgLm5vZGUgcGF0aHtmaWxsOiNlZWU7c3Ryb2tlOiM5OTk7c3Ryb2tlLXdpZHRoOjFweDt9I2dlTWVybWFpZE91dHB1dC0xNzQ3MTI5MDMwNDUyIC5kaXZpZGVye3N0cm9rZTojOTk5O3N0cm9rZS13aWR0aDoxO30jZ2VNZXJtYWlkT3V0cHV0LTE3NDcxMjkwMzA0NTIgZy5jbGlja2FibGV7Y3Vyc29yOnBvaW50ZXI7fSNnZU1lcm1haWRPdXRwdXQtMTc0NzEyOTAzMDQ1MiBnLmNsYXNzR3JvdXAgcmVjdHtmaWxsOiNlZWU7c3Ryb2tlOiM5OTk7fSNnZU1lcm1haWRPdXRwdXQtMTc0NzEyOTAzMDQ1MiBnLmNsYXNzR3JvdXAgbGluZXtzdHJva2U6Izk5OTtzdHJva2Utd2lkdGg6MTt9I2dlTWVybWFpZE91dHB1dC0xNzQ3MTI5MDMwNDUyIC5jbGFzc0xhYmVsIC5ib3h7c3Ryb2tlOm5vbmU7c3Ryb2tlLXdpZHRoOjA7ZmlsbDojZWVlO29wYWNpdHk6MC41O30jZ2VNZXJtYWlkT3V0cHV0LTE3NDcxMjkwMzA0NTIgLmNsYXNzTGFiZWwgLmxhYmVse2ZpbGw6Izk5OTtmb250LXNpemU6MTBweDt9I2dlTWVybWFpZE91dHB1dC0xNzQ3MTI5MDMwNDUyIC5yZWxhdGlvbntzdHJva2U6IzY2NjtzdHJva2Utd2lkdGg6MTtmaWxsOm5vbmU7fSNnZU1lcm1haWRPdXRwdXQtMTc0NzEyOTAzMDQ1MiAuZGFzaGVkLWxpbmV7c3Ryb2tlLWRhc2hhcnJheTozO30jZ2VNZXJtYWlkT3V0cHV0LTE3NDcxMjkwMzA0NTIgLmRvdHRlZC1saW5le3N0cm9rZS1kYXNoYXJyYXk6MSAyO30jZ2VNZXJtYWlkT3V0cHV0LTE3NDcxMjkwMzA0NTIgI2NvbXBvc2l0aW9uU3RhcnQsI2dlTWVybWFpZE91dHB1dC0xNzQ3MTI5MDMwNDUyIC5jb21wb3NpdGlvbntmaWxsOiM2NjYhaW1wb3J0YW50O3N0cm9rZTojNjY2IWltcG9ydGFudDtzdHJva2Utd2lkdGg6MTt9I2dlTWVybWFpZE91dHB1dC0xNzQ3MTI5MDMwNDUyICNjb21wb3NpdGlvbkVuZCwjZ2VNZXJtYWlkT3V0cHV0LTE3NDcxMjkwMzA0NTIgLmNvbXBvc2l0aW9ue2ZpbGw6IzY2NiFpbXBvcnRhbnQ7c3Ryb2tlOiM2NjYhaW1wb3J0YW50O3N0cm9rZS13aWR0aDoxO30jZ2VNZXJtYWlkT3V0cHV0LTE3NDcxMjkwMzA0NTIgI2RlcGVuZGVuY3lTdGFydCwjZ2VNZXJtYWlkT3V0cHV0LTE3NDcxMjkwMzA0NTIgLmRlcGVuZGVuY3l7ZmlsbDojNjY2IWltcG9ydGFudDtzdHJva2U6IzY2NiFpbXBvcnRhbnQ7c3Ryb2tlLXdpZHRoOjE7fSNnZU1lcm1haWRPdXRwdXQtMTc0NzEyOTAzMDQ1MiAjZGVwZW5kZW5jeVN0YXJ0LCNnZU1lcm1haWRPdXRwdXQtMTc0NzEyOTAzMDQ1MiAuZGVwZW5kZW5jeXtmaWxsOiM2NjYhaW1wb3J0YW50O3N0cm9rZTojNjY2IWltcG9ydGFudDtzdHJva2Utd2lkdGg6MTt9I2dlTWVybWFpZE91dHB1dC0xNzQ3MTI5MDMwNDUyICNleHRlbnNpb25TdGFydCwjZ2VNZXJtYWlkT3V0cHV0LTE3NDcxMjkwMzA0NTIgLmV4dGVuc2lvbntmaWxsOnRyYW5zcGFyZW50IWltcG9ydGFudDtzdHJva2U6IzY2NiFpbXBvcnRhbnQ7c3Ryb2tlLXdpZHRoOjE7fSNnZU1lcm1haWRPdXRwdXQtMTc0NzEyOTAzMDQ1MiAjZXh0ZW5zaW9uRW5kLCNnZU1lcm1haWRPdXRwdXQtMTc0NzEyOTAzMDQ1MiAuZXh0ZW5zaW9ue2ZpbGw6dHJhbnNwYXJlbnQhaW1wb3J0YW50O3N0cm9rZTojNjY2IWltcG9ydGFudDtzdHJva2Utd2lkdGg6MTt9I2dlTWVybWFpZE91dHB1dC0xNzQ3MTI5MDMwNDUyICNhZ2dyZWdhdGlvblN0YXJ0LCNnZU1lcm1haWRPdXRwdXQtMTc0NzEyOTAzMDQ1MiAuYWdncmVnYXRpb257ZmlsbDp0cmFuc3BhcmVudCFpbXBvcnRhbnQ7c3Ryb2tlOiM2NjYhaW1wb3J0YW50O3N0cm9rZS13aWR0aDoxO30jZ2VNZXJtYWlkT3V0cHV0LTE3NDcxMjkwMzA0NTIgI2FnZ3JlZ2F0aW9uRW5kLCNnZU1lcm1haWRPdXRwdXQtMTc0NzEyOTAzMDQ1MiAuYWdncmVnYXRpb257ZmlsbDp0cmFuc3BhcmVudCFpbXBvcnRhbnQ7c3Ryb2tlOiM2NjYhaW1wb3J0YW50O3N0cm9rZS13aWR0aDoxO30jZ2VNZXJtYWlkT3V0cHV0LTE3NDcxMjkwMzA0NTIgI2xvbGxpcG9wU3RhcnQsI2dlTWVybWFpZE91dHB1dC0xNzQ3MTI5MDMwNDUyIC5sb2xsaXBvcHtmaWxsOiNlZWUhaW1wb3J0YW50O3N0cm9rZTojNjY2IWltcG9ydGFudDtzdHJva2Utd2lkdGg6MTt9I2dlTWVybWFpZE91dHB1dC0xNzQ3MTI5MDMwNDUyICNsb2xsaXBvcEVuZCwjZ2VNZXJtYWlkT3V0cHV0LTE3NDcxMjkwMzA0NTIgLmxvbGxpcG9we2ZpbGw6I2VlZSFpbXBvcnRhbnQ7c3Ryb2tlOiM2NjYhaW1wb3J0YW50O3N0cm9rZS13aWR0aDoxO30jZ2VNZXJtYWlkT3V0cHV0LTE3NDcxMjkwMzA0NTIgLmVkZ2VUZXJtaW5hbHN7Zm9udC1zaXplOjExcHg7bGluZS1oZWlnaHQ6aW5pdGlhbDt9I2dlTWVybWFpZE91dHB1dC0xNzQ3MTI5MDMwNDUyIC5jbGFzc1RpdGxlVGV4dHt0ZXh0LWFuY2hvcjptaWRkbGU7Zm9udC1zaXplOjE4cHg7ZmlsbDojMDAwMDAwO30jZ2VNZXJtYWlkT3V0cHV0LTE3NDcxMjkwMzA0NTIgOnJvb3R7LS1tZXJtYWlkLWZvbnQtZmFtaWx5OiJ0cmVidWNoZXQgbXMiLHZlcmRhbmEsYXJpYWwsc2Fucy1zZXJpZjt9PC9zdHlsZT48Zz48ZGVmcz48bWFya2VyIG9yaWVudD0iYXV0byIgbWFya2VySGVpZ2h0PSIyNDAiIG1hcmtlcldpZHRoPSIxOTAiIHJlZlk9IjciIHJlZlg9IjE4IiBjbGFzcz0ibWFya2VyIGFnZ3JlZ2F0aW9uIGNsYXNzIiBpZD0iZ2VNZXJtYWlkT3V0cHV0LTE3NDcxMjkwMzA0NTJfY2xhc3MtYWdncmVnYXRpb25TdGFydCI+PHBhdGggZD0iTSAxOCw3IEw5LDEzIEwxLDcgTDksMSBaIj48L3BhdGg+PC9tYXJrZXI+PC9kZWZzPjxkZWZzPjxtYXJrZXIgb3JpZW50PSJhdXRvIiBtYXJrZXJIZWlnaHQ9IjI4IiBtYXJrZXJXaWR0aD0iMjAiIHJlZlk9IjciIHJlZlg9IjEiIGNsYXNzPSJtYXJrZXIgYWdncmVnYXRpb24gY2xhc3MiIGlkPSJnZU1lcm1haWRPdXRwdXQtMTc0NzEyOTAzMDQ1Ml9jbGFzcy1hZ2dyZWdhdGlvbkVuZCI+PHBhdGggZD0iTSAxOCw3IEw5LDEzIEwxLDcgTDksMSBaIj48L3BhdGg+PC9tYXJrZXI+PC9kZWZzPjxkZWZzPjxtYXJrZXIgb3JpZW50PSJhdXRvIiBtYXJrZXJIZWlnaHQ9IjI0MCIgbWFya2VyV2lkdGg9IjE5MCIgcmVmWT0iNyIgcmVmWD0iMTgiIGNsYXNzPSJtYXJrZXIgZXh0ZW5zaW9uIGNsYXNzIiBpZD0iZ2VNZXJtYWlkT3V0cHV0LTE3NDcxMjkwMzA0NTJfY2xhc3MtZXh0ZW5zaW9uU3RhcnQiPjxwYXRoIGQ9Ik0gMSw3IEwxOCwxMyBWIDEgWiI+PC9wYXRoPjwvbWFya2VyPjwvZGVmcz48ZGVmcz48bWFya2VyIG9yaWVudD0iYXV0byIgbWFya2VySGVpZ2h0PSIyOCIgbWFya2VyV2lkdGg9IjIwIiByZWZZPSI3IiByZWZYPSIxIiBjbGFzcz0ibWFya2VyIGV4dGVuc2lvbiBjbGFzcyIgaWQ9ImdlTWVybWFpZE91dHB1dC0xNzQ3MTI5MDMwNDUyX2NsYXNzLWV4dGVuc2lvbkVuZCI+PHBhdGggZD0iTSAxLDEgViAxMyBMMTgsNyBaIj48L3BhdGg+PC9tYXJrZXI+PC9kZWZzPjxkZWZzPjxtYXJrZXIgb3JpZW50PSJhdXRvIiBtYXJrZXJIZWlnaHQ9IjI0MCIgbWFya2VyV2lkdGg9IjE5MCIgcmVmWT0iNyIgcmVmWD0iMTgiIGNsYXNzPSJtYXJrZXIgY29tcG9zaXRpb24gY2xhc3MiIGlkPSJnZU1lcm1haWRPdXRwdXQtMTc0NzEyOTAzMDQ1Ml9jbGFzcy1jb21wb3NpdGlvblN0YXJ0Ij48cGF0aCBkPSJNIDE4LDcgTDksMTMgTDEsNyBMOSwxIFoiPjwvcGF0aD48L21hcmtlcj48L2RlZnM+PGRlZnM+PG1hcmtlciBvcmllbnQ9ImF1dG8iIG1hcmtlckhlaWdodD0iMjgiIG1hcmtlcldpZHRoPSIyMCIgcmVmWT0iNyIgcmVmWD0iMSIgY2xhc3M9Im1hcmtlciBjb21wb3NpdGlvbiBjbGFzcyIgaWQ9ImdlTWVybWFpZE91dHB1dC0xNzQ3MTI5MDMwNDUyX2NsYXNzLWNvbXBvc2l0aW9uRW5kIj48cGF0aCBkPSJNIDE4LDcgTDksMTMgTDEsNyBMOSwxIFoiPjwvcGF0aD48L21hcmtlcj48L2RlZnM+PGRlZnM+PG1hcmtlciBvcmllbnQ9ImF1dG8iIG1hcmtlckhlaWdodD0iMjQwIiBtYXJrZXJXaWR0aD0iMTkwIiByZWZZPSI3IiByZWZYPSI2IiBjbGFzcz0ibWFya2VyIGRlcGVuZGVuY3kgY2xhc3MiIGlkPSJnZU1lcm1haWRPdXRwdXQtMTc0NzEyOTAzMDQ1Ml9jbGFzcy1kZXBlbmRlbmN5U3RhcnQiPjxwYXRoIGQ9Ik0gNSw3IEw5LDEzIEwxLDcgTDksMSBaIj48L3BhdGg+PC9tYXJrZXI+PC9kZWZzPjxkZWZzPjxtYXJrZXIgb3JpZW50PSJhdXRvIiBtYXJrZXJIZWlnaHQ9IjI4IiBtYXJrZXJXaWR0aD0iMjAiIHJlZlk9IjciIHJlZlg9IjEzIiBjbGFzcz0ibWFya2VyIGRlcGVuZGVuY3kgY2xhc3MiIGlkPSJnZU1lcm1haWRPdXRwdXQtMTc0NzEyOTAzMDQ1Ml9jbGFzcy1kZXBlbmRlbmN5RW5kIj48cGF0aCBkPSJNIDE4LDcgTDksMTMgTDE0LDcgTDksMSBaIj48L3BhdGg+PC9tYXJrZXI+PC9kZWZzPjxkZWZzPjxtYXJrZXIgb3JpZW50PSJhdXRvIiBtYXJrZXJIZWlnaHQ9IjI0MCIgbWFya2VyV2lkdGg9IjE5MCIgcmVmWT0iNyIgcmVmWD0iMTMiIGNsYXNzPSJtYXJrZXIgbG9sbGlwb3AgY2xhc3MiIGlkPSJnZU1lcm1haWRPdXRwdXQtMTc0NzEyOTAzMDQ1Ml9jbGFzcy1sb2xsaXBvcFN0YXJ0Ij48Y2lyY2xlIHI9IjYiIGN5PSI3IiBjeD0iNyIgZmlsbD0idHJhbnNwYXJlbnQiIHN0cm9rZT0iYmxhY2siPjwvY2lyY2xlPjwvbWFya2VyPjwvZGVmcz48ZGVmcz48bWFya2VyIG9yaWVudD0iYXV0byIgbWFya2VySGVpZ2h0PSIyNDAiIG1hcmtlcldpZHRoPSIxOTAiIHJlZlk9IjciIHJlZlg9IjEiIGNsYXNzPSJtYXJrZXIgbG9sbGlwb3AgY2xhc3MiIGlkPSJnZU1lcm1haWRPdXRwdXQtMTc0NzEyOTAzMDQ1Ml9jbGFzcy1sb2xsaXBvcEVuZCI+PGNpcmNsZSByPSI2IiBjeT0iNyIgY3g9IjciIGZpbGw9InRyYW5zcGFyZW50IiBzdHJva2U9ImJsYWNrIj48L2NpcmNsZT48L21hcmtlcj48L2RlZnM+PGcgY2xhc3M9InJvb3QiPjxnIGNsYXNzPSJjbHVzdGVycyI+PC9nPjxnIGNsYXNzPSJlZGdlUGF0aHMiPjxwYXRoIG1hcmtlci1lbmQ9InVybCgjZ2VNZXJtYWlkT3V0cHV0LTE3NDcxMjkwMzA0NTJfY2xhc3MtZGVwZW5kZW5jeUVuZCkiIHN0eWxlPSI7IiBjbGFzcz0iZWRnZS10aGlja25lc3Mtbm9ybWFsIGVkZ2UtcGF0dGVybi1kYXNoZWQgcmVsYXRpb24iIGlkPSJpZF9Mb2dpblBhZ2VfRmlyZWJhc2VBdXRoXzEiIGQ9Ik0yMTQuMzI3LDEzMDUuM0wyNjAuNTY0LDEwOTAuOTVDMzA2LjgwMSw4NzYuNiwzOTkuMjc2LDQ0Ny45LDQ4OC40ODYsMjMzLjU1QzU3Ny42OTcsMTkuMiw2NjMuNjQ0LDE5LjIsNzQ4LjkyOCwxOS4yQzgzNC4yMTIsMTkuMiw5MTguODM0LDE5LjIsMTAxMy4zMzcsMTkuMkMxMTA3Ljg0MSwxOS4yLDEyMTIuMjI1LDE5LjIsMTMxMC4zMTIsMTkuMkMxNDA4LjM5OCwxOS4yLDE1MDAuMTg3LDE5LjIsMTU5NC44NTYsNTQuMTUxQzE2ODkuNTI1LDg5LjEwMiwxNzg3LjA3NCwxNTkuMDAzLDE4MzUuODQ5LDE5My45NTRMMTg4NC42MjMsMjI4LjkwNSI+PC9wYXRoPjxwYXRoIG1hcmtlci1lbmQ9InVybCgjZ2VNZXJtYWlkT3V0cHV0LTE3NDcxMjkwMzA0NTJfY2xhc3MtZGVwZW5kZW5jeUVuZCkiIHN0eWxlPSI7IiBjbGFzcz0iZWRnZS10aGlja25lc3Mtbm9ybWFsIGVkZ2UtcGF0dGVybi1kYXNoZWQgcmVsYXRpb24iIGlkPSJpZF9Mb2dpblBhZ2VfSG9tZVBhZ2VfMiIgZD0iTTIxNS4zNTcsMTMwNS4zTDI2MS40MjMsMTEwMS44NjdDMzA3LjQ4OCw4OTguNDMzLDM5OS42MTksNDkxLjU2Nyw0NzguOTU0LDM4Ny4zODVDNTU4LjI5LDI4My4yMDQsNjI0LjgyOSw0ODEuNzA3LDY1OC4wOTksNTgwLjk1OUw2OTEuMzY5LDY4MC4yMTEiPjwvcGF0aD48cGF0aCBtYXJrZXItZW5kPSJ1cmwoI2dlTWVybWFpZE91dHB1dC0xNzQ3MTI5MDMwNDUyX2NsYXNzLWRlcGVuZGVuY3lFbmQpIiBzdHlsZT0iOyIgY2xhc3M9ImVkZ2UtdGhpY2tuZXNzLW5vcm1hbCBlZGdlLXBhdHRlcm4tZGFzaGVkIHJlbGF0aW9uIiBpZD0iaWRfTG9naW5QYWdlX1NpZ251cFBhZ2VfMyIgZD0iTTIxNi40OTUsMTMwNS4zTDI2Mi4zNzEsMTExMi43ODNDMzA4LjI0Nyw5MjAuMjY3LDM5OS45OTgsNTM1LjIzMyw0ODguODQ4LDM0Mi43MTdDNTc3LjY5NywxNTAuMiw2NjMuNjQ0LDE1MC4yLDc0OC45MjgsMTUwLjJDODM0LjIxMiwxNTAuMiw5MTguODM0LDE1MC4yLDk4MC43NCwxNTAuMkMxMDQyLjY0NSwxNTAuMiwxMDgxLjgzMywxNTAuMiwxMTAxLjQyOCwxNTAuMkwxMTIxLjAyMiwxNTAuMiI+PC9wYXRoPjxwYXRoIG1hcmtlci1lbmQ9InVybCgjZ2VNZXJtYWlkT3V0cHV0LTE3NDcxMjkwMzA0NTJfY2xhc3MtZGVwZW5kZW5jeUVuZCkiIHN0eWxlPSI7IiBjbGFzcz0iZWRnZS10aGlja25lc3Mtbm9ybWFsIGVkZ2UtcGF0dGVybi1kYXNoZWQgcmVsYXRpb24iIGlkPSJpZF9TaWdudXBQYWdlX0ZpcmViYXNlQXV0aF80IiBkPSJNMTUwNi4xOTcsMTE1Ljg0NEwxNTIwLjQ5MywxMTMuMjU0QzE1MzQuNzksMTEwLjY2MywxNTYzLjM4MywxMDUuNDgxLDE2MTguNDQ0LDEyNC40NEMxNjczLjUwNSwxNDMuMzk5LDE3NTUuMDM0LDE4Ni40OTcsMTc5NS43OTksMjA4LjA0N0wxODM2LjU2NCwyMjkuNTk2Ij48L3BhdGg+PHBhdGggbWFya2VyLWVuZD0idXJsKCNnZU1lcm1haWRPdXRwdXQtMTc0NzEyOTAzMDQ1Ml9jbGFzcy1kZXBlbmRlbmN5RW5kKSIgc3R5bGU9IjsiIGNsYXNzPSJlZGdlLXRoaWNrbmVzcy1ub3JtYWwgZWRnZS1wYXR0ZXJuLWRhc2hlZCByZWxhdGlvbiIgaWQ9ImlkX1NpZ251cFBhZ2VfRmlyZWJhc2VEYXRhYmFzZV81IiBkPSJNMTUwNi4xOTcsMTc4Ljg0MUwxNTIwLjQ5MywxODEuMDAxQzE1MzQuNzksMTgzLjE2MSwxNTYzLjM4MywxODcuNDgsMTY0OS41OTUsMTg5LjY0QzE3MzUuODA3LDE5MS44LDE4NzkuNjM5LDE5MS44LDIwMzAuNTcxLDE5MS44QzIxODEuNTA0LDE5MS44LDIzMzkuNTM3LDE5MS44LDI0NjguOTEzLDE5MS44QzI1OTguMjksMTkxLjgsMjY5OS4wMSwxOTEuOCwyNzk5LjY5NiwxOTEuOEMyOTAwLjM4MSwxOTEuOCwzMDAxLjAzMywxOTEuOCwzMTAwLjc0OCwzMjYuNjYxQzMyMDAuNDYzLDQ2MS41MjIsMzI5OS4yNDIsNzMxLjI0NCwzMzQ4LjYzMSw4NjYuMTA1TDMzOTguMDIxLDEwMDAuOTY2Ij48L3BhdGg+PHBhdGggbWFya2VyLWVuZD0idXJsKCNnZU1lcm1haWRPdXRwdXQtMTc0NzEyOTAzMDQ1Ml9jbGFzcy1kZXBlbmRlbmN5RW5kKSIgc3R5bGU9IjsiIGNsYXNzPSJlZGdlLXRoaWNrbmVzcy1ub3JtYWwgZWRnZS1wYXR0ZXJuLWRhc2hlZCByZWxhdGlvbiIgaWQ9ImlkX0hvbWVQYWdlX0ZpcmViYXNlQXV0aF82IiBkPSJNODMwLjc1LDY4NS45TDg1OS41MzUsNjI2LjMxN0M4ODguMzE5LDU2Ni43MzMsOTQ1Ljg4OCw0NDcuNTY3LDEwMjYuODY0LDM4Ny45ODNDMTEwNy44NDEsMzI4LjQsMTIxMi4yMjUsMzI4LjQsMTMxMC4zMTIsMzI4LjRDMTQwOC4zOTgsMzI4LjQsMTUwMC4xODcsMzI4LjQsMTU1Ni44NzMsMzI4LjRDMTYxMy41NTksMzI4LjQsMTYzNS4xNDMsMzI4LjQsMTY0NS45MzUsMzI4LjRMMTY1Ni43MjcsMzI4LjQiPjwvcGF0aD48cGF0aCBtYXJrZXItZW5kPSJ1cmwoI2dlTWVybWFpZE91dHB1dC0xNzQ3MTI5MDMwNDUyX2NsYXNzLWRlcGVuZGVuY3lFbmQpIiBzdHlsZT0iOyIgY2xhc3M9ImVkZ2UtdGhpY2tuZXNzLW5vcm1hbCBlZGdlLXBhdHRlcm4tZGFzaGVkIHJlbGF0aW9uIiBpZD0iaWRfSG9tZVBhZ2VfRmlyZWJhc2VEYXRhYmFzZV83IiBkPSJNODYwLjg2LDY4NS45TDg4NC42MjYsNjUwLjAxN0M5MDguMzkyLDYxNC4xMzMsOTU1LjkyNCw1NDIuMzY3LDEwMzEuODgyLDUwNi40ODNDMTEwNy44NDEsNDcwLjYsMTIxMi4yMjUsNDcwLjYsMTMxMC4zMTIsNDcwLjZDMTQwOC4zOTgsNDcwLjYsMTUwMC4xODcsNDcwLjYsMTYxNy45OTcsNDcwLjZDMTczNS44MDcsNDcwLjYsMTg3OS42MzksNDcwLjYsMjAzMC41NzEsNDcwLjZDMjE4MS41MDQsNDcwLjYsMjMzOS41MzcsNDcwLjYsMjQ2OC45MTMsNDcwLjZDMjU5OC4yOSw0NzAuNiwyNjk5LjAxLDQ3MC42LDI3OTkuNjk2LDQ3MC42QzI5MDAuMzgxLDQ3MC42LDMwMDEuMDMzLDQ3MC42LDMwOTcuNDUzLDU1OS4wNDdDMzE5My44NzQsNjQ3LjQ5MywzMjg2LjA2NCw4MjQuMzg2LDMzMzIuMTU5LDkxMi44MzNMMzM3OC4yNTQsMTAwMS4yNzkiPjwvcGF0aD48cGF0aCBtYXJrZXItZW5kPSJ1cmwoI2dlTWVybWFpZE91dHB1dC0xNzQ3MTI5MDMwNDUyX2NsYXNzLWRlcGVuZGVuY3lFbmQpIiBzdHlsZT0iOyIgY2xhc3M9ImVkZ2UtdGhpY2tuZXNzLW5vcm1hbCBlZGdlLXBhdHRlcm4tZGFzaGVkIHJlbGF0aW9uIiBpZD0iaWRfSG9tZVBhZ2VfUHJvZmlsZVBhZ2VfOCIgZD0iTTg5NC45MTksNzI2LjEyN0w5MTMuMDA4LDcxMC4yMjJDOTMxLjA5OCw2OTQuMzE4LDk2Ny4yNzcsNjYyLjUwOSwxMDEyLjU5NCw2NTkuNTA3QzEwNTcuOTEsNjU2LjUwNSwxMTEyLjM2NCw2ODIuMzEsMTEzOS41OTIsNjk1LjIxM0wxMTY2LjgxOSw3MDguMTE2Ij48L3BhdGg+PHBhdGggbWFya2VyLWVuZD0idXJsKCNnZU1lcm1haWRPdXRwdXQtMTc0NzEyOTAzMDQ1Ml9jbGFzcy1kZXBlbmRlbmN5RW5kKSIgc3R5bGU9IjsiIGNsYXNzPSJlZGdlLXRoaWNrbmVzcy1ub3JtYWwgZWRnZS1wYXR0ZXJuLWRhc2hlZCByZWxhdGlvbiIgaWQ9ImlkX0hvbWVQYWdlX0FkbWluUGFnZV85IiBkPSJNODk0LjkxOSw3NTAuMzk5TDkxMy4wMDgsNzM3LjUxNkM5MzEuMDk4LDcyNC42MzMsOTY3LjI3Nyw2OTguODY2LDEwMjcuMTI0LDc4NS43MTFDMTA4Ni45Nyw4NzIuNTU1LDExNzAuNDg0LDEwNzIuMDEsMTIxMi4yNDEsMTE3MS43MzhMMTI1My45OTgsMTI3MS40NjYiPjwvcGF0aD48cGF0aCBtYXJrZXItZW5kPSJ1cmwoI2dlTWVybWFpZE91dHB1dC0xNzQ3MTI5MDMwNDUyX2NsYXNzLWRlcGVuZGVuY3lFbmQpIiBzdHlsZT0iOyIgY2xhc3M9ImVkZ2UtdGhpY2tuZXNzLW5vcm1hbCBlZGdlLXBhdHRlcm4tZGFzaGVkIHJlbGF0aW9uIiBpZD0iaWRfSG9tZVBhZ2VfRXhwbG9yZVBhZ2VfMTAiIGQ9Ik04OTQuOTE5LDc3NC42NzFMOTEzLjAwOCw3NjQuODFDOTMxLjA5OCw3NTQuOTQ4LDk2Ny4yNzcsNzM1LjIyNCwxMDI3LjAzMyw3MDUuNjE3QzEwODYuNzksNjc2LjAwOSwxMTcwLjEyMyw2MzYuNTE4LDEyMTEuNzg5LDYxNi43NzNMMTI1My40NTYsNTk3LjAyOCI+PC9wYXRoPjxwYXRoIG1hcmtlci1lbmQ9InVybCgjZ2VNZXJtYWlkT3V0cHV0LTE3NDcxMjkwMzA0NTJfY2xhc3MtZGVwZW5kZW5jeUVuZCkiIHN0eWxlPSI7IiBjbGFzcz0iZWRnZS10aGlja25lc3Mtbm9ybWFsIGVkZ2UtcGF0dGVybi1kYXNoZWQgcmVsYXRpb24iIGlkPSJpZF9Ib21lUGFnZV9Cb29raW5nc1BhZ2VfMTEiIGQ9Ik04OTQuOTE5LDkxMS42NjFMOTEzLjAwOCw5MTguODUxQzkzMS4wOTgsOTI2LjA0MSw5NjcuMjc3LDk0MC40MiwxMDM3LjU1OSw5NDcuNjFDMTEwNy44NDEsOTU0LjgsMTIxMi4yMjUsOTU0LjgsMTMxMC4zMTIsOTU0LjhDMTQwOC4zOTgsOTU0LjgsMTUwMC4xODcsOTU0LjgsMTYxNy45OTcsOTU0LjhDMTczNS44MDcsOTU0LjgsMTg3OS42MzksOTU0LjgsMjAzMC41NzEsOTU0LjhDMjE4MS41MDQsOTU0LjgsMjMzOS41MzcsOTU0LjgsMjQ2OC45MTMsOTU0LjhDMjU5OC4yOSw5NTQuOCwyNjk5LjAxLDk1NC44LDI3OTkuNjk2LDk1NC44QzI5MDAuMzgxLDk1NC44LDMwMDEuMDMzLDk1NC44LDMwOTcuNDA5LDkyNy43MjhDMzE5My43ODYsOTAwLjY1NywzMjg1Ljg4Nyw4NDYuNTEzLDMzMzEuOTM4LDgxOS40NDJMMzM3Ny45ODgsNzkyLjM3Ij48L3BhdGg+PHBhdGggbWFya2VyLWVuZD0idXJsKCNnZU1lcm1haWRPdXRwdXQtMTc0NzEyOTAzMDQ1Ml9jbGFzcy1kZXBlbmRlbmN5RW5kKSIgc3R5bGU9IjsiIGNsYXNzPSJlZGdlLXRoaWNrbmVzcy1ub3JtYWwgZWRnZS1wYXR0ZXJuLWRhc2hlZCByZWxhdGlvbiIgaWQ9ImlkX0hvbWVQYWdlX0xvZ2luUGFnZV8xMiIgZD0iTTcxOS4xODIsMTAyMS45TDY4MS4yNzcsMTIzMS4zMTdDNjQzLjM3MSwxNDQwLjczMyw1NjcuNTYxLDE4NTkuNTY3LDQ4NS43MjcsMTkzOS43NDdDNDAzLjg5NCwyMDE5LjkyNywzMTYuMDM3LDE3NjEuNDU0LDI3Mi4xMDksMTYzMi4yMTdMMjI4LjE4MSwxNTAyLjk4MSI+PC9wYXRoPjxwYXRoIG1hcmtlci1lbmQ9InVybCgjZ2VNZXJtYWlkT3V0cHV0LTE3NDcxMjkwMzA0NTJfY2xhc3MtZGVwZW5kZW5jeUVuZCkiIHN0eWxlPSI7IiBjbGFzcz0iZWRnZS10aGlja25lc3Mtbm9ybWFsIGVkZ2UtcGF0dGVybi1kYXNoZWQgcmVsYXRpb24iIGlkPSJpZF9Qcm9maWxlUGFnZV9GaXJlYmFzZUF1dGhfMTMiIGQ9Ik0xNDYwLjk3OCw3MTEuNTJMMTQ4Mi44MTEsNzAxLjNDMTUwNC42NDQsNjkxLjA4LDE1NDguMzEsNjcwLjY0LDE2MTkuODAzLDYyMy4zODVDMTY5MS4yOTYsNTc2LjEyOSwxNzkwLjYxNiw1MDIuMDU4LDE4NDAuMjc2LDQ2NS4wMjJMMTg4OS45MzYsNDI3Ljk4NyI+PC9wYXRoPjxwYXRoIG1hcmtlci1lbmQ9InVybCgjZ2VNZXJtYWlkT3V0cHV0LTE3NDcxMjkwMzA0NTJfY2xhc3MtZGVwZW5kZW5jeUVuZCkiIHN0eWxlPSI7IiBjbGFzcz0iZWRnZS10aGlja25lc3Mtbm9ybWFsIGVkZ2UtcGF0dGVybi1kYXNoZWQgcmVsYXRpb24iIGlkPSJpZF9Qcm9maWxlUGFnZV9GaXJlYmFzZURhdGFiYXNlXzE0IiBkPSJNMTQ2MC45NzgsNzI3Ljg3OEwxNDgyLjgxMSw3MjAuMTMyQzE1MDQuNjQ0LDcxMi4zODUsMTU0OC4zMSw2OTYuODkzLDE2NDIuMDU5LDY4OS4xNDZDMTczNS44MDcsNjgxLjQsMTg3OS42MzksNjgxLjQsMjAzMC41NzEsNjgxLjRDMjE4MS41MDQsNjgxLjQsMjMzOS41MzcsNjgxLjQsMjQ2OC45MTMsNjgxLjRDMjU5OC4yOSw2ODEuNCwyNjk5LjAxLDY4MS40LDI3OTkuNjk2LDY4MS40QzI5MDAuMzgxLDY4MS40LDMwMDEuMDMzLDY4MS40LDMwOTIuMjgzLDczNC44MDZDMzE4My41MzIsNzg4LjIxMiwzMjY1LjM4LDg5NS4wMjUsMzMwNi4zMDQsOTQ4LjQzMUwzMzQ3LjIyOCwxMDAxLjgzNyI+PC9wYXRoPjxwYXRoIG1hcmtlci1lbmQ9InVybCgjZ2VNZXJtYWlkT3V0cHV0LTE3NDcxMjkwMzA0NTJfY2xhc3MtZGVwZW5kZW5jeUVuZCkiIHN0eWxlPSI7IiBjbGFzcz0iZWRnZS10aGlja25lc3Mtbm9ybWFsIGVkZ2UtcGF0dGVybi1kYXNoZWQgcmVsYXRpb24iIGlkPSJpZF9Qcm9maWxlUGFnZV9FZGl0UHJvZmlsZVBhZ2VfMTUiIGQ9Ik0xNDYwLjk3OCw4MDcuNDYzTDE0ODIuODExLDgxMS43NTNDMTUwNC42NDQsODE2LjA0MiwxNTQ4LjMxLDgyNC42MjEsMTYyOS41NzYsODI4LjkxMUMxNzEwLjg0Myw4MzMuMiwxODI5LjcxLDgzMy4yLDE4ODkuMTQzLDgzMy4yTDE5NDguNTc3LDgzMy4yIj48L3BhdGg+PHBhdGggbWFya2VyLWVuZD0idXJsKCNnZU1lcm1haWRPdXRwdXQtMTc0NzEyOTAzMDQ1Ml9jbGFzcy1kZXBlbmRlbmN5RW5kKSIgc3R5bGU9IjsiIGNsYXNzPSJlZGdlLXRoaWNrbmVzcy1ub3JtYWwgZWRnZS1wYXR0ZXJuLWRhc2hlZCByZWxhdGlvbiIgaWQ9ImlkX1Byb2ZpbGVQYWdlX0xvZ2luUGFnZV8xNiIgZD0iTTEyOTAuMjUyLDg5OS4xTDEyNDIuNDUyLDExMTYuNzE3QzExOTQuNjUzLDEzMzQuMzMzLDEwOTkuMDU1LDE3NjkuNTY3LDEwMDguOTQ1LDE5ODcuMTgzQzkxOC44MzQsMjIwNC44LDgzNC4yMTIsMjIwNC44LDc0OC45MjgsMjIwNC44QzY2My42NDQsMjIwNC44LDU3Ny42OTcsMjIwNC44LDQ5MS4zMTksMjA4Ny44MjFDNDA0Ljk0MiwxOTcwLjg0MiwzMTguMTM0LDE3MzYuODg0LDI3NC43MywxNjE5LjkwNEwyMzEuMzI2LDE1MDIuOTI1Ij48L3BhdGg+PHBhdGggbWFya2VyLWVuZD0idXJsKCNnZU1lcm1haWRPdXRwdXQtMTc0NzEyOTAzMDQ1Ml9jbGFzcy1kZXBlbmRlbmN5RW5kKSIgc3R5bGU9IjsiIGNsYXNzPSJlZGdlLXRoaWNrbmVzcy1ub3JtYWwgZWRnZS1wYXR0ZXJuLWRhc2hlZCByZWxhdGlvbiIgaWQ9ImlkX0FkbWluUGFnZV9GaXJlYmFzZURhdGFiYXNlXzE3IiBkPSJNMTQzMi4xODEsMTI3N0wxNDU4LjgxNCwxMjQzLjgxN0MxNDg1LjQ0NiwxMjEwLjYzMywxNTM4LjcxMSwxMTQ0LjI2NywxNjM3LjI1OSwxMTExLjA4M0MxNzM1LjgwNywxMDc3LjksMTg3OS42MzksMTA3Ny45LDIwMzAuNTcxLDEwNzcuOUMyMTgxLjUwNCwxMDc3LjksMjMzOS41MzcsMTA3Ny45LDI0NjguOTEzLDEwNzcuOUMyNTk4LjI5LDEwNzcuOSwyNjk5LjAxLDEwNzcuOSwyNzk5LjY5NiwxMDc3LjlDMjkwMC4zODEsMTA3Ny45LDMwMDEuMDMzLDEwNzcuOSwzMDY5LjIyOCwxMDgwLjU5QzMxMzcuNDI0LDEwODMuMjgsMzE3My4xNjMsMTA4OC42NiwzMTkxLjAzMywxMDkxLjM1TDMyMDguOTAzLDEwOTQuMDQiPjwvcGF0aD48cGF0aCBtYXJrZXItZW5kPSJ1cmwoI2dlTWVybWFpZE91dHB1dC0xNzQ3MTI5MDMwNDUyX2NsYXNzLWRlcGVuZGVuY3lFbmQpIiBzdHlsZT0iOyIgY2xhc3M9ImVkZ2UtdGhpY2tuZXNzLW5vcm1hbCBlZGdlLXBhdHRlcm4tZGFzaGVkIHJlbGF0aW9uIiBpZD0iaWRfQWRtaW5QYWdlX0FkZEhvdGVsUGFnZV8xOCIgZD0iTTE1MjEuMjI1LDEyNzguNTU0TDE1MzMuMDE3LDEyNzAuMzQ1QzE1NDQuODA5LDEyNjIuMTM2LDE1NjguMzkyLDEyNDUuNzE4LDE2NTIuMSwxMjM3LjUwOUMxNzM1LjgwNywxMjI5LjMsMTg3OS42MzksMTIyOS4zLDIwMzAuNTcxLDEyMjkuM0MyMTgxLjUwNCwxMjI5LjMsMjMzOS41MzcsMTIyOS4zLDI0MzYuNDQ2LDEyMjkuM0MyNTMzLjM1NiwxMjI5LjMsMjU2OS4xNDEsMTIyOS4zLDI1ODcuMDM0LDEyMjkuM0wyNjA0LjkyNywxMjI5LjMiPjwvcGF0aD48cGF0aCBtYXJrZXItZW5kPSJ1cmwoI2dlTWVybWFpZE91dHB1dC0xNzQ3MTI5MDMwNDUyX2NsYXNzLWRlcGVuZGVuY3lFbmQpIiBzdHlsZT0iOyIgY2xhc3M9ImVkZ2UtdGhpY2tuZXNzLW5vcm1hbCBlZGdlLXBhdHRlcm4tZGFzaGVkIHJlbGF0aW9uIiBpZD0iaWRfQWRtaW5QYWdlX0VkaXRIb3RlbFBhZ2VfMTkiIGQ9Ik0xNTIxLjIyNSwxNDQwLjU0M0wxNTMzLjAxNywxNDQxLjY2OUMxNTQ0LjgwOSwxNDQyLjc5NSwxNTY4LjM5MiwxNDQ1LjA0OCwxNjUyLjEsMTQ0Ni4xNzRDMTczNS44MDcsMTQ0Ny4zLDE4NzkuNjM5LDE0NDcuMywyMDMwLjU3MSwxNDQ3LjNDMjE4MS41MDQsMTQ0Ny4zLDIzMzkuNTM3LDE0NDcuMywyNDM3Ljk3MywxNDQ3LjNDMjUzNi40MDksMTQ0Ny4zLDI1NzUuMjQ3LDE0NDcuMywyNTk0LjY2NywxNDQ3LjNMMjYxNC4wODYsMTQ0Ny4zIj48L3BhdGg+PHBhdGggbWFya2VyLWVuZD0idXJsKCNnZU1lcm1haWRPdXRwdXQtMTc0NzEyOTAzMDQ1Ml9jbGFzcy1kZXBlbmRlbmN5RW5kKSIgc3R5bGU9IjsiIGNsYXNzPSJlZGdlLXRoaWNrbmVzcy1ub3JtYWwgZWRnZS1wYXR0ZXJuLWRhc2hlZCByZWxhdGlvbiIgaWQ9ImlkX0FkbWluUGFnZV9DbGllbnRzUGFnZV8yMCIgZD0iTTE0MzcuMDk4LDE1NjVMMTQ2Mi45MTEsMTU5NS44NUMxNDg4LjcyNCwxNjI2LjcsMTU0MC4zNSwxNjg4LjQsMTYwMy4yMzMsMTcxOS4yNUMxNjY2LjExNiwxNzUwLjEsMTc0MC4yNTUsMTc1MC4xLDE3NzcuMzI1LDE3NTAuMUwxODE0LjM5NSwxNzUwLjEiPjwvcGF0aD48cGF0aCBtYXJrZXItZW5kPSJ1cmwoI2dlTWVybWFpZE91dHB1dC0xNzQ3MTI5MDMwNDUyX2NsYXNzLWRlcGVuZGVuY3lFbmQpIiBzdHlsZT0iOyIgY2xhc3M9ImVkZ2UtdGhpY2tuZXNzLW5vcm1hbCBlZGdlLXBhdHRlcm4tZGFzaGVkIHJlbGF0aW9uIiBpZD0iaWRfQWRtaW5QYWdlX0xvZ2luUGFnZV8yMSIgZD0iTTEyNjIuMDI5LDE1NjVMMTIxOC45MzQsMTY3OC43QzExNzUuODM4LDE3OTIuNCwxMDg5LjY0NywyMDE5LjgsMTAwNC4yNDEsMjEzMy41QzkxOC44MzQsMjI0Ny4yLDgzNC4yMTIsMjI0Ny4yLDc0OC45MjgsMjI0Ny4yQzY2My42NDQsMjI0Ny4yLDU3Ny42OTcsMjI0Ny4yLDQ5MS4wMDYsMjEyMy4xNkM0MDQuMzE2LDE5OTkuMTIsMzE2Ljg4MiwxNzUxLjAzOSwyNzMuMTY1LDE2MjYuOTk5TDIyOS40NDgsMTUwMi45NTkiPjwvcGF0aD48cGF0aCBtYXJrZXItZW5kPSJ1cmwoI2dlTWVybWFpZE91dHB1dC0xNzQ3MTI5MDMwNDUyX2NsYXNzLWRlcGVuZGVuY3lFbmQpIiBzdHlsZT0iOyIgY2xhc3M9ImVkZ2UtdGhpY2tuZXNzLW5vcm1hbCBlZGdlLXBhdHRlcm4tZGFzaGVkIHJlbGF0aW9uIiBpZD0iaWRfQ2xpZW50c1BhZ2VfRmlyZWJhc2VEYXRhYmFzZV8yMiIgZD0iTTIyMjYuNTQ1LDE2ODUuNzY0TDIyNzEuNzE2LDE2NzEuNDUzQzIzMTYuODg3LDE2NTcuMTQyLDI0MDcuMjI5LDE2MjguNTIxLDI1MDIuNzU5LDE2MTQuMjExQzI1OTguMjksMTU5OS45LDI2OTkuMDEsMTU5OS45LDI3OTkuNjk2LDE1OTkuOUMyOTAwLjM4MSwxNTk5LjksMzAwMS4wMzMsMTU5OS45LDMwOTMuMDM5LDE1NDIuODI0QzMxODUuMDQ2LDE0ODUuNzQ4LDMyNjguNDA3LDEzNzEuNTk3LDMzMTAuMDg3LDEzMTQuNTIxTDMzNTEuNzY4LDEyNTcuNDQ2Ij48L3BhdGg+PHBhdGggbWFya2VyLWVuZD0idXJsKCNnZU1lcm1haWRPdXRwdXQtMTc0NzEyOTAzMDQ1Ml9jbGFzcy1kZXBlbmRlbmN5RW5kKSIgc3R5bGU9IjsiIGNsYXNzPSJlZGdlLXRoaWNrbmVzcy1ub3JtYWwgZWRnZS1wYXR0ZXJuLWRhc2hlZCByZWxhdGlvbiIgaWQ9ImlkX0NsaWVudHNQYWdlX0NsaWVudERldGFpbHNQYWdlXzIzIiBkPSJNMjIyNi41NDUsMTc0NS4zMDNMMjI3MS43MTYsMTc0NC4yMzZDMjMxNi44ODcsMTc0My4xNjgsMjQwNy4yMjksMTc0MS4wMzQsMjQ3MC41NSwxNzM5Ljk2N0MyNTMzLjg3MiwxNzM4LjksMjU3MC4xNzQsMTczOC45LDI1ODguMzI1LDE3MzguOUwyNjA2LjQ3NywxNzM4LjkiPjwvcGF0aD48cGF0aCBtYXJrZXItZW5kPSJ1cmwoI2dlTWVybWFpZE91dHB1dC0xNzQ3MTI5MDMwNDUyX2NsYXNzLWRlcGVuZGVuY3lFbmQpIiBzdHlsZT0iOyIgY2xhc3M9ImVkZ2UtdGhpY2tuZXNzLW5vcm1hbCBlZGdlLXBhdHRlcm4tZGFzaGVkIHJlbGF0aW9uIiBpZD0iaWRfQ2xpZW50c1BhZ2VfQ2xpZW50XzI0IiBkPSJNMjIyNi41NDUsMTgyOS42NDJMMjI3MS43MTYsMTg0Ny4zMzVDMjMxNi44ODcsMTg2NS4wMjgsMjQwNy4yMjksMTkwMC40MTQsMjUwMi43NTksMTkxOC4xMDdDMjU5OC4yOSwxOTM1LjgsMjY5OS4wMSwxOTM1LjgsMjc5OS42OTYsMTkzNS44QzI5MDAuMzgxLDE5MzUuOCwzMDAxLjAzMywxOTM1LjgsMzEwOC41OTksMTkzNS44QzMyMTYuMTY2LDE5MzUuOCwzMzMwLjY0OCwxOTM1LjgsMzQzOS4zNjIsMTkzNS44QzM1NDguMDc3LDE5MzUuOCwzNjUxLjAyMywxOTM1LjgsMzcyMi41OTgsMTkwNy45MTFDMzc5NC4xNzIsMTg4MC4wMjIsMzgzNC4zNzMsMTgyNC4yNDUsMzg1NC40NzQsMTc5Ni4zNTZMMzg3NC41NzUsMTc2OC40NjciPjwvcGF0aD48cGF0aCBtYXJrZXItZW5kPSJ1cmwoI2dlTWVybWFpZE91dHB1dC0xNzQ3MTI5MDMwNDUyX2NsYXNzLWRlcGVuZGVuY3lFbmQpIiBzdHlsZT0iOyIgY2xhc3M9ImVkZ2UtdGhpY2tuZXNzLW5vcm1hbCBlZGdlLXBhdHRlcm4tZGFzaGVkIHJlbGF0aW9uIiBpZD0iaWRfQ2xpZW50c1BhZ2VfQm9va2luZ18yNSIgZD0iTTIyMjYuNTQ1LDE4NDcuODA0TDIyNzEuNzE2LDE4NjkuNTM3QzIzMTYuODg3LDE4OTEuMjY5LDI0MDcuMjI5LDE5MzQuNzM1LDI1MDIuNzU5LDE5NTYuNDY3QzI1OTguMjksMTk3OC4yLDI2OTkuMDEsMTk3OC4yLDI3OTkuNjk2LDE5NzguMkMyOTAwLjM4MSwxOTc4LjIsMzAwMS4wMzMsMTk3OC4yLDMxMDguNTk5LDE5NzguMkMzMjE2LjE2NiwxOTc4LjIsMzMzMC42NDgsMTk3OC4yLDM0MzkuMzYyLDE5NzguMkMzNTQ4LjA3NywxOTc4LjIsMzY1MS4wMjMsMTk3OC4yLDM3MjkuNDE5LDE4NzguNDMyQzM4MDcuODE0LDE3NzguNjY0LDM4NjEuNjU4LDE1NzkuMTI5LDM4ODguNTgsMTQ3OS4zNjFMMzkxNS41MDIsMTM3OS41OTMiPjwvcGF0aD48cGF0aCBtYXJrZXItZW5kPSJ1cmwoI2dlTWVybWFpZE91dHB1dC0xNzQ3MTI5MDMwNDUyX2NsYXNzLWRlcGVuZGVuY3lFbmQpIiBzdHlsZT0iOyIgY2xhc3M9ImVkZ2UtdGhpY2tuZXNzLW5vcm1hbCBlZGdlLXBhdHRlcm4tZGFzaGVkIHJlbGF0aW9uIiBpZD0iaWRfQWRkSG90ZWxQYWdlX0ZpcmViYXNlRGF0YWJhc2VfMjYiIGQ9Ik0yOTg4LjUzMywxMjI5LjNMMzAwNy4zOTEsMTIyOS4zQzMwMjYuMjUsMTIyOS4zLDMwNjMuOTY3LDEyMjkuMywzMTAwLjcyNCwxMjI0LjEwNEMzMTM3LjQ4MSwxMjE4LjkwOSwzMTczLjI3NywxMjA4LjUxNywzMTkxLjE3NiwxMjAzLjMyMUwzMjA5LjA3NCwxMTk4LjEyNiI+PC9wYXRoPjxwYXRoIG1hcmtlci1lbmQ9InVybCgjZ2VNZXJtYWlkT3V0cHV0LTE3NDcxMjkwMzA0NTJfY2xhc3MtZGVwZW5kZW5jeUVuZCkiIHN0eWxlPSI7IiBjbGFzcz0iZWRnZS10aGlja25lc3Mtbm9ybWFsIGVkZ2UtcGF0dGVybi1kYXNoZWQgcmVsYXRpb24iIGlkPSJpZF9FZGl0SG90ZWxQYWdlX0ZpcmViYXNlRGF0YWJhc2VfMjciIGQ9Ik0yOTc5LjM3MywxNDQ3LjNMMjk5OS43NTksMTQ0Ny4zQzMwMjAuMTQ0LDE0NDcuMywzMDYwLjkxNCwxNDQ3LjMsMzExNS42NDUsMTQxNS41MjlDMzE3MC4zNzUsMTM4My43NTgsMzIzOS4wNjcsMTMyMC4yMTYsMzI3My40MTIsMTI4OC40NDVMMzMwNy43NTgsMTI1Ni42NzQiPjwvcGF0aD48cGF0aCBtYXJrZXItZW5kPSJ1cmwoI2dlTWVybWFpZE91dHB1dC0xNzQ3MTI5MDMwNDUyX2NsYXNzLWRlcGVuZGVuY3lFbmQpIiBzdHlsZT0iOyIgY2xhc3M9ImVkZ2UtdGhpY2tuZXNzLW5vcm1hbCBlZGdlLXBhdHRlcm4tZGFzaGVkIHJlbGF0aW9uIiBpZD0iaWRfQ2xpZW50RGV0YWlsc1BhZ2VfRmlyZWJhc2VEYXRhYmFzZV8yOCIgZD0iTTI5ODYuOTgzLDE3MDUuNDc1TDMwMDYuMSwxNzAyLjA2MkMzMDI1LjIxNywxNjk4LjY1LDMwNjMuNDUsMTY5MS44MjUsMzEyNi42MDYsMTYxNy4xOTZDMzE4OS43NjEsMTU0Mi41NjgsMzI3Ny44MzcsMTQwMC4xMzUsMzMyMS44NzYsMTMyOC45MTlMMzM2NS45MTQsMTI1Ny43MDMiPjwvcGF0aD48cGF0aCBtYXJrZXItZW5kPSJ1cmwoI2dlTWVybWFpZE91dHB1dC0xNzQ3MTI5MDMwNDUyX2NsYXNzLWRlcGVuZGVuY3lFbmQpIiBzdHlsZT0iOyIgY2xhc3M9ImVkZ2UtdGhpY2tuZXNzLW5vcm1hbCBlZGdlLXBhdHRlcm4tZGFzaGVkIHJlbGF0aW9uIiBpZD0iaWRfQ2xpZW50RGV0YWlsc1BhZ2VfQ2xpZW50XzI5IiBkPSJNMjk4Ni45ODMsMTcyNC44MjNMMzAwNi4xLDE3MjMuMzg2QzMwMjUuMjE3LDE3MjEuOTQ5LDMwNjMuNDUsMTcxOS4wNzQsMzEzOS44MDgsMTcxNy42MzdDMzIxNi4xNjYsMTcxNi4yLDMzMzAuNjQ4LDE3MTYuMiwzNDM5LjM2MiwxNzE2LjJDMzU0OC4wNzcsMTcxNi4yLDM2NTEuMDIzLDE3MTYuMiwzNzE0LjYzLDE3MTIuNTU5QzM3NzguMjM3LDE3MDguOTE4LDM4MDIuNTA0LDE3MDEuNjM3LDM4MTQuNjM3LDE2OTcuOTk2TDM4MjYuNzcsMTY5NC4zNTUiPjwvcGF0aD48cGF0aCBtYXJrZXItZW5kPSJ1cmwoI2dlTWVybWFpZE91dHB1dC0xNzQ3MTI5MDMwNDUyX2NsYXNzLWRlcGVuZGVuY3lFbmQpIiBzdHlsZT0iOyIgY2xhc3M9ImVkZ2UtdGhpY2tuZXNzLW5vcm1hbCBlZGdlLXBhdHRlcm4tZGFzaGVkIHJlbGF0aW9uIiBpZD0iaWRfQ2xpZW50RGV0YWlsc1BhZ2VfQm9va2luZ18zMCIgZD0iTTI5ODYuOTgzLDE4MTQuNDMzTDMwMDYuMSwxODIyLjE0NEMzMDI1LjIxNywxODI5Ljg1NSwzMDYzLjQ1LDE4NDUuMjc4LDMxMzkuODA4LDE4NTIuOTg5QzMyMTYuMTY2LDE4NjAuNywzMzMwLjY0OCwxODYwLjcsMzQzOS4zNjIsMTg2MC43QzM1NDguMDc3LDE4NjAuNywzNjUxLjAyMywxODYwLjcsMzcyOC4xNjgsMTc4MC41MDJDMzgwNS4zMTMsMTcwMC4zMDUsMzg1Ni42NTYsMTUzOS45MSwzODgyLjMyOCwxNDU5LjcxMkwzOTA3Ljk5OSwxMzc5LjUxNCI+PC9wYXRoPjxwYXRoIG1hcmtlci1lbmQ9InVybCgjZ2VNZXJtYWlkT3V0cHV0LTE3NDcxMjkwMzA0NTJfY2xhc3MtZGVwZW5kZW5jeUVuZCkiIHN0eWxlPSI7IiBjbGFzcz0iZWRnZS10aGlja25lc3Mtbm9ybWFsIGVkZ2UtcGF0dGVybi1kYXNoZWQgcmVsYXRpb24iIGlkPSJpZF9GaXJlYmFzZUF1dGhfVXNlcl8zMSIgZD0iTTIzODQuMjE0LDMyOC40TDI0MDMuMTA3LDMyOC40QzI0MjEuOTk5LDMyOC40LDI0NTkuNzg1LDMyOC40LDI1MTIuMDMxLDMyOC40QzI1NjQuMjc4LDMyOC40LDI2MzAuOTg1LDMyOC40LDI2NjQuMzM4LDMyOC40TDI2OTcuNjkyLDMyOC40Ij48L3BhdGg+PHBhdGggbWFya2VyLWVuZD0idXJsKCNnZU1lcm1haWRPdXRwdXQtMTc0NzEyOTAzMDQ1Ml9jbGFzcy1kZXBlbmRlbmN5RW5kKSIgc3R5bGU9IjsiIGNsYXNzPSJlZGdlLXRoaWNrbmVzcy1ub3JtYWwgZWRnZS1wYXR0ZXJuLWRhc2hlZCByZWxhdGlvbiIgaWQ9ImlkX0ZpcmViYXNlRGF0YWJhc2VfSG90ZWxfMzIiIGQ9Ik0zNTU4Ljc2MiwxMDA2LjZMMzU5MS4yOTcsOTcxLjM4M0MzNjIzLjgzMiw5MzYuMTY3LDM2ODguOTAxLDg2NS43MzMsMzc1MC4zNDIsMTAwNi44M0MzODExLjc4MywxMTQ3LjkyNiwzODY5LjU5NiwxNTAwLjU1MywzODk4LjUwMywxNjc2Ljg2NkwzOTI3LjQwOSwxODUzLjE3OSI+PC9wYXRoPjxwYXRoIG1hcmtlci1lbmQ9InVybCgjZ2VNZXJtYWlkT3V0cHV0LTE3NDcxMjkwMzA0NTJfY2xhc3MtZGVwZW5kZW5jeUVuZCkiIHN0eWxlPSI7IiBjbGFzcz0iZWRnZS10aGlja25lc3Mtbm9ybWFsIGVkZ2UtcGF0dGVybi1kYXNoZWQgcmVsYXRpb24iIGlkPSJpZF9GaXJlYmFzZURhdGFiYXNlX0Jvb2tpbmdfMzMiIGQ9Ik0zNjc1LjQyMywxMDgxLjA1N0wzNjg4LjUxNSwxMDc4LjI5N0MzNzAxLjYwNiwxMDc1LjUzOCwzNzI3Ljc4OCwxMDcwLjAxOSwzNzU0LjEzNCwxMDc4LjEwOUMzNzgwLjQ4LDEwODYuMTk4LDM4MDYuOTksMTEwNy44OTcsMzgyMC4yNDQsMTExOC43NDZMMzgzMy40OTksMTEyOS41OTUiPjwvcGF0aD48cGF0aCBtYXJrZXItZW5kPSJ1cmwoI2dlTWVybWFpZE91dHB1dC0xNzQ3MTI5MDMwNDUyX2NsYXNzLWRlcGVuZGVuY3lFbmQpIiBzdHlsZT0iOyIgY2xhc3M9ImVkZ2UtdGhpY2tuZXNzLW5vcm1hbCBlZGdlLXBhdHRlcm4tZGFzaGVkIHJlbGF0aW9uIiBpZD0iaWRfRmlyZWJhc2VEYXRhYmFzZV9DbGllbnRfMzQiIGQ9Ik0zNTM1LjksMTI1Mi42TDM1NzIuMjQ1LDEzMDEuODVDMzYwOC41OSwxMzUxLjEsMzY4MS4yOCwxNDQ5LjYsMzcyOS44MzQsMTUwNS4zNDlDMzc3OC4zODcsMTU2MS4wOTcsMzgwMi44MDQsMTU3NC4wOTQsMzgxNS4wMTIsMTU4MC41OTNMMzgyNy4yMjEsMTU4Ny4wOTEiPjwvcGF0aD48cGF0aCBtYXJrZXItZW5kPSJ1cmwoI2dlTWVybWFpZE91dHB1dC0xNzQ3MTI5MDMwNDUyX2NsYXNzLWRlcGVuZGVuY3lFbmQpIiBzdHlsZT0iOyIgY2xhc3M9ImVkZ2UtdGhpY2tuZXNzLW5vcm1hbCBlZGdlLXBhdHRlcm4tZGFzaGVkIHJlbGF0aW9uIiBpZD0iaWRfSG9tZVBhZ2VfSG90ZWxfMzUiIGQ9Ik03ODEuNjM2LDEwMjEuOUw4MTguNjA2LDEyMTUuNzE3Qzg1NS41NzYsMTQwOS41MzMsOTI5LjUxNiwxNzk3LjE2NywxMDE4LjY3OCwxOTkwLjk4M0MxMTA3Ljg0MSwyMTg0LjgsMTIxMi4yMjUsMjE4NC44LDEzMTAuMzEyLDIxODQuOEMxNDA4LjM5OCwyMTg0LjgsMTUwMC4xODcsMjE4NC44LDE2MTcuOTk3LDIxODQuOEMxNzM1LjgwNywyMTg0LjgsMTg3OS42MzksMjE4NC44LDIwMzAuNTcxLDIxODQuOEMyMTgxLjUwNCwyMTg0LjgsMjMzOS41MzcsMjE4NC44LDI0NjguOTEzLDIxODQuOEMyNTk4LjI5LDIxODQuOCwyNjk5LjAxLDIxODQuOCwyNzk5LjY5NiwyMTg0LjhDMjkwMC4zODEsMjE4NC44LDMwMDEuMDMzLDIxODQuOCwzMTA4LjU5OSwyMTg0LjhDMzIxNi4xNjYsMjE4NC44LDMzMzAuNjQ4LDIxODQuOCwzNDM5LjM2MiwyMTg0LjhDMzU0OC4wNzcsMjE4NC44LDM2NTEuMDIzLDIxODQuOCwzNzE4LjYzOCwyMTcyLjE5NkMzNzg2LjI1MywyMTU5LjU5MSwzODE4LjUzNiwyMTM0LjM4MiwzODM0LjY3OCwyMTIxLjc3OEwzODUwLjgxOSwyMTA5LjE3MyI+PC9wYXRoPjxwYXRoIG1hcmtlci1lbmQ9InVybCgjZ2VNZXJtYWlkT3V0cHV0LTE3NDcxMjkwMzA0NTJfY2xhc3MtZGVwZW5kZW5jeUVuZCkiIHN0eWxlPSI7IiBjbGFzcz0iZWRnZS10aGlja25lc3Mtbm9ybWFsIGVkZ2UtcGF0dGVybi1kYXNoZWQgcmVsYXRpb24iIGlkPSJpZF9Cb29raW5nc1BhZ2VfQm9va2luZ18zNiIgZD0iTTM1MDcuMDk4LDc1Mi45TDM1NDguMjQ0LDc1Mi45QzM1ODkuMzg5LDc1Mi45LDM2NzEuNjgsNzUyLjksMzczNS45MzEsODA3LjQ2MkMzODAwLjE4Miw4NjIuMDI1LDM4NDYuMzkzLDk3MS4xNSwzODY5LjQ5OCwxMDI1LjcxMkwzODkyLjYwNCwxMDgwLjI3NSI+PC9wYXRoPjwvZz48ZyBjbGFzcz0iZWRnZUxhYmVscyI+PGcgdHJhbnNmb3JtPSJ0cmFuc2xhdGUoMTAwMy40NTYyMzAxNjM1NzQyLCAxOS4xOTk5OTk4MDkyNjUxMzcpIiBjbGFzcz0iZWRnZUxhYmVsIj48ZyB0cmFuc2Zvcm09InRyYW5zbGF0ZSgtMTcuMjEyNDk5NjE4NTMwMjczLCAtMTEuMTk5OTk5ODA5MjY1MTM3KSIgY2xhc3M9ImxhYmVsIj48Zz48cmVjdCBoZWlnaHQ9IjIyLjM5OTk5OTYxODUzMDI3MyIgd2lkdGg9IjM0LjQyNTAwMTE0NDQwOTE4IiB5PSItMS4xOTk5OTk5ODgwNzkwNzEiIHg9Ii0yIiBzdHlsZT0iO2Rpc3BsYXk6IGlubGluZS1ibG9jayIgY2xhc3M9ImJhY2tncm91bmQiPjwvcmVjdD48dGV4dCBzdHlsZT0iO2Rpc3BsYXk6IGlubGluZS1ibG9jayIgeT0iLTEwLjEiPjx0c3BhbiBkeT0iMS4xZW0iIHk9Ii0wLjFlbSIgeD0iMCIgY2xhc3M9InRleHQtb3V0ZXItdHNwYW4iPjx0c3BhbiBmb250LXdlaWdodD0ibm9ybWFsIiBjbGFzcz0idGV4dC1pbm5lci10c3BhbiIgZm9udC1zdHlsZT0ibm9ybWFsIj51c2VzPC90c3Bhbj48L3RzcGFuPjwvdGV4dD48L2c+PC9nPjwvZz48ZyB0cmFuc2Zvcm09InRyYW5zbGF0ZSg0OTEuNzQ5OTg0NzQxMjEwOTQsIDg0LjY5OTk5OTgwOTI2NTE0KSIgY2xhc3M9ImVkZ2VMYWJlbCI+PGcgdHJhbnNmb3JtPSJ0cmFuc2xhdGUoLTQ1Ljc1MDc4MjAxMjkzOTQ1LCAtMTEuMTk5OTk5ODA5MjY1MTM3KSIgY2xhc3M9ImxhYmVsIj48Zz48cmVjdCBoZWlnaHQ9IjIyLjM5OTk5OTYxODUzMDI3MyIgd2lkdGg9IjkxLjUwMTU2NDAyNTg3ODkiIHk9Ii0xLjE5OTk5OTk4ODA3OTA3MSIgeD0iLTIiIHN0eWxlPSI7ZGlzcGxheTogaW5saW5lLWJsb2NrIiBjbGFzcz0iYmFja2dyb3VuZCI+PC9yZWN0Pjx0ZXh0IHN0eWxlPSI7ZGlzcGxheTogaW5saW5lLWJsb2NrIiB5PSItMTAuMSI+PHRzcGFuIGR5PSIxLjFlbSIgeT0iLTAuMWVtIiB4PSIwIiBjbGFzcz0idGV4dC1vdXRlci10c3BhbiI+PHRzcGFuIGZvbnQtd2VpZ2h0PSJub3JtYWwiIGNsYXNzPSJ0ZXh0LWlubmVyLXRzcGFuIiBmb250LXN0eWxlPSJub3JtYWwiPm5hdmlnYXRlczwvdHNwYW4+PHRzcGFuIGZvbnQtd2VpZ2h0PSJub3JtYWwiIGNsYXNzPSJ0ZXh0LWlubmVyLXRzcGFuIiBmb250LXN0eWxlPSJub3JtYWwiPiB0bzwvdHNwYW4+PC90c3Bhbj48L3RleHQ+PC9nPjwvZz48L2c+PGcgdHJhbnNmb3JtPSJ0cmFuc2xhdGUoNzQ5LjU5MDYwNjY4OTQ1MzEsIDE1MC4xOTk5OTk4MDkyNjUxNCkiIGNsYXNzPSJlZGdlTGFiZWwiPjxnIHRyYW5zZm9ybT0idHJhbnNsYXRlKC00NS43NTA3ODIwMTI5Mzk0NSwgLTExLjE5OTk5OTgwOTI2NTEzNykiIGNsYXNzPSJsYWJlbCI+PGc+PHJlY3QgaGVpZ2h0PSIyMi4zOTk5OTk2MTg1MzAyNzMiIHdpZHRoPSI5MS41MDE1NjQwMjU4Nzg5IiB5PSItMS4xOTk5OTk5ODgwNzkwNzEiIHg9Ii0yIiBzdHlsZT0iO2Rpc3BsYXk6IGlubGluZS1ibG9jayIgY2xhc3M9ImJhY2tncm91bmQiPjwvcmVjdD48dGV4dCBzdHlsZT0iO2Rpc3BsYXk6IGlubGluZS1ibG9jayIgeT0iLTEwLjEiPjx0c3BhbiBkeT0iMS4xZW0iIHk9Ii0wLjFlbSIgeD0iMCIgY2xhc3M9InRleHQtb3V0ZXItdHNwYW4iPjx0c3BhbiBmb250LXdlaWdodD0ibm9ybWFsIiBjbGFzcz0idGV4dC1pbm5lci10c3BhbiIgZm9udC1zdHlsZT0ibm9ybWFsIj5uYXZpZ2F0ZXM8L3RzcGFuPjx0c3BhbiBmb250LXdlaWdodD0ibm9ybWFsIiBjbGFzcz0idGV4dC1pbm5lci10c3BhbiIgZm9udC1zdHlsZT0ibm9ybWFsIj4gdG88L3RzcGFuPjwvdHNwYW4+PC90ZXh0PjwvZz48L2c+PC9nPjxnIHRyYW5zZm9ybT0idHJhbnNsYXRlKDE1OTEuOTc1NzQyMzQwMDg4LCAxMDAuMjk5OTk5NzEzODk3NykiIGNsYXNzPSJlZGdlTGFiZWwiPjxnIHRyYW5zZm9ybT0idHJhbnNsYXRlKC0xNy4yMTI0OTk2MTg1MzAyNzMsIC0xMS4xOTk5OTk4MDkyNjUxMzcpIiBjbGFzcz0ibGFiZWwiPjxnPjxyZWN0IGhlaWdodD0iMjIuMzk5OTk5NjE4NTMwMjczIiB3aWR0aD0iMzQuNDI1MDAxMTQ0NDA5MTgiIHk9Ii0xLjE5OTk5OTk4ODA3OTA3MSIgeD0iLTIiIHN0eWxlPSI7ZGlzcGxheTogaW5saW5lLWJsb2NrIiBjbGFzcz0iYmFja2dyb3VuZCI+PC9yZWN0Pjx0ZXh0IHN0eWxlPSI7ZGlzcGxheTogaW5saW5lLWJsb2NrIiB5PSItMTAuMSI+PHRzcGFuIGR5PSIxLjFlbSIgeT0iLTAuMWVtIiB4PSIwIiBjbGFzcz0idGV4dC1vdXRlci10c3BhbiI+PHRzcGFuIGZvbnQtd2VpZ2h0PSJub3JtYWwiIGNsYXNzPSJ0ZXh0LWlubmVyLXRzcGFuIiBmb250LXN0eWxlPSJub3JtYWwiPnVzZXM8L3RzcGFuPjwvdHNwYW4+PC90ZXh0PjwvZz48L2c+PC9nPjxnIHRyYW5zZm9ybT0idHJhbnNsYXRlKDI0OTcuNTcwMjU5MDk0MjM4MywgMTkxLjc5OTk5OTcxMzg5NzcpIiBjbGFzcz0iZWRnZUxhYmVsIj48ZyB0cmFuc2Zvcm09InRyYW5zbGF0ZSgtNTIuMTgyODExNzM3MDYwNTUsIC0xMS4xOTk5OTk4MDkyNjUxMzcpIiBjbGFzcz0ibGFiZWwiPjxnPjxyZWN0IGhlaWdodD0iMjIuMzk5OTk5NjE4NTMwMjczIiB3aWR0aD0iMTA0LjM2NTYzMTEwMzUxNTYyIiB5PSItMS4xOTk5OTk5ODgwNzkwNzEiIHg9Ii0yIiBzdHlsZT0iO2Rpc3BsYXk6IGlubGluZS1ibG9jayIgY2xhc3M9ImJhY2tncm91bmQiPjwvcmVjdD48dGV4dCBzdHlsZT0iO2Rpc3BsYXk6IGlubGluZS1ibG9jayIgeT0iLTEwLjEiPjx0c3BhbiBkeT0iMS4xZW0iIHk9Ii0wLjFlbSIgeD0iMCIgY2xhc3M9InRleHQtb3V0ZXItdHNwYW4iPjx0c3BhbiBmb250LXdlaWdodD0ibm9ybWFsIiBjbGFzcz0idGV4dC1pbm5lci10c3BhbiIgZm9udC1zdHlsZT0ibm9ybWFsIj5jcmVhdGVzPC90c3Bhbj48dHNwYW4gZm9udC13ZWlnaHQ9Im5vcm1hbCIgY2xhc3M9InRleHQtaW5uZXItdHNwYW4iIGZvbnQtc3R5bGU9Im5vcm1hbCI+IENsaWVudDwvdHNwYW4+PC90c3Bhbj48L3RleHQ+PC9nPjwvZz48L2c+PGcgdHJhbnNmb3JtPSJ0cmFuc2xhdGUoMTMxNi42MDkzNDQ0ODI0MjE5LCAzMjguMzk5OTk5NjE4NTMwMykiIGNsYXNzPSJlZGdlTGFiZWwiPjxnIHRyYW5zZm9ybT0idHJhbnNsYXRlKC0xNy4yMTI0OTk2MTg1MzAyNzMsIC0xMS4xOTk5OTk4MDkyNjUxMzcpIiBjbGFzcz0ibGFiZWwiPjxnPjxyZWN0IGhlaWdodD0iMjIuMzk5OTk5NjE4NTMwMjczIiB3aWR0aD0iMzQuNDI1MDAxMTQ0NDA5MTgiIHk9Ii0xLjE5OTk5OTk4ODA3OTA3MSIgeD0iLTIiIHN0eWxlPSI7ZGlzcGxheTogaW5saW5lLWJsb2NrIiBjbGFzcz0iYmFja2dyb3VuZCI+PC9yZWN0Pjx0ZXh0IHN0eWxlPSI7ZGlzcGxheTogaW5saW5lLWJsb2NrIiB5PSItMTAuMSI+PHRzcGFuIGR5PSIxLjFlbSIgeT0iLTAuMWVtIiB4PSIwIiBjbGFzcz0idGV4dC1vdXRlci10c3BhbiI+PHRzcGFuIGZvbnQtd2VpZ2h0PSJub3JtYWwiIGNsYXNzPSJ0ZXh0LWlubmVyLXRzcGFuIiBmb250LXN0eWxlPSJub3JtYWwiPnVzZXM8L3RzcGFuPjwvdHNwYW4+PC90ZXh0PjwvZz48L2c+PC9nPjxnIHRyYW5zZm9ybT0idHJhbnNsYXRlKDIwMjMuNDcwMjY4MjQ5NTExNywgNDcwLjU5OTk5OTQyNzc5NTQpIiBjbGFzcz0iZWRnZUxhYmVsIj48ZyB0cmFuc2Zvcm09InRyYW5zbGF0ZSgtNjkuOTIwMzE4NjAzNTE1NjIsIC0xMS4xOTk5OTk4MDkyNjUxMzcpIiBjbGFzcz0ibGFiZWwiPjxnPjxyZWN0IGhlaWdodD0iMjIuMzk5OTk5NjE4NTMwMjczIiB3aWR0aD0iMTM5Ljg0MDYzNzIwNzAzMTI1IiB5PSItMS4xOTk5OTk5ODgwNzkwNzEiIHg9Ii0yIiBzdHlsZT0iO2Rpc3BsYXk6IGlubGluZS1ibG9jayIgY2xhc3M9ImJhY2tncm91bmQiPjwvcmVjdD48dGV4dCBzdHlsZT0iO2Rpc3BsYXk6IGlubGluZS1ibG9jayIgeT0iLTEwLjEiPjx0c3BhbiBkeT0iMS4xZW0iIHk9Ii0wLjFlbSIgeD0iMCIgY2xhc3M9InRleHQtb3V0ZXItdHNwYW4iPjx0c3BhbiBmb250LXdlaWdodD0ibm9ybWFsIiBjbGFzcz0idGV4dC1pbm5lci10c3BhbiIgZm9udC1zdHlsZT0ibm9ybWFsIj5yZWFkczwvdHNwYW4+PHRzcGFuIGZvbnQtd2VpZ2h0PSJub3JtYWwiIGNsYXNzPSJ0ZXh0LWlubmVyLXRzcGFuIiBmb250LXN0eWxlPSJub3JtYWwiPiBIb3RlbCw8L3RzcGFuPjx0c3BhbiBmb250LXdlaWdodD0ibm9ybWFsIiBjbGFzcz0idGV4dC1pbm5lci10c3BhbiIgZm9udC1zdHlsZT0ibm9ybWFsIj4gQ2xpZW50PC90c3Bhbj48L3RzcGFuPjwvdGV4dD48L2c+PC9nPjwvZz48ZyB0cmFuc2Zvcm09InRyYW5zbGF0ZSgxMDAzLjQ1NjIzMDE2MzU3NDIsIDYzMC42OTk5OTkzMzI0MjgpIiBjbGFzcz0iZWRnZUxhYmVsIj48ZyB0cmFuc2Zvcm09InRyYW5zbGF0ZSgtNDUuNzUwNzgyMDEyOTM5NDUsIC0xMS4xOTk5OTk4MDkyNjUxMzcpIiBjbGFzcz0ibGFiZWwiPjxnPjxyZWN0IGhlaWdodD0iMjIuMzk5OTk5NjE4NTMwMjczIiB3aWR0aD0iOTEuNTAxNTY0MDI1ODc4OSIgeT0iLTEuMTk5OTk5OTg4MDc5MDcxIiB4PSItMiIgc3R5bGU9IjtkaXNwbGF5OiBpbmxpbmUtYmxvY2siIGNsYXNzPSJiYWNrZ3JvdW5kIj48L3JlY3Q+PHRleHQgc3R5bGU9IjtkaXNwbGF5OiBpbmxpbmUtYmxvY2siIHk9Ii0xMC4xIj48dHNwYW4gZHk9IjEuMWVtIiB5PSItMC4xZW0iIHg9IjAiIGNsYXNzPSJ0ZXh0LW91dGVyLXRzcGFuIj48dHNwYW4gZm9udC13ZWlnaHQ9Im5vcm1hbCIgY2xhc3M9InRleHQtaW5uZXItdHNwYW4iIGZvbnQtc3R5bGU9Im5vcm1hbCI+bmF2aWdhdGVzPC90c3Bhbj48dHNwYW4gZm9udC13ZWlnaHQ9Im5vcm1hbCIgY2xhc3M9InRleHQtaW5uZXItdHNwYW4iIGZvbnQtc3R5bGU9Im5vcm1hbCI+IHRvPC90c3Bhbj48L3RzcGFuPjwvdGV4dD48L2c+PC9nPjwvZz48ZyB0cmFuc2Zvcm09InRyYW5zbGF0ZSgxMDAzLjQ1NjIzMDE2MzU3NDIsIDY3My4wOTk5OTg5NTA5NTgzKSIgY2xhc3M9ImVkZ2VMYWJlbCI+PGcgdHJhbnNmb3JtPSJ0cmFuc2xhdGUoLTgzLjUzNzQ5ODQ3NDEyMTEsIC0xMS4xOTk5OTk4MDkyNjUxMzcpIiBjbGFzcz0ibGFiZWwiPjxnPjxyZWN0IGhlaWdodD0iMjIuMzk5OTk5NjE4NTMwMjczIiB3aWR0aD0iMTY3LjA3NDk5Njk0ODI0MjIiIHk9Ii0xLjE5OTk5OTk4ODA3OTA3MSIgeD0iLTIiIHN0eWxlPSI7ZGlzcGxheTogaW5saW5lLWJsb2NrIiBjbGFzcz0iYmFja2dyb3VuZCI+PC9yZWN0Pjx0ZXh0IHN0eWxlPSI7ZGlzcGxheTogaW5saW5lLWJsb2NrIiB5PSItMTAuMSI+PHRzcGFuIGR5PSIxLjFlbSIgeT0iLTAuMWVtIiB4PSIwIiBjbGFzcz0idGV4dC1vdXRlci10c3BhbiI+PHRzcGFuIGZvbnQtd2VpZ2h0PSJub3JtYWwiIGNsYXNzPSJ0ZXh0LWlubmVyLXRzcGFuIiBmb250LXN0eWxlPSJub3JtYWwiPm5hdmlnYXRlczwvdHNwYW4+PHRzcGFuIGZvbnQtd2VpZ2h0PSJub3JtYWwiIGNsYXNzPSJ0ZXh0LWlubmVyLXRzcGFuIiBmb250LXN0eWxlPSJub3JtYWwiPiB0bzwvdHNwYW4+PHRzcGFuIGZvbnQtd2VpZ2h0PSJub3JtYWwiIGNsYXNzPSJ0ZXh0LWlubmVyLXRzcGFuIiBmb250LXN0eWxlPSJub3JtYWwiPiAoaWY8L3RzcGFuPjx0c3BhbiBmb250LXdlaWdodD0ibm9ybWFsIiBjbGFzcz0idGV4dC1pbm5lci10c3BhbiIgZm9udC1zdHlsZT0ibm9ybWFsIj4gYWRtaW4pPC90c3Bhbj48L3RzcGFuPjwvdGV4dD48L2c+PC9nPjwvZz48ZyB0cmFuc2Zvcm09InRyYW5zbGF0ZSgxMDAzLjQ1NjIzMDE2MzU3NDIsIDcxNS40OTk5OTg1Njk0ODg1KSIgY2xhc3M9ImVkZ2VMYWJlbCI+PGcgdHJhbnNmb3JtPSJ0cmFuc2xhdGUoLTQ1Ljc1MDc4MjAxMjkzOTQ1LCAtMTEuMTk5OTk5ODA5MjY1MTM3KSIgY2xhc3M9ImxhYmVsIj48Zz48cmVjdCBoZWlnaHQ9IjIyLjM5OTk5OTYxODUzMDI3MyIgd2lkdGg9IjkxLjUwMTU2NDAyNTg3ODkiIHk9Ii0xLjE5OTk5OTk4ODA3OTA3MSIgeD0iLTIiIHN0eWxlPSI7ZGlzcGxheTogaW5saW5lLWJsb2NrIiBjbGFzcz0iYmFja2dyb3VuZCI+PC9yZWN0Pjx0ZXh0IHN0eWxlPSI7ZGlzcGxheTogaW5saW5lLWJsb2NrIiB5PSItMTAuMSI+PHRzcGFuIGR5PSIxLjFlbSIgeT0iLTAuMWVtIiB4PSIwIiBjbGFzcz0idGV4dC1vdXRlci10c3BhbiI+PHRzcGFuIGZvbnQtd2VpZ2h0PSJub3JtYWwiIGNsYXNzPSJ0ZXh0LWlubmVyLXRzcGFuIiBmb250LXN0eWxlPSJub3JtYWwiPm5hdmlnYXRlczwvdHNwYW4+PHRzcGFuIGZvbnQtd2VpZ2h0PSJub3JtYWwiIGNsYXNzPSJ0ZXh0LWlubmVyLXRzcGFuIiBmb250LXN0eWxlPSJub3JtYWwiPiB0bzwvdHNwYW4+PC90c3Bhbj48L3RleHQ+PC9nPjwvZz48L2c+PGcgdHJhbnNmb3JtPSJ0cmFuc2xhdGUoMjAyMy40NzAyNjgyNDk1MTE3LCA5NTQuNzk5OTk4NzYwMjIzNCkiIGNsYXNzPSJlZGdlTGFiZWwiPjxnIHRyYW5zZm9ybT0idHJhbnNsYXRlKC00NS43NTA3ODIwMTI5Mzk0NSwgLTExLjE5OTk5OTgwOTI2NTEzNykiIGNsYXNzPSJsYWJlbCI+PGc+PHJlY3QgaGVpZ2h0PSIyMi4zOTk5OTk2MTg1MzAyNzMiIHdpZHRoPSI5MS41MDE1NjQwMjU4Nzg5IiB5PSItMS4xOTk5OTk5ODgwNzkwNzEiIHg9Ii0yIiBzdHlsZT0iO2Rpc3BsYXk6IGlubGluZS1ibG9jayIgY2xhc3M9ImJhY2tncm91bmQiPjwvcmVjdD48dGV4dCBzdHlsZT0iO2Rpc3BsYXk6IGlubGluZS1ibG9jayIgeT0iLTEwLjEiPjx0c3BhbiBkeT0iMS4xZW0iIHk9Ii0wLjFlbSIgeD0iMCIgY2xhc3M9InRleHQtb3V0ZXItdHNwYW4iPjx0c3BhbiBmb250LXdlaWdodD0ibm9ybWFsIiBjbGFzcz0idGV4dC1pbm5lci10c3BhbiIgZm9udC1zdHlsZT0ibm9ybWFsIj5uYXZpZ2F0ZXM8L3RzcGFuPjx0c3BhbiBmb250LXdlaWdodD0ibm9ybWFsIiBjbGFzcz0idGV4dC1pbm5lci10c3BhbiIgZm9udC1zdHlsZT0ibm9ybWFsIj4gdG88L3RzcGFuPjwvdHNwYW4+PC90ZXh0PjwvZz48L2c+PC9nPjxnIHRyYW5zZm9ybT0idHJhbnNsYXRlKDQ5MS43NDk5ODQ3NDEyMTA5NCwgMjI3OC4zOTk5OTc3MTExODE2KSIgY2xhc3M9ImVkZ2VMYWJlbCI+PGcgdHJhbnNmb3JtPSJ0cmFuc2xhdGUoLTg3LjUxMjQ5Njk0ODI0MjE5LCAtMTEuMTk5OTk5ODA5MjY1MTM3KSIgY2xhc3M9ImxhYmVsIj48Zz48cmVjdCBoZWlnaHQ9IjIyLjM5OTk5OTYxODUzMDI3MyIgd2lkdGg9IjE3NS4wMjQ5OTM4OTY0ODQzOCIgeT0iLTEuMTk5OTk5OTg4MDc5MDcxIiB4PSItMiIgc3R5bGU9IjtkaXNwbGF5OiBpbmxpbmUtYmxvY2siIGNsYXNzPSJiYWNrZ3JvdW5kIj48L3JlY3Q+PHRleHQgc3R5bGU9IjtkaXNwbGF5OiBpbmxpbmUtYmxvY2siIHk9Ii0xMC4xIj48dHNwYW4gZHk9IjEuMWVtIiB5PSItMC4xZW0iIHg9IjAiIGNsYXNzPSJ0ZXh0LW91dGVyLXRzcGFuIj48dHNwYW4gZm9udC13ZWlnaHQ9Im5vcm1hbCIgY2xhc3M9InRleHQtaW5uZXItdHNwYW4iIGZvbnQtc3R5bGU9Im5vcm1hbCI+bmF2aWdhdGVzPC90c3Bhbj48dHNwYW4gZm9udC13ZWlnaHQ9Im5vcm1hbCIgY2xhc3M9InRleHQtaW5uZXItdHNwYW4iIGZvbnQtc3R5bGU9Im5vcm1hbCI+IHRvPC90c3Bhbj48dHNwYW4gZm9udC13ZWlnaHQ9Im5vcm1hbCIgY2xhc3M9InRleHQtaW5uZXItdHNwYW4iIGZvbnQtc3R5bGU9Im5vcm1hbCI+IChvbjwvdHNwYW4+PHRzcGFuIGZvbnQtd2VpZ2h0PSJub3JtYWwiIGNsYXNzPSJ0ZXh0LWlubmVyLXRzcGFuIiBmb250LXN0eWxlPSJub3JtYWwiPiBsb2dvdXQpPC90c3Bhbj48L3RzcGFuPjwvdGV4dD48L2c+PC9nPjwvZz48ZyB0cmFuc2Zvcm09InRyYW5zbGF0ZSgxNTkxLjk3NTc0MjM0MDA4OCwgNjUwLjE5OTk5ODg1NTU5MDgpIiBjbGFzcz0iZWRnZUxhYmVsIj48ZyB0cmFuc2Zvcm09InRyYW5zbGF0ZSgtMTcuMjEyNDk5NjE4NTMwMjczLCAtMTEuMTk5OTk5ODA5MjY1MTM3KSIgY2xhc3M9ImxhYmVsIj48Zz48cmVjdCBoZWlnaHQ9IjIyLjM5OTk5OTYxODUzMDI3MyIgd2lkdGg9IjM0LjQyNTAwMTE0NDQwOTE4IiB5PSItMS4xOTk5OTk5ODgwNzkwNzEiIHg9Ii0yIiBzdHlsZT0iO2Rpc3BsYXk6IGlubGluZS1ibG9jayIgY2xhc3M9ImJhY2tncm91bmQiPjwvcmVjdD48dGV4dCBzdHlsZT0iO2Rpc3BsYXk6IGlubGluZS1ibG9jayIgeT0iLTEwLjEiPjx0c3BhbiBkeT0iMS4xZW0iIHk9Ii0wLjFlbSIgeD0iMCIgY2xhc3M9InRleHQtb3V0ZXItdHNwYW4iPjx0c3BhbiBmb250LXdlaWdodD0ibm9ybWFsIiBjbGFzcz0idGV4dC1pbm5lci10c3BhbiIgZm9udC1zdHlsZT0ibm9ybWFsIj51c2VzPC90c3Bhbj48L3RzcGFuPjwvdGV4dD48L2c+PC9nPjwvZz48ZyB0cmFuc2Zvcm09InRyYW5zbGF0ZSgyNDk3LjU3MDI1OTA5NDIzODMsIDY4MS4zOTk5OTg2NjQ4NTYpIiBjbGFzcz0iZWRnZUxhYmVsIj48ZyB0cmFuc2Zvcm09InRyYW5zbGF0ZSgtNDUuMTQ1MzEzMjYyOTM5NDUsIC0xMS4xOTk5OTk4MDkyNjUxMzcpIiBjbGFzcz0ibGFiZWwiPjxnPjxyZWN0IGhlaWdodD0iMjIuMzk5OTk5NjE4NTMwMjczIiB3aWR0aD0iOTAuMjkwNjI2NTI1ODc4OSIgeT0iLTEuMTk5OTk5OTg4MDc5MDcxIiB4PSItMiIgc3R5bGU9IjtkaXNwbGF5OiBpbmxpbmUtYmxvY2siIGNsYXNzPSJiYWNrZ3JvdW5kIj48L3JlY3Q+PHRleHQgc3R5bGU9IjtkaXNwbGF5OiBpbmxpbmUtYmxvY2siIHk9Ii0xMC4xIj48dHNwYW4gZHk9IjEuMWVtIiB5PSItMC4xZW0iIHg9IjAiIGNsYXNzPSJ0ZXh0LW91dGVyLXRzcGFuIj48dHNwYW4gZm9udC13ZWlnaHQ9Im5vcm1hbCIgY2xhc3M9InRleHQtaW5uZXItdHNwYW4iIGZvbnQtc3R5bGU9Im5vcm1hbCI+cmVhZHM8L3RzcGFuPjx0c3BhbiBmb250LXdlaWdodD0ibm9ybWFsIiBjbGFzcz0idGV4dC1pbm5lci10c3BhbiIgZm9udC1zdHlsZT0ibm9ybWFsIj4gQ2xpZW50PC90c3Bhbj48L3RzcGFuPjwvdGV4dD48L2c+PC9nPjwvZz48ZyB0cmFuc2Zvcm09InRyYW5zbGF0ZSgxNTkxLjk3NTc0MjM0MDA4OCwgODMzLjE5OTk5ODg1NTU5MDgpIiBjbGFzcz0iZWRnZUxhYmVsIj48ZyB0cmFuc2Zvcm09InRyYW5zbGF0ZSgtNDUuNzUwNzgyMDEyOTM5NDUsIC0xMS4xOTk5OTk4MDkyNjUxMzcpIiBjbGFzcz0ibGFiZWwiPjxnPjxyZWN0IGhlaWdodD0iMjIuMzk5OTk5NjE4NTMwMjczIiB3aWR0aD0iOTEuNTAxNTY0MDI1ODc4OSIgeT0iLTEuMTk5OTk5OTg4MDc5MDcxIiB4PSItMiIgc3R5bGU9IjtkaXNwbGF5OiBpbmxpbmUtYmxvY2siIGNsYXNzPSJiYWNrZ3JvdW5kIj48L3JlY3Q+PHRleHQgc3R5bGU9IjtkaXNwbGF5OiBpbmxpbmUtYmxvY2siIHk9Ii0xMC4xIj48dHNwYW4gZHk9IjEuMWVtIiB5PSItMC4xZW0iIHg9IjAiIGNsYXNzPSJ0ZXh0LW91dGVyLXRzcGFuIj48dHNwYW4gZm9udC13ZWlnaHQ9Im5vcm1hbCIgY2xhc3M9InRleHQtaW5uZXItdHNwYW4iIGZvbnQtc3R5bGU9Im5vcm1hbCI+bmF2aWdhdGVzPC90c3Bhbj48dHNwYW4gZm9udC13ZWlnaHQ9Im5vcm1hbCIgY2xhc3M9InRleHQtaW5uZXItdHNwYW4iIGZvbnQtc3R5bGU9Im5vcm1hbCI+IHRvPC90c3Bhbj48L3RzcGFuPjwvdGV4dD48L2c+PC9nPjwvZz48ZyB0cmFuc2Zvcm09InRyYW5zbGF0ZSg3NDkuNTkwNjA2Njg5NDUzMSwgMjIwNC43OTk5OTgyODMzODYyKSIgY2xhc3M9ImVkZ2VMYWJlbCI+PGcgdHJhbnNmb3JtPSJ0cmFuc2xhdGUoLTg3LjUxMjQ5Njk0ODI0MjE5LCAtMTEuMTk5OTk5ODA5MjY1MTM3KSIgY2xhc3M9ImxhYmVsIj48Zz48cmVjdCBoZWlnaHQ9IjIyLjM5OTk5OTYxODUzMDI3MyIgd2lkdGg9IjE3NS4wMjQ5OTM4OTY0ODQzOCIgeT0iLTEuMTk5OTk5OTg4MDc5MDcxIiB4PSItMiIgc3R5bGU9IjtkaXNwbGF5OiBpbmxpbmUtYmxvY2siIGNsYXNzPSJiYWNrZ3JvdW5kIj48L3JlY3Q+PHRleHQgc3R5bGU9IjtkaXNwbGF5OiBpbmxpbmUtYmxvY2siIHk9Ii0xMC4xIj48dHNwYW4gZHk9IjEuMWVtIiB5PSItMC4xZW0iIHg9IjAiIGNsYXNzPSJ0ZXh0LW91dGVyLXRzcGFuIj48dHNwYW4gZm9udC13ZWlnaHQ9Im5vcm1hbCIgY2xhc3M9InRleHQtaW5uZXItdHNwYW4iIGZvbnQtc3R5bGU9Im5vcm1hbCI+bmF2aWdhdGVzPC90c3Bhbj48dHNwYW4gZm9udC13ZWlnaHQ9Im5vcm1hbCIgY2xhc3M9InRleHQtaW5uZXItdHNwYW4iIGZvbnQtc3R5bGU9Im5vcm1hbCI+IHRvPC90c3Bhbj48dHNwYW4gZm9udC13ZWlnaHQ9Im5vcm1hbCIgY2xhc3M9InRleHQtaW5uZXItdHNwYW4iIGZvbnQtc3R5bGU9Im5vcm1hbCI+IChvbjwvdHNwYW4+PHRzcGFuIGZvbnQtd2VpZ2h0PSJub3JtYWwiIGNsYXNzPSJ0ZXh0LWlubmVyLXRzcGFuIiBmb250LXN0eWxlPSJub3JtYWwiPiBsb2dvdXQpPC90c3Bhbj48L3RzcGFuPjwvdGV4dD48L2c+PC9nPjwvZz48ZyB0cmFuc2Zvcm09InRyYW5zbGF0ZSgyNDk3LjU3MDI1OTA5NDIzODMsIDEwNzcuODk5OTk4NjY0ODU2KSIgY2xhc3M9ImVkZ2VMYWJlbCI+PGcgdHJhbnNmb3JtPSJ0cmFuc2xhdGUoLTQzLjQxMDE1NjI1LCAtMTEuMTk5OTk5ODA5MjY1MTM3KSIgY2xhc3M9ImxhYmVsIj48Zz48cmVjdCBoZWlnaHQ9IjIyLjM5OTk5OTYxODUzMDI3MyIgd2lkdGg9Ijg2LjgyMDMxMjUiIHk9Ii0xLjE5OTk5OTk4ODA3OTA3MSIgeD0iLTIiIHN0eWxlPSI7ZGlzcGxheTogaW5saW5lLWJsb2NrIiBjbGFzcz0iYmFja2dyb3VuZCI+PC9yZWN0Pjx0ZXh0IHN0eWxlPSI7ZGlzcGxheTogaW5saW5lLWJsb2NrIiB5PSItMTAuMSI+PHRzcGFuIGR5PSIxLjFlbSIgeT0iLTAuMWVtIiB4PSIwIiBjbGFzcz0idGV4dC1vdXRlci10c3BhbiI+PHRzcGFuIGZvbnQtd2VpZ2h0PSJub3JtYWwiIGNsYXNzPSJ0ZXh0LWlubmVyLXRzcGFuIiBmb250LXN0eWxlPSJub3JtYWwiPkNSVUQ8L3RzcGFuPjx0c3BhbiBmb250LXdlaWdodD0ibm9ybWFsIiBjbGFzcz0idGV4dC1pbm5lci10c3BhbiIgZm9udC1zdHlsZT0ibm9ybWFsIj4gSG90ZWw8L3RzcGFuPjwvdHNwYW4+PC90ZXh0PjwvZz48L2c+PC9nPjxnIHRyYW5zZm9ybT0idHJhbnNsYXRlKDIwMjMuNDcwMjY4MjQ5NTExNywgMTIyOS4yOTk5OTg3NjAyMjM0KSIgY2xhc3M9ImVkZ2VMYWJlbCI+PGcgdHJhbnNmb3JtPSJ0cmFuc2xhdGUoLTQ1Ljc1MDc4MjAxMjkzOTQ1LCAtMTEuMTk5OTk5ODA5MjY1MTM3KSIgY2xhc3M9ImxhYmVsIj48Zz48cmVjdCBoZWlnaHQ9IjIyLjM5OTk5OTYxODUzMDI3MyIgd2lkdGg9IjkxLjUwMTU2NDAyNTg3ODkiIHk9Ii0xLjE5OTk5OTk4ODA3OTA3MSIgeD0iLTIiIHN0eWxlPSI7ZGlzcGxheTogaW5saW5lLWJsb2NrIiBjbGFzcz0iYmFja2dyb3VuZCI+PC9yZWN0Pjx0ZXh0IHN0eWxlPSI7ZGlzcGxheTogaW5saW5lLWJsb2NrIiB5PSItMTAuMSI+PHRzcGFuIGR5PSIxLjFlbSIgeT0iLTAuMWVtIiB4PSIwIiBjbGFzcz0idGV4dC1vdXRlci10c3BhbiI+PHRzcGFuIGZvbnQtd2VpZ2h0PSJub3JtYWwiIGNsYXNzPSJ0ZXh0LWlubmVyLXRzcGFuIiBmb250LXN0eWxlPSJub3JtYWwiPm5hdmlnYXRlczwvdHNwYW4+PHRzcGFuIGZvbnQtd2VpZ2h0PSJub3JtYWwiIGNsYXNzPSJ0ZXh0LWlubmVyLXRzcGFuIiBmb250LXN0eWxlPSJub3JtYWwiPiB0bzwvdHNwYW4+PC90c3Bhbj48L3RleHQ+PC9nPjwvZz48L2c+PGcgdHJhbnNmb3JtPSJ0cmFuc2xhdGUoMjAyMy40NzAyNjgyNDk1MTE3LCAxNDQ3LjI5OTk5ODc2MDIyMzQpIiBjbGFzcz0iZWRnZUxhYmVsIj48ZyB0cmFuc2Zvcm09InRyYW5zbGF0ZSgtNDUuNzUwNzgyMDEyOTM5NDUsIC0xMS4xOTk5OTk4MDkyNjUxMzcpIiBjbGFzcz0ibGFiZWwiPjxnPjxyZWN0IGhlaWdodD0iMjIuMzk5OTk5NjE4NTMwMjczIiB3aWR0aD0iOTEuNTAxNTY0MDI1ODc4OSIgeT0iLTEuMTk5OTk5OTg4MDc5MDcxIiB4PSItMiIgc3R5bGU9IjtkaXNwbGF5OiBpbmxpbmUtYmxvY2siIGNsYXNzPSJiYWNrZ3JvdW5kIj48L3JlY3Q+PHRleHQgc3R5bGU9IjtkaXNwbGF5OiBpbmxpbmUtYmxvY2siIHk9Ii0xMC4xIj48dHNwYW4gZHk9IjEuMWVtIiB5PSItMC4xZW0iIHg9IjAiIGNsYXNzPSJ0ZXh0LW91dGVyLXRzcGFuIj48dHNwYW4gZm9udC13ZWlnaHQ9Im5vcm1hbCIgY2xhc3M9InRleHQtaW5uZXItdHNwYW4iIGZvbnQtc3R5bGU9Im5vcm1hbCI+bmF2aWdhdGVzPC90c3Bhbj48dHNwYW4gZm9udC13ZWlnaHQ9Im5vcm1hbCIgY2xhc3M9InRleHQtaW5uZXItdHNwYW4iIGZvbnQtc3R5bGU9Im5vcm1hbCI+IHRvPC90c3Bhbj48L3RzcGFuPjwvdGV4dD48L2c+PC9nPjwvZz48ZyB0cmFuc2Zvcm09InRyYW5zbGF0ZSgxNTkxLjk3NTc0MjM0MDA4OCwgMTc1MC4wOTk5OTg0NzQxMjEpIiBjbGFzcz0iZWRnZUxhYmVsIj48ZyB0cmFuc2Zvcm09InRyYW5zbGF0ZSgtNDUuNzUwNzgyMDEyOTM5NDUsIC0xMS4xOTk5OTk4MDkyNjUxMzcpIiBjbGFzcz0ibGFiZWwiPjxnPjxyZWN0IGhlaWdodD0iMjIuMzk5OTk5NjE4NTMwMjczIiB3aWR0aD0iOTEuNTAxNTY0MDI1ODc4OSIgeT0iLTEuMTk5OTk5OTg4MDc5MDcxIiB4PSItMiIgc3R5bGU9IjtkaXNwbGF5OiBpbmxpbmUtYmxvY2siIGNsYXNzPSJiYWNrZ3JvdW5kIj48L3JlY3Q+PHRleHQgc3R5bGU9IjtkaXNwbGF5OiBpbmxpbmUtYmxvY2siIHk9Ii0xMC4xIj48dHNwYW4gZHk9IjEuMWVtIiB5PSItMC4xZW0iIHg9IjAiIGNsYXNzPSJ0ZXh0LW91dGVyLXRzcGFuIj48dHNwYW4gZm9udC13ZWlnaHQ9Im5vcm1hbCIgY2xhc3M9InRleHQtaW5uZXItdHNwYW4iIGZvbnQtc3R5bGU9Im5vcm1hbCI+bmF2aWdhdGVzPC90c3Bhbj48dHNwYW4gZm9udC13ZWlnaHQ9Im5vcm1hbCIgY2xhc3M9InRleHQtaW5uZXItdHNwYW4iIGZvbnQtc3R5bGU9Im5vcm1hbCI+IHRvPC90c3Bhbj48L3RzcGFuPjwvdGV4dD48L2c+PC9nPjwvZz48ZyB0cmFuc2Zvcm09InRyYW5zbGF0ZSg3NDkuNTkwNjA2Njg5NDUzMSwgMjI0Ny4xOTk5OTc5MDE5MTY1KSIgY2xhc3M9ImVkZ2VMYWJlbCI+PGcgdHJhbnNmb3JtPSJ0cmFuc2xhdGUoLTg3LjUxMjQ5Njk0ODI0MjE5LCAtMTEuMTk5OTk5ODA5MjY1MTM3KSIgY2xhc3M9ImxhYmVsIj48Zz48cmVjdCBoZWlnaHQ9IjIyLjM5OTk5OTYxODUzMDI3MyIgd2lkdGg9IjE3NS4wMjQ5OTM4OTY0ODQzOCIgeT0iLTEuMTk5OTk5OTg4MDc5MDcxIiB4PSItMiIgc3R5bGU9IjtkaXNwbGF5OiBpbmxpbmUtYmxvY2siIGNsYXNzPSJiYWNrZ3JvdW5kIj48L3JlY3Q+PHRleHQgc3R5bGU9IjtkaXNwbGF5OiBpbmxpbmUtYmxvY2siIHk9Ii0xMC4xIj48dHNwYW4gZHk9IjEuMWVtIiB5PSItMC4xZW0iIHg9IjAiIGNsYXNzPSJ0ZXh0LW91dGVyLXRzcGFuIj48dHNwYW4gZm9udC13ZWlnaHQ9Im5vcm1hbCIgY2xhc3M9InRleHQtaW5uZXItdHNwYW4iIGZvbnQtc3R5bGU9Im5vcm1hbCI+bmF2aWdhdGVzPC90c3Bhbj48dHNwYW4gZm9udC13ZWlnaHQ9Im5vcm1hbCIgY2xhc3M9InRleHQtaW5uZXItdHNwYW4iIGZvbnQtc3R5bGU9Im5vcm1hbCI+IHRvPC90c3Bhbj48dHNwYW4gZm9udC13ZWlnaHQ9Im5vcm1hbCIgY2xhc3M9InRleHQtaW5uZXItdHNwYW4iIGZvbnQtc3R5bGU9Im5vcm1hbCI+IChvbjwvdHNwYW4+PHRzcGFuIGZvbnQtd2VpZ2h0PSJub3JtYWwiIGNsYXNzPSJ0ZXh0LWlubmVyLXRzcGFuIiBmb250LXN0eWxlPSJub3JtYWwiPiBsb2dvdXQpPC90c3Bhbj48L3RzcGFuPjwvdGV4dD48L2c+PC9nPjwvZz48ZyB0cmFuc2Zvcm09InRyYW5zbGF0ZSgyNzk5LjcyOTYzNzE0NTk5NiwgMTU5OS44OTk5OTg2NjQ4NTYpIiBjbGFzcz0iZWRnZUxhYmVsIj48ZyB0cmFuc2Zvcm09InRyYW5zbGF0ZSgtMTAwLjM0OTk5ODQ3NDEyMTEsIC0yMCkiIGNsYXNzPSJsYWJlbCI+PGc+PHJlY3QgaGVpZ2h0PSI0MCIgd2lkdGg9IjIwMC42OTk5OTY5NDgyNDIyIiB5PSItMS4xOTk5OTk5ODgwNzkwNzEiIHg9Ii0yIiBzdHlsZT0iO2Rpc3BsYXk6IGlubGluZS1ibG9jayIgY2xhc3M9ImJhY2tncm91bmQiPjwvcmVjdD48dGV4dCBzdHlsZT0iO2Rpc3BsYXk6IGlubGluZS1ibG9jayIgeT0iLTEwLjEiPjx0c3BhbiBkeT0iMS4xZW0iIHk9Ii0wLjFlbSIgeD0iMCIgY2xhc3M9InRleHQtb3V0ZXItdHNwYW4iPjx0c3BhbiBmb250LXdlaWdodD0ibm9ybWFsIiBjbGFzcz0idGV4dC1pbm5lci10c3BhbiIgZm9udC1zdHlsZT0ibm9ybWFsIj5yZWFkcy9kZWxldGVzPC90c3Bhbj48dHNwYW4gZm9udC13ZWlnaHQ9Im5vcm1hbCIgY2xhc3M9InRleHQtaW5uZXItdHNwYW4iIGZvbnQtc3R5bGU9Im5vcm1hbCI+IENsaWVudCw8L3RzcGFuPjx0c3BhbiBmb250LXdlaWdodD0ibm9ybWFsIiBjbGFzcz0idGV4dC1pbm5lci10c3BhbiIgZm9udC1zdHlsZT0ibm9ybWFsIj4gcmVhZHM8L3RzcGFuPjwvdHNwYW4+PHRzcGFuIGR5PSIxLjFlbSIgeT0iMWVtIiB4PSIwIiBjbGFzcz0idGV4dC1vdXRlci10c3BhbiI+PHRzcGFuIGZvbnQtd2VpZ2h0PSJub3JtYWwiIGNsYXNzPSJ0ZXh0LWlubmVyLXRzcGFuIiBmb250LXN0eWxlPSJub3JtYWwiPkJvb2tpbmc8L3RzcGFuPjwvdHNwYW4+PC90ZXh0PjwvZz48L2c+PC9nPjxnIHRyYW5zZm9ybT0idHJhbnNsYXRlKDI0OTcuNTcwMjU5MDk0MjM4MywgMTczOC44OTk5OTg2NjQ4NTYpIiBjbGFzcz0iZWRnZUxhYmVsIj48ZyB0cmFuc2Zvcm09InRyYW5zbGF0ZSgtNDUuNzUwNzgyMDEyOTM5NDUsIC0xMS4xOTk5OTk4MDkyNjUxMzcpIiBjbGFzcz0ibGFiZWwiPjxnPjxyZWN0IGhlaWdodD0iMjIuMzk5OTk5NjE4NTMwMjczIiB3aWR0aD0iOTEuNTAxNTY0MDI1ODc4OSIgeT0iLTEuMTk5OTk5OTg4MDc5MDcxIiB4PSItMiIgc3R5bGU9IjtkaXNwbGF5OiBpbmxpbmUtYmxvY2siIGNsYXNzPSJiYWNrZ3JvdW5kIj48L3JlY3Q+PHRleHQgc3R5bGU9IjtkaXNwbGF5OiBpbmxpbmUtYmxvY2siIHk9Ii0xMC4xIj48dHNwYW4gZHk9IjEuMWVtIiB5PSItMC4xZW0iIHg9IjAiIGNsYXNzPSJ0ZXh0LW91dGVyLXRzcGFuIj48dHNwYW4gZm9udC13ZWlnaHQ9Im5vcm1hbCIgY2xhc3M9InRleHQtaW5uZXItdHNwYW4iIGZvbnQtc3R5bGU9Im5vcm1hbCI+bmF2aWdhdGVzPC90c3Bhbj48dHNwYW4gZm9udC13ZWlnaHQ9Im5vcm1hbCIgY2xhc3M9InRleHQtaW5uZXItdHNwYW4iIGZvbnQtc3R5bGU9Im5vcm1hbCI+IHRvPC90c3Bhbj48L3RzcGFuPjwvdGV4dD48L2c+PC9nPjwvZz48ZyB0cmFuc2Zvcm09InRyYW5zbGF0ZSgzMTAxLjY4NDMzMzgwMTI2OTUsIDE5MzUuNzk5OTk4NzYwMjIzNCkiIGNsYXNzPSJlZGdlTGFiZWwiPjxnIHRyYW5zZm9ybT0idHJhbnNsYXRlKC01My41NDY4NzUsIC0xMS4xOTk5OTk4MDkyNjUxMzcpIiBjbGFzcz0ibGFiZWwiPjxnPjxyZWN0IGhlaWdodD0iMjIuMzk5OTk5NjE4NTMwMjczIiB3aWR0aD0iMTA3LjA5Mzc1IiB5PSItMS4xOTk5OTk5ODgwNzkwNzEiIHg9Ii0yIiBzdHlsZT0iO2Rpc3BsYXk6IGlubGluZS1ibG9jayIgY2xhc3M9ImJhY2tncm91bmQiPjwvcmVjdD48dGV4dCBzdHlsZT0iO2Rpc3BsYXk6IGlubGluZS1ibG9jayIgeT0iLTEwLjEiPjx0c3BhbiBkeT0iMS4xZW0iIHk9Ii0wLjFlbSIgeD0iMCIgY2xhc3M9InRleHQtb3V0ZXItdHNwYW4iPjx0c3BhbiBmb250LXdlaWdodD0ibm9ybWFsIiBjbGFzcz0idGV4dC1pbm5lci10c3BhbiIgZm9udC1zdHlsZT0ibm9ybWFsIj5kaXNwbGF5czwvdHNwYW4+PHRzcGFuIGZvbnQtd2VpZ2h0PSJub3JtYWwiIGNsYXNzPSJ0ZXh0LWlubmVyLXRzcGFuIiBmb250LXN0eWxlPSJub3JtYWwiPiBsaXN0PC90c3Bhbj48dHNwYW4gZm9udC13ZWlnaHQ9Im5vcm1hbCIgY2xhc3M9InRleHQtaW5uZXItdHNwYW4iIGZvbnQtc3R5bGU9Im5vcm1hbCI+IG9mPC90c3Bhbj48L3RzcGFuPjwvdGV4dD48L2c+PC9nPjwvZz48ZyB0cmFuc2Zvcm09InRyYW5zbGF0ZSgzMTAxLjY4NDMzMzgwMTI2OTUsIDE5NzguMTk5OTk4Mzc4NzUzNykiIGNsYXNzPSJlZGdlTGFiZWwiPjxnIHRyYW5zZm9ybT0idHJhbnNsYXRlKC01My44NTkzNzUsIC0xMS4xOTk5OTk4MDkyNjUxMzcpIiBjbGFzcz0ibGFiZWwiPjxnPjxyZWN0IGhlaWdodD0iMjIuMzk5OTk5NjE4NTMwMjczIiB3aWR0aD0iMTA3LjcxODc1IiB5PSItMS4xOTk5OTk5ODgwNzkwNzEiIHg9Ii0yIiBzdHlsZT0iO2Rpc3BsYXk6IGlubGluZS1ibG9jayIgY2xhc3M9ImJhY2tncm91bmQiPjwvcmVjdD48dGV4dCBzdHlsZT0iO2Rpc3BsYXk6IGlubGluZS1ibG9jayIgeT0iLTEwLjEiPjx0c3BhbiBkeT0iMS4xZW0iIHk9Ii0wLjFlbSIgeD0iMCIgY2xhc3M9InRleHQtb3V0ZXItdHNwYW4iPjx0c3BhbiBmb250LXdlaWdodD0ibm9ybWFsIiBjbGFzcz0idGV4dC1pbm5lci10c3BhbiIgZm9udC1zdHlsZT0ibm9ybWFsIj5yZWFkczwvdHNwYW4+PHRzcGFuIGZvbnQtd2VpZ2h0PSJub3JtYWwiIGNsYXNzPSJ0ZXh0LWlubmVyLXRzcGFuIiBmb250LXN0eWxlPSJub3JtYWwiPiBjb3VudDwvdHNwYW4+PHRzcGFuIGZvbnQtd2VpZ2h0PSJub3JtYWwiIGNsYXNzPSJ0ZXh0LWlubmVyLXRzcGFuIiBmb250LXN0eWxlPSJub3JtYWwiPiBvZjwvdHNwYW4+PC90c3Bhbj48L3RleHQ+PC9nPjwvZz48L2c+PGcgdHJhbnNmb3JtPSJ0cmFuc2xhdGUoMzEwMS42ODQzMzM4MDEyNjk1LCAxMjI5LjI5OTk5ODc2MDIyMzQpIiBjbGFzcz0iZWRnZUxhYmVsIj48ZyB0cmFuc2Zvcm09InRyYW5zbGF0ZSgtNTAuMjg1MTU2MjUsIC0xMS4xOTk5OTk4MDkyNjUxMzcpIiBjbGFzcz0ibGFiZWwiPjxnPjxyZWN0IGhlaWdodD0iMjIuMzk5OTk5NjE4NTMwMjczIiB3aWR0aD0iMTAwLjU3MDMxMjUiIHk9Ii0xLjE5OTk5OTk4ODA3OTA3MSIgeD0iLTIiIHN0eWxlPSI7ZGlzcGxheTogaW5saW5lLWJsb2NrIiBjbGFzcz0iYmFja2dyb3VuZCI+PC9yZWN0Pjx0ZXh0IHN0eWxlPSI7ZGlzcGxheTogaW5saW5lLWJsb2NrIiB5PSItMTAuMSI+PHRzcGFuIGR5PSIxLjFlbSIgeT0iLTAuMWVtIiB4PSIwIiBjbGFzcz0idGV4dC1vdXRlci10c3BhbiI+PHRzcGFuIGZvbnQtd2VpZ2h0PSJub3JtYWwiIGNsYXNzPSJ0ZXh0LWlubmVyLXRzcGFuIiBmb250LXN0eWxlPSJub3JtYWwiPmNyZWF0ZXM8L3RzcGFuPjx0c3BhbiBmb250LXdlaWdodD0ibm9ybWFsIiBjbGFzcz0idGV4dC1pbm5lci10c3BhbiIgZm9udC1zdHlsZT0ibm9ybWFsIj4gSG90ZWw8L3RzcGFuPjwvdHNwYW4+PC90ZXh0PjwvZz48L2c+PC9nPjxnIHRyYW5zZm9ybT0idHJhbnNsYXRlKDMxMDEuNjg0MzMzODAxMjY5NSwgMTQ0Ny4yOTk5OTg3NjAyMjM0KSIgY2xhc3M9ImVkZ2VMYWJlbCI+PGcgdHJhbnNmb3JtPSJ0cmFuc2xhdGUoLTUyLjEzNTE1NDcyNDEyMTA5NCwgLTExLjE5OTk5OTgwOTI2NTEzNykiIGNsYXNzPSJsYWJlbCI+PGc+PHJlY3QgaGVpZ2h0PSIyMi4zOTk5OTk2MTg1MzAyNzMiIHdpZHRoPSIxMDQuMjcwMzA5NDQ4MjQyMTkiIHk9Ii0xLjE5OTk5OTk4ODA3OTA3MSIgeD0iLTIiIHN0eWxlPSI7ZGlzcGxheTogaW5saW5lLWJsb2NrIiBjbGFzcz0iYmFja2dyb3VuZCI+PC9yZWN0Pjx0ZXh0IHN0eWxlPSI7ZGlzcGxheTogaW5saW5lLWJsb2NrIiB5PSItMTAuMSI+PHRzcGFuIGR5PSIxLjFlbSIgeT0iLTAuMWVtIiB4PSIwIiBjbGFzcz0idGV4dC1vdXRlci10c3BhbiI+PHRzcGFuIGZvbnQtd2VpZ2h0PSJub3JtYWwiIGNsYXNzPSJ0ZXh0LWlubmVyLXRzcGFuIiBmb250LXN0eWxlPSJub3JtYWwiPnVwZGF0ZXM8L3RzcGFuPjx0c3BhbiBmb250LXdlaWdodD0ibm9ybWFsIiBjbGFzcz0idGV4dC1pbm5lci10c3BhbiIgZm9udC1zdHlsZT0ibm9ybWFsIj4gSG90ZWw8L3RzcGFuPjwvdHNwYW4+PC90ZXh0PjwvZz48L2c+PC9nPjxnIHRyYW5zZm9ybT0idHJhbnNsYXRlKDMxMDEuNjg0MzMzODAxMjY5NSwgMTY4NC45OTk5OTg1Njk0ODg1KSIgY2xhc3M9ImVkZ2VMYWJlbCI+PGcgdHJhbnNmb3JtPSJ0cmFuc2xhdGUoLTg4LjE1MTU2NTU1MTc1NzgxLCAtMTEuMTk5OTk5ODA5MjY1MTM3KSIgY2xhc3M9ImxhYmVsIj48Zz48cmVjdCBoZWlnaHQ9IjIyLjM5OTk5OTYxODUzMDI3MyIgd2lkdGg9IjE3Ni4zMDMxMzExMDM1MTU2MiIgeT0iLTEuMTk5OTk5OTg4MDc5MDcxIiB4PSItMiIgc3R5bGU9IjtkaXNwbGF5OiBpbmxpbmUtYmxvY2siIGNsYXNzPSJiYWNrZ3JvdW5kIj48L3JlY3Q+PHRleHQgc3R5bGU9IjtkaXNwbGF5OiBpbmxpbmUtYmxvY2siIHk9Ii0xMC4xIj48dHNwYW4gZHk9IjEuMWVtIiB5PSItMC4xZW0iIHg9IjAiIGNsYXNzPSJ0ZXh0LW91dGVyLXRzcGFuIj48dHNwYW4gZm9udC13ZWlnaHQ9Im5vcm1hbCIgY2xhc3M9InRleHQtaW5uZXItdHNwYW4iIGZvbnQtc3R5bGU9Im5vcm1hbCI+cmVhZHM8L3RzcGFuPjx0c3BhbiBmb250LXdlaWdodD0ibm9ybWFsIiBjbGFzcz0idGV4dC1pbm5lci10c3BhbiIgZm9udC1zdHlsZT0ibm9ybWFsIj4gQm9va2luZzwvdHNwYW4+PHRzcGFuIGZvbnQtd2VpZ2h0PSJub3JtYWwiIGNsYXNzPSJ0ZXh0LWlubmVyLXRzcGFuIiBmb250LXN0eWxlPSJub3JtYWwiPiBmb3I8L3RzcGFuPjx0c3BhbiBmb250LXdlaWdodD0ibm9ybWFsIiBjbGFzcz0idGV4dC1pbm5lci10c3BhbiIgZm9udC1zdHlsZT0ibm9ybWFsIj4gQ2xpZW50PC90c3Bhbj48L3RzcGFuPjwvdGV4dD48L2c+PC9nPjwvZz48ZyB0cmFuc2Zvcm09InRyYW5zbGF0ZSgzNDQ1LjEyOTY2MTU2MDA1ODYsIDE3MTYuMTk5OTk4Mzc4NzUzNykiIGNsYXNzPSJlZGdlTGFiZWwiPjxnIHRyYW5zZm9ybT0idHJhbnNsYXRlKC02Ni41NzE4NzY1MjU4Nzg5LCAtMTEuMTk5OTk5ODA5MjY1MTM3KSIgY2xhc3M9ImxhYmVsIj48Zz48cmVjdCBoZWlnaHQ9IjIyLjM5OTk5OTYxODUzMDI3MyIgd2lkdGg9IjEzMy4xNDM3NTMwNTE3NTc4IiB5PSItMS4xOTk5OTk5ODgwNzkwNzEiIHg9Ii0yIiBzdHlsZT0iO2Rpc3BsYXk6IGlubGluZS1ibG9jayIgY2xhc3M9ImJhY2tncm91bmQiPjwvcmVjdD48dGV4dCBzdHlsZT0iO2Rpc3BsYXk6IGlubGluZS1ibG9jayIgeT0iLTEwLjEiPjx0c3BhbiBkeT0iMS4xZW0iIHk9Ii0wLjFlbSIgeD0iMCIgY2xhc3M9InRleHQtb3V0ZXItdHNwYW4iPjx0c3BhbiBmb250LXdlaWdodD0ibm9ybWFsIiBjbGFzcz0idGV4dC1pbm5lci10c3BhbiIgZm9udC1zdHlsZT0ibm9ybWFsIj5kaXNwbGF5czwvdHNwYW4+PHRzcGFuIGZvbnQtd2VpZ2h0PSJub3JtYWwiIGNsYXNzPSJ0ZXh0LWlubmVyLXRzcGFuIiBmb250LXN0eWxlPSJub3JtYWwiPiBkZXRhaWxzPC90c3Bhbj48dHNwYW4gZm9udC13ZWlnaHQ9Im5vcm1hbCIgY2xhc3M9InRleHQtaW5uZXItdHNwYW4iIGZvbnQtc3R5bGU9Im5vcm1hbCI+IG9mPC90c3Bhbj48L3RzcGFuPjwvdGV4dD48L2c+PC9nPjwvZz48ZyB0cmFuc2Zvcm09InRyYW5zbGF0ZSgzNDQ1LjEyOTY2MTU2MDA1ODYsIDE4NjAuNjk5OTk4ODU1NTkwOCkiIGNsYXNzPSJlZGdlTGFiZWwiPjxnIHRyYW5zZm9ybT0idHJhbnNsYXRlKC01My41NDY4NzUsIC0xMS4xOTk5OTk4MDkyNjUxMzcpIiBjbGFzcz0ibGFiZWwiPjxnPjxyZWN0IGhlaWdodD0iMjIuMzk5OTk5NjE4NTMwMjczIiB3aWR0aD0iMTA3LjA5Mzc1IiB5PSItMS4xOTk5OTk5ODgwNzkwNzEiIHg9Ii0yIiBzdHlsZT0iO2Rpc3BsYXk6IGlubGluZS1ibG9jayIgY2xhc3M9ImJhY2tncm91bmQiPjwvcmVjdD48dGV4dCBzdHlsZT0iO2Rpc3BsYXk6IGlubGluZS1ibG9jayIgeT0iLTEwLjEiPjx0c3BhbiBkeT0iMS4xZW0iIHk9Ii0wLjFlbSIgeD0iMCIgY2xhc3M9InRleHQtb3V0ZXItdHNwYW4iPjx0c3BhbiBmb250LXdlaWdodD0ibm9ybWFsIiBjbGFzcz0idGV4dC1pbm5lci10c3BhbiIgZm9udC1zdHlsZT0ibm9ybWFsIj5kaXNwbGF5czwvdHNwYW4+PHRzcGFuIGZvbnQtd2VpZ2h0PSJub3JtYWwiIGNsYXNzPSJ0ZXh0LWlubmVyLXRzcGFuIiBmb250LXN0eWxlPSJub3JtYWwiPiBsaXN0PC90c3Bhbj48dHNwYW4gZm9udC13ZWlnaHQ9Im5vcm1hbCIgY2xhc3M9InRleHQtaW5uZXItdHNwYW4iIGZvbnQtc3R5bGU9Im5vcm1hbCI+IG9mPC90c3Bhbj48L3RzcGFuPjwvdGV4dD48L2c+PC9nPjwvZz48ZyB0cmFuc2Zvcm09InRyYW5zbGF0ZSgyNDk3LjU3MDI1OTA5NDIzODMsIDMyOC4zOTk5OTk2MTg1MzAzKSIgY2xhc3M9ImVkZ2VMYWJlbCI+PGcgdHJhbnNmb3JtPSJ0cmFuc2xhdGUoLTMzLjAzNzQ5ODQ3NDEyMTA5NCwgLTExLjE5OTk5OTgwOTI2NTEzNykiIGNsYXNzPSJsYWJlbCI+PGc+PHJlY3QgaGVpZ2h0PSIyMi4zOTk5OTk2MTg1MzAyNzMiIHdpZHRoPSI2Ni4wNzUwMDA3NjI5Mzk0NSIgeT0iLTEuMTk5OTk5OTg4MDc5MDcxIiB4PSItMiIgc3R5bGU9IjtkaXNwbGF5OiBpbmxpbmUtYmxvY2siIGNsYXNzPSJiYWNrZ3JvdW5kIj48L3JlY3Q+PHRleHQgc3R5bGU9IjtkaXNwbGF5OiBpbmxpbmUtYmxvY2siIHk9Ii0xMC4xIj48dHNwYW4gZHk9IjEuMWVtIiB5PSItMC4xZW0iIHg9IjAiIGNsYXNzPSJ0ZXh0LW91dGVyLXRzcGFuIj48dHNwYW4gZm9udC13ZWlnaHQ9Im5vcm1hbCIgY2xhc3M9InRleHQtaW5uZXItdHNwYW4iIGZvbnQtc3R5bGU9Im5vcm1hbCI+bWFuYWdlczwvdHNwYW4+PC90c3Bhbj48L3RleHQ+PC9nPjwvZz48L2c+PGcgdHJhbnNmb3JtPSJ0cmFuc2xhdGUoMzc1My45NzAyOTg3NjcwOSwgNzk1LjI5OTk5OTIzNzA2MDUpIiBjbGFzcz0iZWRnZUxhYmVsIj48ZyB0cmFuc2Zvcm09InRyYW5zbGF0ZSgtMjMuNDE4NzUwNzYyOTM5NDUzLCAtMTEuMTk5OTk5ODA5MjY1MTM3KSIgY2xhc3M9ImxhYmVsIj48Zz48cmVjdCBoZWlnaHQ9IjIyLjM5OTk5OTYxODUzMDI3MyIgd2lkdGg9IjQ2LjgzNzUwMTUyNTg3ODkwNiIgeT0iLTEuMTk5OTk5OTg4MDc5MDcxIiB4PSItMiIgc3R5bGU9IjtkaXNwbGF5OiBpbmxpbmUtYmxvY2siIGNsYXNzPSJiYWNrZ3JvdW5kIj48L3JlY3Q+PHRleHQgc3R5bGU9IjtkaXNwbGF5OiBpbmxpbmUtYmxvY2siIHk9Ii0xMC4xIj48dHNwYW4gZHk9IjEuMWVtIiB5PSItMC4xZW0iIHg9IjAiIGNsYXNzPSJ0ZXh0LW91dGVyLXRzcGFuIj48dHNwYW4gZm9udC13ZWlnaHQ9Im5vcm1hbCIgY2xhc3M9InRleHQtaW5uZXItdHNwYW4iIGZvbnQtc3R5bGU9Im5vcm1hbCI+c3RvcmVzPC90c3Bhbj48L3RzcGFuPjwvdGV4dD48L2c+PC9nPjwvZz48ZyB0cmFuc2Zvcm09InRyYW5zbGF0ZSgzNzUzLjk3MDI5ODc2NzA5LCAxMDY0LjQ5OTk5OTA0NjMyNTcpIiBjbGFzcz0iZWRnZUxhYmVsIj48ZyB0cmFuc2Zvcm09InRyYW5zbGF0ZSgtMjMuNDE4NzUwNzYyOTM5NDUzLCAtMTEuMTk5OTk5ODA5MjY1MTM3KSIgY2xhc3M9ImxhYmVsIj48Zz48cmVjdCBoZWlnaHQ9IjIyLjM5OTk5OTYxODUzMDI3MyIgd2lkdGg9IjQ2LjgzNzUwMTUyNTg3ODkwNiIgeT0iLTEuMTk5OTk5OTg4MDc5MDcxIiB4PSItMiIgc3R5bGU9IjtkaXNwbGF5OiBpbmxpbmUtYmxvY2siIGNsYXNzPSJiYWNrZ3JvdW5kIj48L3JlY3Q+PHRleHQgc3R5bGU9IjtkaXNwbGF5OiBpbmxpbmUtYmxvY2siIHk9Ii0xMC4xIj48dHNwYW4gZHk9IjEuMWVtIiB5PSItMC4xZW0iIHg9IjAiIGNsYXNzPSJ0ZXh0LW91dGVyLXRzcGFuIj48dHNwYW4gZm9udC13ZWlnaHQ9Im5vcm1hbCIgY2xhc3M9InRleHQtaW5uZXItdHNwYW4iIGZvbnQtc3R5bGU9Im5vcm1hbCI+c3RvcmVzPC90c3Bhbj48L3RzcGFuPjwvdGV4dD48L2c+PC9nPjwvZz48ZyB0cmFuc2Zvcm09InRyYW5zbGF0ZSgzNzUzLjk3MDI5ODc2NzA5LCAxNTQ4LjA5OTk5ODQ3NDEyMSkiIGNsYXNzPSJlZGdlTGFiZWwiPjxnIHRyYW5zZm9ybT0idHJhbnNsYXRlKC0yMy40MTg3NTA3NjI5Mzk0NTMsIC0xMS4xOTk5OTk4MDkyNjUxMzcpIiBjbGFzcz0ibGFiZWwiPjxnPjxyZWN0IGhlaWdodD0iMjIuMzk5OTk5NjE4NTMwMjczIiB3aWR0aD0iNDYuODM3NTAxNTI1ODc4OTA2IiB5PSItMS4xOTk5OTk5ODgwNzkwNzEiIHg9Ii0yIiBzdHlsZT0iO2Rpc3BsYXk6IGlubGluZS1ibG9jayIgY2xhc3M9ImJhY2tncm91bmQiPjwvcmVjdD48dGV4dCBzdHlsZT0iO2Rpc3BsYXk6IGlubGluZS1ibG9jayIgeT0iLTEwLjEiPjx0c3BhbiBkeT0iMS4xZW0iIHk9Ii0wLjFlbSIgeD0iMCIgY2xhc3M9InRleHQtb3V0ZXItdHNwYW4iPjx0c3BhbiBmb250LXdlaWdodD0ibm9ybWFsIiBjbGFzcz0idGV4dC1pbm5lci10c3BhbiIgZm9udC1zdHlsZT0ibm9ybWFsIj5zdG9yZXM8L3RzcGFuPjwvdHNwYW4+PC90ZXh0PjwvZz48L2c+PC9nPjxnIHRyYW5zZm9ybT0idHJhbnNsYXRlKDI0OTcuNTcwMjU5MDk0MjM4MywgMjE4NC43OTk5OTgyODMzODYyKSIgY2xhc3M9ImVkZ2VMYWJlbCI+PGcgdHJhbnNmb3JtPSJ0cmFuc2xhdGUoLTg4LjM1NjI0Njk0ODI0MjE5LCAtMjApIiBjbGFzcz0ibGFiZWwiPjxnPjxyZWN0IGhlaWdodD0iNDAiIHdpZHRoPSIxNzYuNzEyNDkzODk2NDg0MzgiIHk9Ii0xLjE5OTk5OTk4ODA3OTA3MSIgeD0iLTIiIHN0eWxlPSI7ZGlzcGxheTogaW5saW5lLWJsb2NrIiBjbGFzcz0iYmFja2dyb3VuZCI+PC9yZWN0Pjx0ZXh0IHN0eWxlPSI7ZGlzcGxheTogaW5saW5lLWJsb2NrIiB5PSItMTAuMSI+PHRzcGFuIGR5PSIxLjFlbSIgeT0iLTAuMWVtIiB4PSIwIiBjbGFzcz0idGV4dC1vdXRlci10c3BhbiI+PHRzcGFuIGZvbnQtd2VpZ2h0PSJub3JtYWwiIGNsYXNzPSJ0ZXh0LWlubmVyLXRzcGFuIiBmb250LXN0eWxlPSJub3JtYWwiPmRpc3BsYXlzPC90c3Bhbj48dHNwYW4gZm9udC13ZWlnaHQ9Im5vcm1hbCIgY2xhc3M9InRleHQtaW5uZXItdHNwYW4iIGZvbnQtc3R5bGU9Im5vcm1hbCI+IGxpc3Q8L3RzcGFuPjx0c3BhbiBmb250LXdlaWdodD0ibm9ybWFsIiBjbGFzcz0idGV4dC1pbm5lci10c3BhbiIgZm9udC1zdHlsZT0ibm9ybWFsIj4gb2Y8L3RzcGFuPjx0c3BhbiBmb250LXdlaWdodD0ibm9ybWFsIiBjbGFzcz0idGV4dC1pbm5lci10c3BhbiIgZm9udC1zdHlsZT0ibm9ybWFsIj4gKHZpYTwvdHNwYW4+PC90c3Bhbj48dHNwYW4gZHk9IjEuMWVtIiB5PSIxZW0iIHg9IjAiIGNsYXNzPSJ0ZXh0LW91dGVyLXRzcGFuIj48dHNwYW4gZm9udC13ZWlnaHQ9Im5vcm1hbCIgY2xhc3M9InRleHQtaW5uZXItdHNwYW4iIGZvbnQtc3R5bGU9Im5vcm1hbCI+RXhwbG9yZVBhZ2U8L3RzcGFuPjx0c3BhbiBmb250LXdlaWdodD0ibm9ybWFsIiBjbGFzcz0idGV4dC1pbm5lci10c3BhbiIgZm9udC1zdHlsZT0ibm9ybWFsIj4gb3I8L3RzcGFuPjx0c3BhbiBmb250LXdlaWdodD0ibm9ybWFsIiBjbGFzcz0idGV4dC1pbm5lci10c3BhbiIgZm9udC1zdHlsZT0ibm9ybWFsIj4gZGlyZWN0bHkpPC90c3Bhbj48L3RzcGFuPjwvdGV4dD48L2c+PC9nPjwvZz48ZyB0cmFuc2Zvcm09InRyYW5zbGF0ZSgzNzUzLjk3MDI5ODc2NzA5LCA3NTIuODk5OTk5NjE4NTMwMykiIGNsYXNzPSJlZGdlTGFiZWwiPjxnIHRyYW5zZm9ybT0idHJhbnNsYXRlKC01My41NDY4NzUsIC0xMS4xOTk5OTk4MDkyNjUxMzcpIiBjbGFzcz0ibGFiZWwiPjxnPjxyZWN0IGhlaWdodD0iMjIuMzk5OTk5NjE4NTMwMjczIiB3aWR0aD0iMTA3LjA5Mzc1IiB5PSItMS4xOTk5OTk5ODgwNzkwNzEiIHg9Ii0yIiBzdHlsZT0iO2Rpc3BsYXk6IGlubGluZS1ibG9jayIgY2xhc3M9ImJhY2tncm91bmQiPjwvcmVjdD48dGV4dCBzdHlsZT0iO2Rpc3BsYXk6IGlubGluZS1ibG9jayIgeT0iLTEwLjEiPjx0c3BhbiBkeT0iMS4xZW0iIHk9Ii0wLjFlbSIgeD0iMCIgY2xhc3M9InRleHQtb3V0ZXItdHNwYW4iPjx0c3BhbiBmb250LXdlaWdodD0ibm9ybWFsIiBjbGFzcz0idGV4dC1pbm5lci10c3BhbiIgZm9udC1zdHlsZT0ibm9ybWFsIj5kaXNwbGF5czwvdHNwYW4+PHRzcGFuIGZvbnQtd2VpZ2h0PSJub3JtYWwiIGNsYXNzPSJ0ZXh0LWlubmVyLXRzcGFuIiBmb250LXN0eWxlPSJub3JtYWwiPiBsaXN0PC90c3Bhbj48dHNwYW4gZm9udC13ZWlnaHQ9Im5vcm1hbCIgY2xhc3M9InRleHQtaW5uZXItdHNwYW4iIGZvbnQtc3R5bGU9Im5vcm1hbCI+IG9mPC90c3Bhbj48L3RzcGFuPjwvdGV4dD48L2c+PC9nPjwvZz48L2c+PGcgY2xhc3M9Im5vZGVzIj48ZyB0cmFuc2Zvcm09InRyYW5zbGF0ZSgyMDIzLjQ3MDI2ODI0OTUxMTcsIDMyOC4zOTk5OTk2MTg1MzAzKSIgaWQ9ImNsYXNzSWQtRmlyZWJhc2VBdXRoLTM5OCIgY2xhc3M9Im5vZGUgZGVmYXVsdCI+PGcgY2xhc3M9ImJhc2ljIGxhYmVsLWNvbnRhaW5lciI+PHBhdGggc3R5bGU9IiIgZmlsbD0iI2VlZSIgc3Ryb2tlLXdpZHRoPSIwIiBzdHJva2U9Im5vbmUiIGQ9Ik0tMzYwLjc0Mzc0Mzg5NjQ4NDQgLTk2IEwzNjAuNzQzNzQzODk2NDg0NCAtOTYgTDM2MC43NDM3NDM4OTY0ODQ0IDk2IEwtMzYwLjc0Mzc0Mzg5NjQ4NDQgOTYiPjwvcGF0aD48cGF0aCBzdHlsZT0iIiBmaWxsPSJub25lIiBzdHJva2Utd2lkdGg9IjEuMyIgc3Ryb2tlPSIjOTk5IiBkPSJNLTM2MC43NDM3NDM4OTY0ODQ0IC05NiBDLTE2NS42ODc1OTg1NDg1NjgxMyAtOTYsIDI5LjM2ODU0Njc5OTM0ODExIC05NiwgMzYwLjc0Mzc0Mzg5NjQ4NDQgLTk2IE0tMzYwLjc0Mzc0Mzg5NjQ4NDQgLTk2IEMtMTI1Ljc0OTYzODEzNTgyNTY1IC05NiwgMTA5LjI0NDQ2NzYyNDgzMzA4IC05NiwgMzYwLjc0Mzc0Mzg5NjQ4NDQgLTk2IE0zNjAuNzQzNzQzODk2NDg0NCAtOTYgQzM2MC43NDM3NDM4OTY0ODQ0IC00MC4xNTcxNTkzODg5ODU0NSwgMzYwLjc0Mzc0Mzg5NjQ4NDQgMTUuNjg1NjgxMjIyMDI5MTAzLCAzNjAuNzQzNzQzODk2NDg0NCA5NiBNMzYwLjc0Mzc0Mzg5NjQ4NDQgLTk2IEMzNjAuNzQzNzQzODk2NDg0NCAtMjkuMzgxNTg2NDU1NzA3OTMyLCAzNjAuNzQzNzQzODk2NDg0NCAzNy4yMzY4MjcwODg1ODQxMzUsIDM2MC43NDM3NDM4OTY0ODQ0IDk2IE0zNjAuNzQzNzQzODk2NDg0NCA5NiBDODkuNjk0MTg4MDM2MTM3OTcgOTYsIC0xODEuMzU1MzY3ODI0MjA4NDMgOTYsIC0zNjAuNzQzNzQzODk2NDg0NCA5NiBNMzYwLjc0Mzc0Mzg5NjQ4NDQgOTYgQzgzLjU0ODQ3NTQ0MjE2NTUxIDk2LCAtMTkzLjY0Njc5MzAxMjE1MzM1IDk2LCAtMzYwLjc0Mzc0Mzg5NjQ4NDQgOTYgTS0zNjAuNzQzNzQzODk2NDg0NCA5NiBDLTM2MC43NDM3NDM4OTY0ODQ0IDQ1LjMzNzkwODQyNzk5NjM3LCAtMzYwLjc0Mzc0Mzg5NjQ4NDQgLTUuMzI0MTgzMTQ0MDA3MjY0NCwgLTM2MC43NDM3NDM4OTY0ODQ0IC05NiBNLTM2MC43NDM3NDM4OTY0ODQ0IDk2IEMtMzYwLjc0Mzc0Mzg5NjQ4NDQgMjIuODI2MDI0MDM1NjAxOTMyLCAtMzYwLjc0Mzc0Mzg5NjQ4NDQgLTUwLjM0Nzk1MTkyODc5NjEzNSwgLTM2MC43NDM3NDM4OTY0ODQ0IC05NiI+PC9wYXRoPjwvZz48ZyB0cmFuc2Zvcm09InRyYW5zbGF0ZSgwLCAtNzIpIiBjbGFzcz0iYW5ub3RhdGlvbi1ncm91cCB0ZXh0Ij48L2c+PGcgdHJhbnNmb3JtPSJ0cmFuc2xhdGUoLTQ5LjczNzQ5OTIzNzA2MDU1LCAtNzIpIiBjbGFzcz0ibGFiZWwtZ3JvdXAgdGV4dCI+PGcgdHJhbnNmb3JtPSJ0cmFuc2xhdGUoMCwtMTIpIiBzdHlsZT0iZm9udC13ZWlnaHQ6IGJvbGRlciIgY2xhc3M9ImxhYmVsIj48Zm9yZWlnbk9iamVjdCBoZWlnaHQ9IjI0IiB3aWR0aD0iOTkuNDc0OTk4NDc0MTIxMSI+PGRpdiBzdHlsZT0iZGlzcGxheTogdGFibGUtY2VsbDsgd2hpdGUtc3BhY2U6IG5vd3JhcDsgbGluZS1oZWlnaHQ6IDEuNTsgbWF4LXdpZHRoOiAxNDJweDsgdGV4dC1hbGlnbjogY2VudGVyOyIgeG1sbnM9Imh0dHA6Ly93d3cudzMub3JnLzE5OTkveGh0bWwiPjxzcGFuIHN0eWxlPSIiIGNsYXNzPSJub2RlTGFiZWwgbWFya2Rvd24tbm9kZS1sYWJlbCI+PHA+RmlyZWJhc2VBdXRoPC9wPjwvc3Bhbj48L2Rpdj48L2ZvcmVpZ25PYmplY3Q+PC9nPjwvZz48ZyB0cmFuc2Zvcm09InRyYW5zbGF0ZSgtMzQ4Ljc0Mzc0Mzg5NjQ4NDQsIC0yNCkiIGNsYXNzPSJtZW1iZXJzLWdyb3VwIHRleHQiPjxnIHRyYW5zZm9ybT0idHJhbnNsYXRlKDAsLTEyKSIgc3R5bGU9IiIgY2xhc3M9ImxhYmVsIj48Zm9yZWlnbk9iamVjdCBoZWlnaHQ9IjI0IiB3aWR0aD0iMTM1LjYwMDAwNjEwMzUxNTYyIj48ZGl2IHN0eWxlPSJkaXNwbGF5OiB0YWJsZS1jZWxsOyB3aGl0ZS1zcGFjZTogbm93cmFwOyBsaW5lLWhlaWdodDogMS41OyBtYXgtd2lkdGg6IDE5NHB4OyB0ZXh0LWFsaWduOiBjZW50ZXI7IiB4bWxucz0iaHR0cDovL3d3dy53My5vcmcvMTk5OS94aHRtbCI+PHNwYW4gc3R5bGU9IiIgY2xhc3M9Im5vZGVMYWJlbCBtYXJrZG93bi1ub2RlLWxhYmVsIj48cD4rVXNlcj8gY3VycmVudFVzZXI8L3A+PC9zcGFuPjwvZGl2PjwvZm9yZWlnbk9iamVjdD48L2c+PC9nPjxnIHRyYW5zZm9ybT0idHJhbnNsYXRlKC0zNDguNzQzNzQzODk2NDg0NCwgMjQpIiBjbGFzcz0ibWV0aG9kcy1ncm91cCB0ZXh0Ij48ZyB0cmFuc2Zvcm09InRyYW5zbGF0ZSgwLC0xMikiIHN0eWxlPSIiIGNsYXNzPSJsYWJlbCI+PGZvcmVpZ25PYmplY3QgaGVpZ2h0PSIyNCIgd2lkdGg9IjYxMC42MjUiPjxkaXYgc3R5bGU9ImRpc3BsYXk6IHRhYmxlLWNlbGw7IHdoaXRlLXNwYWNlOiBub3dyYXA7IGxpbmUtaGVpZ2h0OiAxLjU7IG1heC13aWR0aDogNzAwcHg7IHRleHQtYWxpZ246IGNlbnRlcjsiIHhtbG5zPSJodHRwOi8vd3d3LnczLm9yZy8xOTk5L3hodG1sIj48c3BhbiBzdHlsZT0iIiBjbGFzcz0ibm9kZUxhYmVsIG1hcmtkb3duLW5vZGUtbGFiZWwiPjxwPitGdXR1cmUmbHQ7VXNlckNyZWRlbnRpYWwmZ3Q7IHNpZ25JbldpdGhFbWFpbEFuZFBhc3N3b3JkKFN0cmluZyBlbWFpbCwgU3RyaW5nIHBhc3N3b3JkKTwvcD48L3NwYW4+PC9kaXY+PC9mb3JlaWduT2JqZWN0PjwvZz48ZyB0cmFuc2Zvcm09InRyYW5zbGF0ZSgwLDEyKSIgc3R5bGU9IiIgY2xhc3M9ImxhYmVsIj48Zm9yZWlnbk9iamVjdCBoZWlnaHQ9IjI0IiB3aWR0aD0iNjQ3Ljc1Ij48ZGl2IHN0eWxlPSJkaXNwbGF5OiB0YWJsZS1jZWxsOyB3aGl0ZS1zcGFjZTogbm93cmFwOyBsaW5lLWhlaWdodDogMS41OyBtYXgtd2lkdGg6IDczM3B4OyB0ZXh0LWFsaWduOiBjZW50ZXI7IiB4bWxucz0iaHR0cDovL3d3dy53My5vcmcvMTk5OS94aHRtbCI+PHNwYW4gc3R5bGU9IiIgY2xhc3M9Im5vZGVMYWJlbCBtYXJrZG93bi1ub2RlLWxhYmVsIj48cD4rRnV0dXJlJmx0O1VzZXJDcmVkZW50aWFsJmd0OyBjcmVhdGVVc2VyV2l0aEVtYWlsQW5kUGFzc3dvcmQoU3RyaW5nIGVtYWlsLCBTdHJpbmcgcGFzc3dvcmQpPC9wPjwvc3Bhbj48L2Rpdj48L2ZvcmVpZ25PYmplY3Q+PC9nPjxnIHRyYW5zZm9ybT0idHJhbnNsYXRlKDAsMzYpIiBzdHlsZT0iIiBjbGFzcz0ibGFiZWwiPjxmb3JlaWduT2JqZWN0IGhlaWdodD0iMjQiIHdpZHRoPSIxNzIuNSI+PGRpdiBzdHlsZT0iZGlzcGxheTogdGFibGUtY2VsbDsgd2hpdGUtc3BhY2U6IG5vd3JhcDsgbGluZS1oZWlnaHQ6IDEuNTsgbWF4LXdpZHRoOiAyNzBweDsgdGV4dC1hbGlnbjogY2VudGVyOyIgeG1sbnM9Imh0dHA6Ly93d3cudzMub3JnLzE5OTkveGh0bWwiPjxzcGFuIHN0eWxlPSIiIGNsYXNzPSJub2RlTGFiZWwgbWFya2Rvd24tbm9kZS1sYWJlbCI+PHA+K0Z1dHVyZSZsdDt2b2lkJmd0OyBzaWduT3V0KCk8L3A+PC9zcGFuPjwvZGl2PjwvZm9yZWlnbk9iamVjdD48L2c+PC9nPjxnIHN0eWxlPSIiIGNsYXNzPSJkaXZpZGVyIj48cGF0aCBzdHlsZT0iIiBmaWxsPSJub25lIiBzdHJva2Utd2lkdGg9IjEuMyIgc3Ryb2tlPSIjOTk5IiBkPSJNLTM2MC43NDM3NDM4OTY0ODQ0IC00OCBDLTEzNS41MzM3NzYyMzg1ODM3IC00OCwgODkuNjc2MTkxNDE5MzE2OTggLTQ4LCAzNjAuNzQzNzQzODk2NDg0NCAtNDggTS0zNjAuNzQzNzQzODk2NDg0NCAtNDggQy0xNDQuODc2MzQxNjU1NzQwMDIgLTQ4LCA3MC45OTEwNjA1ODUwMDQzMyAtNDgsIDM2MC43NDM3NDM4OTY0ODQ0IC00OCI+PC9wYXRoPjwvZz48ZyBzdHlsZT0iIiBjbGFzcz0iZGl2aWRlciI+PHBhdGggc3R5bGU9IiIgZmlsbD0ibm9uZSIgc3Ryb2tlLXdpZHRoPSIxLjMiIHN0cm9rZT0iIzk5OSIgZD0iTS0zNjAuNzQzNzQzODk2NDg0NCAwIEMtMTA5LjExOTI4ODk2NDkyMjM2IDAsIDE0Mi41MDUxNjU5NjY2Mzk2NSAwLCAzNjAuNzQzNzQzODk2NDg0NCAwIE0tMzYwLjc0Mzc0Mzg5NjQ4NDQgMCBDLTE0OS44MjQxNTI3ODIzMDQ3NiAwLCA2MS4wOTU0MzgzMzE4NzQ4NDYgMCwgMzYwLjc0Mzc0Mzg5NjQ4NDQgMCI+PC9wYXRoPjwvZz48L2c+PGcgdHJhbnNmb3JtPSJ0cmFuc2xhdGUoMzQ0NS4xMjk2NjE1NjAwNTg2LCAxMTI5LjU5OTk5OTQyNzc5NTQpIiBpZD0iY2xhc3NJZC1GaXJlYmFzZURhdGFiYXNlLTM5OSIgY2xhc3M9Im5vZGUgZGVmYXVsdCI+PGcgY2xhc3M9ImJhc2ljIGxhYmVsLWNvbnRhaW5lciI+PHBhdGggc3R5bGU9IiIgZmlsbD0iI2VlZSIgc3Ryb2tlLXdpZHRoPSIwIiBzdHJva2U9Im5vbmUiIGQ9Ik0tMjMwLjI5Mzc2MjIwNzAzMTI1IC0xMjMgTDIzMC4yOTM3NjIyMDcwMzEyNSAtMTIzIEwyMzAuMjkzNzYyMjA3MDMxMjUgMTIzIEwtMjMwLjI5Mzc2MjIwNzAzMTI1IDEyMyI+PC9wYXRoPjxwYXRoIHN0eWxlPSIiIGZpbGw9Im5vbmUiIHN0cm9rZS13aWR0aD0iMS4zIiBzdHJva2U9IiM5OTkiIGQ9Ik0tMjMwLjI5Mzc2MjIwNzAzMTI1IC0xMjMgQy05Ni41MzgxNzE0NDU3NzYxMyAtMTIzLCAzNy4yMTc0MTkzMTU0Nzg5OSAtMTIzLCAyMzAuMjkzNzYyMjA3MDMxMjUgLTEyMyBNLTIzMC4yOTM3NjIyMDcwMzEyNSAtMTIzIEMtNzcuOTAyMzY3MjIyNzQ1NTEgLTEyMywgNzQuNDg5MDI3NzYxNTQwMjMgLTEyMywgMjMwLjI5Mzc2MjIwNzAzMTI1IC0xMjMgTTIzMC4yOTM3NjIyMDcwMzEyNSAtMTIzIEMyMzAuMjkzNzYyMjA3MDMxMjUgLTI1LjkxNTU3MzE3NzQ0MjE1NSwgMjMwLjI5Mzc2MjIwNzAzMTI1IDcxLjE2ODg1MzY0NTExNTY5LCAyMzAuMjkzNzYyMjA3MDMxMjUgMTIzIE0yMzAuMjkzNzYyMjA3MDMxMjUgLTEyMyBDMjMwLjI5Mzc2MjIwNzAzMTI1IC02Ny4xMDY3MzQ0NjI2NjkyNywgMjMwLjI5Mzc2MjIwNzAzMTI1IC0xMS4yMTM0Njg5MjUzMzg1MTgsIDIzMC4yOTM3NjIyMDcwMzEyNSAxMjMgTTIzMC4yOTM3NjIyMDcwMzEyNSAxMjMgQzczLjAzOTY1OTA4MTI1NDkxIDEyMywgLTg0LjIxNDQ0NDA0NDUyMTQzIDEyMywgLTIzMC4yOTM3NjIyMDcwMzEyNSAxMjMgTTIzMC4yOTM3NjIyMDcwMzEyNSAxMjMgQzEyNi4yMDkxNjgzNzQwMjc3NSAxMjMsIDIyLjEyNDU3NDU0MTAyNDI2IDEyMywgLTIzMC4yOTM3NjIyMDcwMzEyNSAxMjMgTS0yMzAuMjkzNzYyMjA3MDMxMjUgMTIzIEMtMjMwLjI5Mzc2MjIwNzAzMTI1IDMxLjI2MjA2NDk2MzEwODg0LCAtMjMwLjI5Mzc2MjIwNzAzMTI1IC02MC40NzU4NzAwNzM3ODIzMiwgLTIzMC4yOTM3NjIyMDcwMzEyNSAtMTIzIE0tMjMwLjI5Mzc2MjIwNzAzMTI1IDEyMyBDLTIzMC4yOTM3NjIyMDcwMzEyNSA2Mi42NDE5NDQ4MDcyMTU0MjQsIC0yMzAuMjkzNzYyMjA3MDMxMjUgMi4yODM4ODk2MTQ0MzA4NDgsIC0yMzAuMjkzNzYyMjA3MDMxMjUgLTEyMyI+PC9wYXRoPjwvZz48ZyB0cmFuc2Zvcm09InRyYW5zbGF0ZSgwLCAtOTkpIiBjbGFzcz0iYW5ub3RhdGlvbi1ncm91cCB0ZXh0Ij48L2c+PGcgdHJhbnNmb3JtPSJ0cmFuc2xhdGUoLTY1LjgyNTAwNDU3NzYzNjcyLCAtOTkpIiBjbGFzcz0ibGFiZWwtZ3JvdXAgdGV4dCI+PGcgdHJhbnNmb3JtPSJ0cmFuc2xhdGUoMCwtMTIpIiBzdHlsZT0iZm9udC13ZWlnaHQ6IGJvbGRlciIgY2xhc3M9ImxhYmVsIj48Zm9yZWlnbk9iamVjdCBoZWlnaHQ9IjI0IiB3aWR0aD0iMTMxLjY1MDAwOTE1NTI3MzQ0Ij48ZGl2IHN0eWxlPSJkaXNwbGF5OiB0YWJsZS1jZWxsOyB3aGl0ZS1zcGFjZTogbm93cmFwOyBsaW5lLWhlaWdodDogMS41OyBtYXgtd2lkdGg6IDE3NHB4OyB0ZXh0LWFsaWduOiBjZW50ZXI7IiB4bWxucz0iaHR0cDovL3d3dy53My5vcmcvMTk5OS94aHRtbCI+PHNwYW4gc3R5bGU9IiIgY2xhc3M9Im5vZGVMYWJlbCBtYXJrZG93bi1ub2RlLWxhYmVsIj48cD5GaXJlYmFzZURhdGFiYXNlPC9wPjwvc3Bhbj48L2Rpdj48L2ZvcmVpZ25PYmplY3Q+PC9nPjwvZz48ZyB0cmFuc2Zvcm09InRyYW5zbGF0ZSgtMjE4LjI5Mzc2MjIwNzAzMTI1LCAtNTEpIiBjbGFzcz0ibWVtYmVycy1ncm91cCB0ZXh0Ij48L2c+PGcgdHJhbnNmb3JtPSJ0cmFuc2xhdGUoLTIxOC4yOTM3NjIyMDcwMzEyNSwgLTIxKSIgY2xhc3M9Im1ldGhvZHMtZ3JvdXAgdGV4dCI+PGcgdHJhbnNmb3JtPSJ0cmFuc2xhdGUoMCwtMTIpIiBzdHlsZT0iIiBjbGFzcz0ibGFiZWwiPjxmb3JlaWduT2JqZWN0IGhlaWdodD0iMjQiIHdpZHRoPSIyNjIuNSI+PGRpdiBzdHlsZT0iZGlzcGxheTogdGFibGUtY2VsbDsgd2hpdGUtc3BhY2U6IG5vd3JhcDsgbGluZS1oZWlnaHQ6IDEuNTsgbWF4LXdpZHRoOiAzMTRweDsgdGV4dC1hbGlnbjogY2VudGVyOyIgeG1sbnM9Imh0dHA6Ly93d3cudzMub3JnLzE5OTkveGh0bWwiPjxzcGFuIHN0eWxlPSIiIGNsYXNzPSJub2RlTGFiZWwgbWFya2Rvd24tbm9kZS1sYWJlbCI+PHA+K0RhdGFiYXNlUmVmZXJlbmNlIHJlZihTdHJpbmcgcGF0aCk8L3A+PC9zcGFuPjwvZGl2PjwvZm9yZWlnbk9iamVjdD48L2c+PGcgdHJhbnNmb3JtPSJ0cmFuc2xhdGUoMCwxMikiIHN0eWxlPSIiIGNsYXNzPSJsYWJlbCI+PGZvcmVpZ25PYmplY3QgaGVpZ2h0PSIyNCIgd2lkdGg9IjI3Ni41Ij48ZGl2IHN0eWxlPSJkaXNwbGF5OiB0YWJsZS1jZWxsOyB3aGl0ZS1zcGFjZTogbm93cmFwOyBsaW5lLWhlaWdodDogMS41OyBtYXgtd2lkdGg6IDMyOHB4OyB0ZXh0LWFsaWduOiBjZW50ZXI7IiB4bWxucz0iaHR0cDovL3d3dy53My5vcmcvMTk5OS94aHRtbCI+PHNwYW4gc3R5bGU9IiIgY2xhc3M9Im5vZGVMYWJlbCBtYXJrZG93bi1ub2RlLWxhYmVsIj48cD4rRGF0YWJhc2VSZWZlcmVuY2UgY2hpbGQoU3RyaW5nIHBhdGgpPC9wPjwvc3Bhbj48L2Rpdj48L2ZvcmVpZ25PYmplY3Q+PC9nPjxnIHRyYW5zZm9ybT0idHJhbnNsYXRlKDAsMzYpIiBzdHlsZT0iIiBjbGFzcz0ibGFiZWwiPjxmb3JlaWduT2JqZWN0IGhlaWdodD0iMjQiIHdpZHRoPSIyMDguOTAwMDA5MTU1MjczNDQiPjxkaXYgc3R5bGU9ImRpc3BsYXk6IHRhYmxlLWNlbGw7IHdoaXRlLXNwYWNlOiBub3dyYXA7IGxpbmUtaGVpZ2h0OiAxLjU7IG1heC13aWR0aDogMzA2cHg7IHRleHQtYWxpZ246IGNlbnRlcjsiIHhtbG5zPSJodHRwOi8vd3d3LnczLm9yZy8xOTk5L3hodG1sIj48c3BhbiBzdHlsZT0iIiBjbGFzcz0ibm9kZUxhYmVsIG1hcmtkb3duLW5vZGUtbGFiZWwiPjxwPitGdXR1cmUmbHQ7RGF0YVNuYXBzaG90Jmd0OyBnZXQoKTwvcD48L3NwYW4+PC9kaXY+PC9mb3JlaWduT2JqZWN0PjwvZz48ZyB0cmFuc2Zvcm09InRyYW5zbGF0ZSgwLDYwKSIgc3R5bGU9IiIgY2xhc3M9ImxhYmVsIj48Zm9yZWlnbk9iamVjdCBoZWlnaHQ9IjI0IiB3aWR0aD0iMjM4LjA1MDAwMzA1MTc1NzgiPjxkaXYgc3R5bGU9ImRpc3BsYXk6IHRhYmxlLWNlbGw7IHdoaXRlLXNwYWNlOiBub3dyYXA7IGxpbmUtaGVpZ2h0OiAxLjU7IG1heC13aWR0aDogMzMwcHg7IHRleHQtYWxpZ246IGNlbnRlcjsiIHhtbG5zPSJodHRwOi8vd3d3LnczLm9yZy8xOTk5L3hodG1sIj48c3BhbiBzdHlsZT0iIiBjbGFzcz0ibm9kZUxhYmVsIG1hcmtkb3duLW5vZGUtbGFiZWwiPjxwPitGdXR1cmUmbHQ7dm9pZCZndDsgc2V0KE9iamVjdD8gdmFsdWUpPC9wPjwvc3Bhbj48L2Rpdj48L2ZvcmVpZ25PYmplY3Q+PC9nPjxnIHRyYW5zZm9ybT0idHJhbnNsYXRlKDAsODQpIiBzdHlsZT0iIiBjbGFzcz0ibGFiZWwiPjxmb3JlaWduT2JqZWN0IGhlaWdodD0iMjQiIHdpZHRoPSIzNzAuNzYyNTEyMjA3MDMxMjUiPjxkaXYgc3R5bGU9ImRpc3BsYXk6IHRhYmxlLWNlbGw7IHdoaXRlLXNwYWNlOiBub3dyYXA7IGxpbmUtaGVpZ2h0OiAxLjU7IG1heC13aWR0aDogNTA0cHg7IHRleHQtYWxpZ246IGNlbnRlcjsiIHhtbG5zPSJodHRwOi8vd3d3LnczLm9yZy8xOTk5L3hodG1sIj48c3BhbiBzdHlsZT0iIiBjbGFzcz0ibm9kZUxhYmVsIG1hcmtkb3duLW5vZGUtbGFiZWwiPjxwPitGdXR1cmUmbHQ7dm9pZCZndDsgdXBkYXRlKE1hcCZsdDtTdHJpbmcsIE9iamVjdD8mZ3Q7IHZhbHVlcyk8L3A+PC9zcGFuPjwvZGl2PjwvZm9yZWlnbk9iamVjdD48L2c+PGcgdHJhbnNmb3JtPSJ0cmFuc2xhdGUoMCwxMDgpIiBzdHlsZT0iIiBjbGFzcz0ibGFiZWwiPjxmb3JlaWduT2JqZWN0IGhlaWdodD0iMjQiIHdpZHRoPSIxNzIuMTg3NSI+PGRpdiBzdHlsZT0iZGlzcGxheTogdGFibGUtY2VsbDsgd2hpdGUtc3BhY2U6IG5vd3JhcDsgbGluZS1oZWlnaHQ6IDEuNTsgbWF4LXdpZHRoOiAyNjdweDsgdGV4dC1hbGlnbjogY2VudGVyOyIgeG1sbnM9Imh0dHA6Ly93d3cudzMub3JnLzE5OTkveGh0bWwiPjxzcGFuIHN0eWxlPSIiIGNsYXNzPSJub2RlTGFiZWwgbWFya2Rvd24tbm9kZS1sYWJlbCI+PHA+K0Z1dHVyZSZsdDt2b2lkJmd0OyByZW1vdmUoKTwvcD48L3NwYW4+PC9kaXY+PC9mb3JlaWduT2JqZWN0PjwvZz48L2c+PGcgc3R5bGU9IiIgY2xhc3M9ImRpdmlkZXIiPjxwYXRoIHN0eWxlPSIiIGZpbGw9Im5vbmUiIHN0cm9rZS13aWR0aD0iMS4zIiBzdHJva2U9IiM5OTkiIGQ9Ik0tMjMwLjI5Mzc2MjIwNzAzMTI1IC03NSBDLTU5LjAyMDg2Mjg2Njc0OTg2NiAtNzUsIDExMi4yNTIwMzY0NzM1MzE1MiAtNzUsIDIzMC4yOTM3NjIyMDcwMzEyNSAtNzUgTS0yMzAuMjkzNzYyMjA3MDMxMjUgLTc1IEMtMTMwLjc3ODQ4NzU3Njg3NzQgLTc1LCAtMzEuMjYzMjEyOTQ2NzIzNiAtNzUsIDIzMC4yOTM3NjIyMDcwMzEyNSAtNzUiPjwvcGF0aD48L2c+PGcgc3R5bGU9IiIgY2xhc3M9ImRpdmlkZXIiPjxwYXRoIHN0eWxlPSIiIGZpbGw9Im5vbmUiIHN0cm9rZS13aWR0aD0iMS4zIiBzdHJva2U9IiM5OTkiIGQ9Ik0tMjMwLjI5Mzc2MjIwNzAzMTI1IC01MSBDLTEzMC43ODY3NjEzNDkxNjMxIC01MSwgLTMxLjI3OTc2MDQ5MTI5NDkyMyAtNTEsIDIzMC4yOTM3NjIyMDcwMzEyNSAtNTEgTS0yMzAuMjkzNzYyMjA3MDMxMjUgLTUxIEMtNDYuNTY4NDkyMTAxMjI5MTcgLTUxLCAxMzcuMTU2Nzc4MDA0NTcyOSAtNTEsIDIzMC4yOTM3NjIyMDcwMzEyNSAtNTEiPjwvcGF0aD48L2c+PC9nPjxnIHRyYW5zZm9ybT0idHJhbnNsYXRlKDI3OTkuNzI5NjM3MTQ1OTk2LCAzMjguMzk5OTk5NjE4NTMwMykiIGlkPSJjbGFzc0lkLVVzZXItNDAwIiBjbGFzcz0ibm9kZSBkZWZhdWx0Ij48ZyBjbGFzcz0iYmFzaWMgbGFiZWwtY29udGFpbmVyIj48cGF0aCBzdHlsZT0iIiBmaWxsPSIjZWVlIiBzdHJva2Utd2lkdGg9IjAiIHN0cm9rZT0ibm9uZSIgZD0iTS05Ni4wMzc0OTg0NzQxMjExIC04NCBMOTYuMDM3NDk4NDc0MTIxMSAtODQgTDk2LjAzNzQ5ODQ3NDEyMTEgODQgTC05Ni4wMzc0OTg0NzQxMjExIDg0Ij48L3BhdGg+PHBhdGggc3R5bGU9IiIgZmlsbD0ibm9uZSIgc3Ryb2tlLXdpZHRoPSIxLjMiIHN0cm9rZT0iIzk5OSIgZD0iTS05Ni4wMzc0OTg0NzQxMjExIC04NCBDLTQ1LjUwMDU1MjIyMjYzNDQyIC04NCwgNS4wMzYzOTQwMjg4NTIyNTcgLTg0LCA5Ni4wMzc0OTg0NzQxMjExIC04NCBNLTk2LjAzNzQ5ODQ3NDEyMTEgLTg0IEMtNDcuNjAyMDYxODk3NjcyOSAtODQsIDAuODMzMzc0Njc4Nzc1MyAtODQsIDk2LjAzNzQ5ODQ3NDEyMTEgLTg0IE05Ni4wMzc0OTg0NzQxMjExIC04NCBDOTYuMDM3NDk4NDc0MTIxMSAtNDIuNTAxMTE3OTM0MzUxNDcsIDk2LjAzNzQ5ODQ3NDEyMTEgLTEuMDAyMjM1ODY4NzAyOTM5NiwgOTYuMDM3NDk4NDc0MTIxMSA4NCBNOTYuMDM3NDk4NDc0MTIxMSAtODQgQzk2LjAzNzQ5ODQ3NDEyMTEgLTQ1Ljg5OTAzMDI0MDEzNDQ0LCA5Ni4wMzc0OTg0NzQxMjExIC03Ljc5ODA2MDQ4MDI2ODg3MywgOTYuMDM3NDk4NDc0MTIxMSA4NCBNOTYuMDM3NDk4NDc0MTIxMSA4NCBDMjEuMzUxNjAyNjUzMjU5MzYzIDg0LCAtNTMuMzM0MjkzMTY3NjAyMzcgODQsIC05Ni4wMzc0OTg0NzQxMjExIDg0IE05Ni4wMzc0OTg0NzQxMjExIDg0IEMyMy4zNDgyMjkzNDAxMzc3MiA4NCwgLTQ5LjM0MTAzOTc5Mzg0NTY1IDg0LCAtOTYuMDM3NDk4NDc0MTIxMSA4NCBNLTk2LjAzNzQ5ODQ3NDEyMTEgODQgQy05Ni4wMzc0OTg0NzQxMjExIDE5LjQyMTc3MjQwMTExMDQwMiwgLTk2LjAzNzQ5ODQ3NDEyMTEgLTQ1LjE1NjQ1NTE5Nzc3OTE5NSwgLTk2LjAzNzQ5ODQ3NDEyMTEgLTg0IE0tOTYuMDM3NDk4NDc0MTIxMSA4NCBDLTk2LjAzNzQ5ODQ3NDEyMTEgMjkuNDc5NzIwNDA2Mjg2NzAyLCAtOTYuMDM3NDk4NDc0MTIxMSAtMjUuMDQwNTU5MTg3NDI2NTk1LCAtOTYuMDM3NDk4NDc0MTIxMSAtODQiPjwvcGF0aD48L2c+PGcgdHJhbnNmb3JtPSJ0cmFuc2xhdGUoMCwgLTYwKSIgY2xhc3M9ImFubm90YXRpb24tZ3JvdXAgdGV4dCI+PC9nPjxnIHRyYW5zZm9ybT0idHJhbnNsYXRlKC0xNi44ODc1MDA3NjI5Mzk0NTMsIC02MCkiIGNsYXNzPSJsYWJlbC1ncm91cCB0ZXh0Ij48ZyB0cmFuc2Zvcm09InRyYW5zbGF0ZSgwLC0xMikiIHN0eWxlPSJmb250LXdlaWdodDogYm9sZGVyIiBjbGFzcz0ibGFiZWwiPjxmb3JlaWduT2JqZWN0IGhlaWdodD0iMjQiIHdpZHRoPSIzMy43NzUwMDE1MjU4Nzg5MDYiPjxkaXYgc3R5bGU9ImRpc3BsYXk6IHRhYmxlLWNlbGw7IHdoaXRlLXNwYWNlOiBub3dyYXA7IGxpbmUtaGVpZ2h0OiAxLjU7IG1heC13aWR0aDogODNweDsgdGV4dC1hbGlnbjogY2VudGVyOyIgeG1sbnM9Imh0dHA6Ly93d3cudzMub3JnLzE5OTkveGh0bWwiPjxzcGFuIHN0eWxlPSIiIGNsYXNzPSJub2RlTGFiZWwgbWFya2Rvd24tbm9kZS1sYWJlbCI+PHA+VXNlcjwvcD48L3NwYW4+PC9kaXY+PC9mb3JlaWduT2JqZWN0PjwvZz48L2c+PGcgdHJhbnNmb3JtPSJ0cmFuc2xhdGUoLTg0LjAzNzQ5ODQ3NDEyMTEsIC0xMikiIGNsYXNzPSJtZW1iZXJzLWdyb3VwIHRleHQiPjxnIHRyYW5zZm9ybT0idHJhbnNsYXRlKDAsLTEyKSIgc3R5bGU9IiIgY2xhc3M9ImxhYmVsIj48Zm9yZWlnbk9iamVjdCBoZWlnaHQ9IjI0IiB3aWR0aD0iNzcuMDI1MDAxNTI1ODc4OSI+PGRpdiBzdHlsZT0iZGlzcGxheTogdGFibGUtY2VsbDsgd2hpdGUtc3BhY2U6IG5vd3JhcDsgbGluZS1oZWlnaHQ6IDEuNTsgbWF4LXdpZHRoOiAxMzZweDsgdGV4dC1hbGlnbjogY2VudGVyOyIgeG1sbnM9Imh0dHA6Ly93d3cudzMub3JnLzE5OTkveGh0bWwiPjxzcGFuIHN0eWxlPSIiIGNsYXNzPSJub2RlTGFiZWwgbWFya2Rvd24tbm9kZS1sYWJlbCI+PHA+K1N0cmluZyB1aWQ8L3A+PC9zcGFuPjwvZGl2PjwvZm9yZWlnbk9iamVjdD48L2c+PGcgdHJhbnNmb3JtPSJ0cmFuc2xhdGUoMCwxMikiIHN0eWxlPSIiIGNsYXNzPSJsYWJlbCI+PGZvcmVpZ25PYmplY3QgaGVpZ2h0PSIyNCIgd2lkdGg9IjEwMC4zNzUiPjxkaXYgc3R5bGU9ImRpc3BsYXk6IHRhYmxlLWNlbGw7IHdoaXRlLXNwYWNlOiBub3dyYXA7IGxpbmUtaGVpZ2h0OiAxLjU7IG1heC13aWR0aDogMTU5cHg7IHRleHQtYWxpZ246IGNlbnRlcjsiIHhtbG5zPSJodHRwOi8vd3d3LnczLm9yZy8xOTk5L3hodG1sIj48c3BhbiBzdHlsZT0iIiBjbGFzcz0ibm9kZUxhYmVsIG1hcmtkb3duLW5vZGUtbGFiZWwiPjxwPitTdHJpbmc/IGVtYWlsPC9wPjwvc3Bhbj48L2Rpdj48L2ZvcmVpZ25PYmplY3Q+PC9nPjxnIHRyYW5zZm9ybT0idHJhbnNsYXRlKDAsMzYpIiBzdHlsZT0iIiBjbGFzcz0ibGFiZWwiPjxmb3JlaWduT2JqZWN0IGhlaWdodD0iMjQiIHdpZHRoPSIxNTEuMTg3NSI+PGRpdiBzdHlsZT0iZGlzcGxheTogdGFibGUtY2VsbDsgd2hpdGUtc3BhY2U6IG5vd3JhcDsgbGluZS1oZWlnaHQ6IDEuNTsgbWF4LXdpZHRoOiAyMTJweDsgdGV4dC1hbGlnbjogY2VudGVyOyIgeG1sbnM9Imh0dHA6Ly93d3cudzMub3JnLzE5OTkveGh0bWwiPjxzcGFuIHN0eWxlPSIiIGNsYXNzPSJub2RlTGFiZWwgbWFya2Rvd24tbm9kZS1sYWJlbCI+PHA+K1N0cmluZz8gZGlzcGxheU5hbWU8L3A+PC9zcGFuPjwvZGl2PjwvZm9yZWlnbk9iamVjdD48L2c+PC9nPjxnIHRyYW5zZm9ybT0idHJhbnNsYXRlKC04NC4wMzc0OTg0NzQxMjExLCA4NCkiIGNsYXNzPSJtZXRob2RzLWdyb3VwIHRleHQiPjwvZz48ZyBzdHlsZT0iIiBjbGFzcz0iZGl2aWRlciI+PHBhdGggc3R5bGU9IiIgZmlsbD0ibm9uZSIgc3Ryb2tlLXdpZHRoPSIxLjMiIHN0cm9rZT0iIzk5OSIgZD0iTS05Ni4wMzc0OTg0NzQxMjExIC0zNiBDLTI2LjE0MzQwNjE5ODc5OTk1IC0zNiwgNDMuNzUwNjg2MDc2NTIxMTkgLTM2LCA5Ni4wMzc0OTg0NzQxMjExIC0zNiBNLTk2LjAzNzQ5ODQ3NDEyMTEgLTM2IEMtNTAuMDc1MjAyNjM3OTI4Mzg1IC0zNiwgLTQuMTEyOTA2ODAxNzM1Njc2IC0zNiwgOTYuMDM3NDk4NDc0MTIxMSAtMzYiPjwvcGF0aD48L2c+PGcgc3R5bGU9IiIgY2xhc3M9ImRpdmlkZXIiPjxwYXRoIHN0eWxlPSIiIGZpbGw9Im5vbmUiIHN0cm9rZS13aWR0aD0iMS4zIiBzdHJva2U9IiM5OTkiIGQ9Ik0tOTYuMDM3NDk4NDc0MTIxMSA2MCBDLTM5LjU0NTgyMTU2OTQ3ODI4NSA2MCwgMTYuOTQ1ODU1MzM1MTY0NTI0IDYwLCA5Ni4wMzc0OTg0NzQxMjExIDYwIE0tOTYuMDM3NDk4NDc0MTIxMSA2MCBDLTQ4LjgzMDcyMjMxNjc4NjMzIDYwLCAtMS42MjM5NDYxNTk0NTE1NjMyIDYwLCA5Ni4wMzc0OTg0NzQxMjExIDYwIj48L3BhdGg+PC9nPjwvZz48ZyB0cmFuc2Zvcm09InRyYW5zbGF0ZSgzOTU1LjkyMzQyMzc2NzA5LCAyMDI3LjA5OTk5ODk1MDk1ODMpIiBpZD0iY2xhc3NJZC1Ib3RlbC00MDEiIGNsYXNzPSJub2RlIGRlZmF1bHQiPjxnIGNsYXNzPSJiYXNpYyBsYWJlbC1jb250YWluZXIiPjxwYXRoIHN0eWxlPSIiIGZpbGw9IiNlZWUiIHN0cm9rZS13aWR0aD0iMCIgc3Ryb2tlPSJub25lIiBkPSJNLTEwMC4zNzUgLTE2OCBMMTAwLjM3NSAtMTY4IEwxMDAuMzc1IDE2OCBMLTEwMC4zNzUgMTY4Ij48L3BhdGg+PHBhdGggc3R5bGU9IiIgZmlsbD0ibm9uZSIgc3Ryb2tlLXdpZHRoPSIxLjMiIHN0cm9rZT0iIzk5OSIgZD0iTS0xMDAuMzc1IC0xNjggQy01Ny40MTQ4Nzk4OTUxNDAwMSAtMTY4LCAtMTQuNDU0NzU5NzkwMjgwMDIyIC0xNjgsIDEwMC4zNzUgLTE2OCBNLTEwMC4zNzUgLTE2OCBDLTUyLjQ4MzIwMTAxMDAzMjgxNSAtMTY4LCAtNC41OTE0MDIwMjAwNjU2MyAtMTY4LCAxMDAuMzc1IC0xNjggTTEwMC4zNzUgLTE2OCBDMTAwLjM3NSAtNzcuMTcxODQ5MTc1NDE3OTksIDEwMC4zNzUgMTMuNjU2MzAxNjQ5MTY0MDIxLCAxMDAuMzc1IDE2OCBNMTAwLjM3NSAtMTY4IEMxMDAuMzc1IC0zOC42NDQzMjgyOTIzMTMxNiwgMTAwLjM3NSA5MC43MTEzNDM0MTUzNzM2OCwgMTAwLjM3NSAxNjggTTEwMC4zNzUgMTY4IEMyNS4zNjQwMjEzNjMzMzQxOSAxNjgsIC00OS42NDY5NTcyNzMzMzE2MiAxNjgsIC0xMDAuMzc1IDE2OCBNMTAwLjM3NSAxNjggQzI2Ljg1NTM0NzMwODgxMzM1IDE2OCwgLTQ2LjY2NDMwNTM4MjM3MzMgMTY4LCAtMTAwLjM3NSAxNjggTS0xMDAuMzc1IDE2OCBDLTEwMC4zNzUgNTEuNjE0MzY1NDI3NDQzMDYsIC0xMDAuMzc1IC02NC43NzEyNjkxNDUxMTM4OCwgLTEwMC4zNzUgLTE2OCBNLTEwMC4zNzUgMTY4IEMtMTAwLjM3NSA2Ni41NzYxNjQ3NzgzOTYwOCwgLTEwMC4zNzUgLTM0Ljg0NzY3MDQ0MzIwNzg0NiwgLTEwMC4zNzUgLTE2OCI+PC9wYXRoPjwvZz48ZyB0cmFuc2Zvcm09InRyYW5zbGF0ZSgwLCAtMTQ0KSIgY2xhc3M9ImFubm90YXRpb24tZ3JvdXAgdGV4dCI+PC9nPjxnIHRyYW5zZm9ybT0idHJhbnNsYXRlKC0yMC4xMjUsIC0xNDQpIiBjbGFzcz0ibGFiZWwtZ3JvdXAgdGV4dCI+PGcgdHJhbnNmb3JtPSJ0cmFuc2xhdGUoMCwtMTIpIiBzdHlsZT0iZm9udC13ZWlnaHQ6IGJvbGRlciIgY2xhc3M9ImxhYmVsIj48Zm9yZWlnbk9iamVjdCBoZWlnaHQ9IjI0IiB3aWR0aD0iNDAuMjUiPjxkaXYgc3R5bGU9ImRpc3BsYXk6IHRhYmxlLWNlbGw7IHdoaXRlLXNwYWNlOiBub3dyYXA7IGxpbmUtaGVpZ2h0OiAxLjU7IG1heC13aWR0aDogODhweDsgdGV4dC1hbGlnbjogY2VudGVyOyIgeG1sbnM9Imh0dHA6Ly93d3cudzMub3JnLzE5OTkveGh0bWwiPjxzcGFuIHN0eWxlPSIiIGNsYXNzPSJub2RlTGFiZWwgbWFya2Rvd24tbm9kZS1sYWJlbCI+PHA+SG90ZWw8L3A+PC9zcGFuPjwvZGl2PjwvZm9yZWlnbk9iamVjdD48L2c+PC9nPjxnIHRyYW5zZm9ybT0idHJhbnNsYXRlKC04OC4zNzUsIC05NikiIGNsYXNzPSJtZW1iZXJzLWdyb3VwIHRleHQiPjxnIHRyYW5zZm9ybT0idHJhbnNsYXRlKDAsLTEyKSIgc3R5bGU9IiIgY2xhc3M9ImxhYmVsIj48Zm9yZWlnbk9iamVjdCBoZWlnaHQ9IjI0IiB3aWR0aD0iNjguMjg3NDk4NDc0MTIxMSI+PGRpdiBzdHlsZT0iZGlzcGxheTogdGFibGUtY2VsbDsgd2hpdGUtc3BhY2U6IG5vd3JhcDsgbGluZS1oZWlnaHQ6IDEuNTsgbWF4LXdpZHRoOiAxMjdweDsgdGV4dC1hbGlnbjogY2VudGVyOyIgeG1sbnM9Imh0dHA6Ly93d3cudzMub3JnLzE5OTkveGh0bWwiPjxzcGFuIHN0eWxlPSIiIGNsYXNzPSJub2RlTGFiZWwgbWFya2Rvd24tbm9kZS1sYWJlbCI+PHA+K1N0cmluZyBpZDwvcD48L3NwYW4+PC9kaXY+PC9mb3JlaWduT2JqZWN0PjwvZz48ZyB0cmFuc2Zvcm09InRyYW5zbGF0ZSgwLDEyKSIgc3R5bGU9IiIgY2xhc3M9ImxhYmVsIj48Zm9yZWlnbk9iamVjdCBoZWlnaHQ9IjI0IiB3aWR0aD0iOTMuOTYyNTAxNTI1ODc4OSI+PGRpdiBzdHlsZT0iZGlzcGxheTogdGFibGUtY2VsbDsgd2hpdGUtc3BhY2U6IG5vd3JhcDsgbGluZS1oZWlnaHQ6IDEuNTsgbWF4LXdpZHRoOiAxNTNweDsgdGV4dC1hbGlnbjogY2VudGVyOyIgeG1sbnM9Imh0dHA6Ly93d3cudzMub3JnLzE5OTkveGh0bWwiPjxzcGFuIHN0eWxlPSIiIGNsYXNzPSJub2RlTGFiZWwgbWFya2Rvd24tbm9kZS1sYWJlbCI+PHA+K1N0cmluZyBuYW1lPC9wPjwvc3Bhbj48L2Rpdj48L2ZvcmVpZ25PYmplY3Q+PC9nPjxnIHRyYW5zZm9ybT0idHJhbnNsYXRlKDAsMzYpIiBzdHlsZT0iIiBjbGFzcz0ibGFiZWwiPjxmb3JlaWduT2JqZWN0IGhlaWdodD0iMjQiIHdpZHRoPSIxMTIuNjc1MDAzMDUxNzU3ODEiPjxkaXYgc3R5bGU9ImRpc3BsYXk6IHRhYmxlLWNlbGw7IHdoaXRlLXNwYWNlOiBub3dyYXA7IGxpbmUtaGVpZ2h0OiAxLjU7IG1heC13aWR0aDogMTcwcHg7IHRleHQtYWxpZ246IGNlbnRlcjsiIHhtbG5zPSJodHRwOi8vd3d3LnczLm9yZy8xOTk5L3hodG1sIj48c3BhbiBzdHlsZT0iIiBjbGFzcz0ibm9kZUxhYmVsIG1hcmtkb3duLW5vZGUtbGFiZWwiPjxwPitTdHJpbmcgbG9jYXRpb248L3A+PC9zcGFuPjwvZGl2PjwvZm9yZWlnbk9iamVjdD48L2c+PGcgdHJhbnNmb3JtPSJ0cmFuc2xhdGUoMCw2MCkiIHN0eWxlPSIiIGNsYXNzPSJsYWJlbCI+PGZvcmVpZ25PYmplY3QgaGVpZ2h0PSIyNCIgd2lkdGg9IjkxLjE1MDAwMTUyNTg3ODkiPjxkaXYgc3R5bGU9ImRpc3BsYXk6IHRhYmxlLWNlbGw7IHdoaXRlLXNwYWNlOiBub3dyYXA7IGxpbmUtaGVpZ2h0OiAxLjU7IG1heC13aWR0aDogMTQ4cHg7IHRleHQtYWxpZ246IGNlbnRlcjsiIHhtbG5zPSJodHRwOi8vd3d3LnczLm9yZy8xOTk5L3hodG1sIj48c3BhbiBzdHlsZT0iIiBjbGFzcz0ibm9kZUxhYmVsIG1hcmtkb3duLW5vZGUtbGFiZWwiPjxwPitTdHJpbmcgcHJpY2U8L3A+PC9zcGFuPjwvZGl2PjwvZm9yZWlnbk9iamVjdD48L2c+PGcgdHJhbnNmb3JtPSJ0cmFuc2xhdGUoMCw4NCkiIHN0eWxlPSIiIGNsYXNzPSJsYWJlbCI+PGZvcmVpZ25PYmplY3QgaGVpZ2h0PSIyNCIgd2lkdGg9Ijk3LjExMjUwMzA1MTc1NzgxIj48ZGl2IHN0eWxlPSJkaXNwbGF5OiB0YWJsZS1jZWxsOyB3aGl0ZS1zcGFjZTogbm93cmFwOyBsaW5lLWhlaWdodDogMS41OyBtYXgtd2lkdGg6IDE1NXB4OyB0ZXh0LWFsaWduOiBjZW50ZXI7IiB4bWxucz0iaHR0cDovL3d3dy53My5vcmcvMTk5OS94aHRtbCI+PHNwYW4gc3R5bGU9IiIgY2xhc3M9Im5vZGVMYWJlbCBtYXJrZG93bi1ub2RlLWxhYmVsIj48cD4rU3RyaW5nIHJhdGluZzwvcD48L3NwYW4+PC9kaXY+PC9mb3JlaWduT2JqZWN0PjwvZz48ZyB0cmFuc2Zvcm09InRyYW5zbGF0ZSgwLDEwOCkiIHN0eWxlPSIiIGNsYXNzPSJsYWJlbCI+PGZvcmVpZ25PYmplY3QgaGVpZ2h0PSIyNCIgd2lkdGg9IjE0MC42NTAwMDkxNTUyNzM0NCI+PGRpdiBzdHlsZT0iZGlzcGxheTogdGFibGUtY2VsbDsgd2hpdGUtc3BhY2U6IG5vd3JhcDsgbGluZS1oZWlnaHQ6IDEuNTsgbWF4LXdpZHRoOiAxOTlweDsgdGV4dC1hbGlnbjogY2VudGVyOyIgeG1sbnM9Imh0dHA6Ly93d3cudzMub3JnLzE5OTkveGh0bWwiPjxzcGFuIHN0eWxlPSIiIGNsYXNzPSJub2RlTGFiZWwgbWFya2Rvd24tbm9kZS1sYWJlbCI+PHA+K1N0cmluZz8gZGVzY3JpcHRpb248L3A+PC9zcGFuPjwvZGl2PjwvZm9yZWlnbk9iamVjdD48L2c+PGcgdHJhbnNmb3JtPSJ0cmFuc2xhdGUoMCwxMzIpIiBzdHlsZT0iIiBjbGFzcz0ibGFiZWwiPjxmb3JlaWduT2JqZWN0IGhlaWdodD0iMjQiIHdpZHRoPSIxMzYuNjYyNTA2MTAzNTE1NjIiPjxkaXYgc3R5bGU9ImRpc3BsYXk6IHRhYmxlLWNlbGw7IHdoaXRlLXNwYWNlOiBub3dyYXA7IGxpbmUtaGVpZ2h0OiAxLjU7IG1heC13aWR0aDogMTk3cHg7IHRleHQtYWxpZ246IGNlbnRlcjsiIHhtbG5zPSJodHRwOi8vd3d3LnczLm9yZy8xOTk5L3hodG1sIj48c3BhbiBzdHlsZT0iIiBjbGFzcz0ibm9kZUxhYmVsIG1hcmtkb3duLW5vZGUtbGFiZWwiPjxwPitTdHJpbmc/IGltYWdlRGF0YTwvcD48L3NwYW4+PC9kaXY+PC9mb3JlaWduT2JqZWN0PjwvZz48ZyB0cmFuc2Zvcm09InRyYW5zbGF0ZSgwLDE1NikiIHN0eWxlPSIiIGNsYXNzPSJsYWJlbCI+PGZvcmVpZ25PYmplY3QgaGVpZ2h0PSIyNCIgd2lkdGg9IjEyNSI+PGRpdiBzdHlsZT0iZGlzcGxheTogdGFibGUtY2VsbDsgd2hpdGUtc3BhY2U6IG5vd3JhcDsgbGluZS1oZWlnaHQ6IDEuNTsgbWF4LXdpZHRoOiAxODVweDsgdGV4dC1hbGlnbjogY2VudGVyOyIgeG1sbnM9Imh0dHA6Ly93d3cudzMub3JnLzE5OTkveGh0bWwiPjxzcGFuIHN0eWxlPSIiIGNsYXNzPSJub2RlTGFiZWwgbWFya2Rvd24tbm9kZS1sYWJlbCI+PHA+K1N0cmluZz8gaW1hZ2VVcmw8L3A+PC9zcGFuPjwvZGl2PjwvZm9yZWlnbk9iamVjdD48L2c+PGcgdHJhbnNmb3JtPSJ0cmFuc2xhdGUoMCwxODApIiBzdHlsZT0iIiBjbGFzcz0ibGFiZWwiPjxmb3JlaWduT2JqZWN0IGhlaWdodD0iMjQiIHdpZHRoPSIxNTYuNjI1Ij48ZGl2IHN0eWxlPSJkaXNwbGF5OiB0YWJsZS1jZWxsOyB3aGl0ZS1zcGFjZTogbm93cmFwOyBsaW5lLWhlaWdodDogMS41OyBtYXgtd2lkdGg6IDI1MXB4OyB0ZXh0LWFsaWduOiBjZW50ZXI7IiB4bWxucz0iaHR0cDovL3d3dy53My5vcmcvMTk5OS94aHRtbCI+PHNwYW4gc3R5bGU9IiIgY2xhc3M9Im5vZGVMYWJlbCBtYXJrZG93bi1ub2RlLWxhYmVsIj48cD4rTGlzdCZsdDtTdHJpbmcmZ3Q7IGZlYXR1cmVzPC9wPjwvc3Bhbj48L2Rpdj48L2ZvcmVpZ25PYmplY3Q+PC9nPjxnIHRyYW5zZm9ybT0idHJhbnNsYXRlKDAsMjA0KSIgc3R5bGU9IiIgY2xhc3M9ImxhYmVsIj48Zm9yZWlnbk9iamVjdCBoZWlnaHQ9IjI0IiB3aWR0aD0iMTA0LjQwMDAwMTUyNTg3ODkiPjxkaXYgc3R5bGU9ImRpc3BsYXk6IHRhYmxlLWNlbGw7IHdoaXRlLXNwYWNlOiBub3dyYXA7IGxpbmUtaGVpZ2h0OiAxLjU7IG1heC13aWR0aDogMTY2cHg7IHRleHQtYWxpZ246IGNlbnRlcjsiIHhtbG5zPSJodHRwOi8vd3d3LnczLm9yZy8xOTk5L3hodG1sIj48c3BhbiBzdHlsZT0iIiBjbGFzcz0ibm9kZUxhYmVsIG1hcmtkb3duLW5vZGUtbGFiZWwiPjxwPitTdHJpbmc/IHBob25lPC9wPjwvc3Bhbj48L2Rpdj48L2ZvcmVpZ25PYmplY3Q+PC9nPjwvZz48ZyB0cmFuc2Zvcm09InRyYW5zbGF0ZSgtODguMzc1LCAxNjgpIiBjbGFzcz0ibWV0aG9kcy1ncm91cCB0ZXh0Ij48L2c+PGcgc3R5bGU9IiIgY2xhc3M9ImRpdmlkZXIiPjxwYXRoIHN0eWxlPSIiIGZpbGw9Im5vbmUiIHN0cm9rZS13aWR0aD0iMS4zIiBzdHJva2U9IiM5OTkiIGQ9Ik0tMTAwLjM3NSAtMTIwIEMtMzMuNzQxNzA1MjUzMzk0NjEgLTEyMCwgMzIuODkxNTg5NDkzMjEwNzcgLTEyMCwgMTAwLjM3NSAtMTIwIE0tMTAwLjM3NSAtMTIwIEMtNTcuMzIwMjA4NjkxNDQwNjQgLTEyMCwgLTE0LjI2NTQxNzM4Mjg4MTI4MiAtMTIwLCAxMDAuMzc1IC0xMjAiPjwvcGF0aD48L2c+PGcgc3R5bGU9IiIgY2xhc3M9ImRpdmlkZXIiPjxwYXRoIHN0eWxlPSIiIGZpbGw9Im5vbmUiIHN0cm9rZS13aWR0aD0iMS4zIiBzdHJva2U9IiM5OTkiIGQ9Ik0tMTAwLjM3NSAxNDQgQy0zNi42Njg5MDM5NTU2NTIzNCAxNDQsIDI3LjAzNzE5MjA4ODY5NTMyIDE0NCwgMTAwLjM3NSAxNDQgTS0xMDAuMzc1IDE0NCBDLTQzLjI5NzkyNzEyNTQzNjgzNiAxNDQsIDEzLjc3OTE0NTc0OTEyNjMyOSAxNDQsIDEwMC4zNzUgMTQ0Ij48L3BhdGg+PC9nPjwvZz48ZyB0cmFuc2Zvcm09InRyYW5zbGF0ZSgzOTU1LjkyMzQyMzc2NzA5LCAxMjI5Ljc5OTk5ODc2MDIyMzQpIiBpZD0iY2xhc3NJZC1Cb29raW5nLTQwMiIgY2xhc3M9Im5vZGUgZGVmYXVsdCI+PGcgY2xhc3M9ImJhc2ljIGxhYmVsLWNvbnRhaW5lciI+PHBhdGggc3R5bGU9IiIgZmlsbD0iI2VlZSIgc3Ryb2tlLXdpZHRoPSIwIiBzdHJva2U9Im5vbmUiIGQ9Ik0tMTE3Ljc4MTI1IC0xNDQgTDExNy43ODEyNSAtMTQ0IEwxMTcuNzgxMjUgMTQ0IEwtMTE3Ljc4MTI1IDE0NCI+PC9wYXRoPjxwYXRoIHN0eWxlPSIiIGZpbGw9Im5vbmUiIHN0cm9rZS13aWR0aD0iMS4zIiBzdHJva2U9IiM5OTkiIGQ9Ik0tMTE3Ljc4MTI1IC0xNDQgQy00My4xMTg1MzIwMTI2MjQ3MSAtMTQ0LCAzMS41NDQxODU5NzQ3NTA1NzYgLTE0NCwgMTE3Ljc4MTI1IC0xNDQgTS0xMTcuNzgxMjUgLTE0NCBDLTY1LjAwOTA5MDY4OTc1ODc1IC0xNDQsIC0xMi4yMzY5MzEzNzk1MTc0ODYgLTE0NCwgMTE3Ljc4MTI1IC0xNDQgTTExNy43ODEyNSAtMTQ0IEMxMTcuNzgxMjUgLTQwLjkzMjE1NDcxNjU2Njg1NiwgMTE3Ljc4MTI1IDYyLjEzNTY5MDU2Njg2NjI5LCAxMTcuNzgxMjUgMTQ0IE0xMTcuNzgxMjUgLTE0NCBDMTE3Ljc4MTI1IC0zMS4xNTUzODI5Njg4NTQ4NjYsIDExNy43ODEyNSA4MS42ODkyMzQwNjIyOTAyNywgMTE3Ljc4MTI1IDE0NCBNMTE3Ljc4MTI1IDE0NCBDNjYuMzEzMDY0MzQyMzk4NzcgMTQ0LCAxNC44NDQ4Nzg2ODQ3OTc1MzYgMTQ0LCAtMTE3Ljc4MTI1IDE0NCBNMTE3Ljc4MTI1IDE0NCBDNDkuMzkyMjc0MDY5MTM4NzkgMTQ0LCAtMTguOTk2NzAxODYxNzIyNDE0IDE0NCwgLTExNy43ODEyNSAxNDQgTS0xMTcuNzgxMjUgMTQ0IEMtMTE3Ljc4MTI1IDc4LjEzODc2NTUwMzcyOTE5LCAtMTE3Ljc4MTI1IDEyLjI3NzUzMTAwNzQ1ODM3OSwgLTExNy43ODEyNSAtMTQ0IE0tMTE3Ljc4MTI1IDE0NCBDLTExNy43ODEyNSA2My45NjYxODczMTM5NDYxMiwgLTExNy43ODEyNSAtMTYuMDY3NjI1MzcyMTA3NzU2LCAtMTE3Ljc4MTI1IC0xNDQiPjwvcGF0aD48L2c+PGcgdHJhbnNmb3JtPSJ0cmFuc2xhdGUoMCwgLTEyMCkiIGNsYXNzPSJhbm5vdGF0aW9uLWdyb3VwIHRleHQiPjwvZz48ZyB0cmFuc2Zvcm09InRyYW5zbGF0ZSgtMjkuMzI1MDAwNzYyOTM5NDUzLCAtMTIwKSIgY2xhc3M9ImxhYmVsLWdyb3VwIHRleHQiPjxnIHRyYW5zZm9ybT0idHJhbnNsYXRlKDAsLTEyKSIgc3R5bGU9ImZvbnQtd2VpZ2h0OiBib2xkZXIiIGNsYXNzPSJsYWJlbCI+PGZvcmVpZ25PYmplY3QgaGVpZ2h0PSIyNCIgd2lkdGg9IjU4LjY1MDAwMTUyNTg3ODkwNiI+PGRpdiBzdHlsZT0iZGlzcGxheTogdGFibGUtY2VsbDsgd2hpdGUtc3BhY2U6IG5vd3JhcDsgbGluZS1oZWlnaHQ6IDEuNTsgbWF4LXdpZHRoOiAxMDhweDsgdGV4dC1hbGlnbjogY2VudGVyOyIgeG1sbnM9Imh0dHA6Ly93d3cudzMub3JnLzE5OTkveGh0bWwiPjxzcGFuIHN0eWxlPSIiIGNsYXNzPSJub2RlTGFiZWwgbWFya2Rvd24tbm9kZS1sYWJlbCI+PHA+Qm9va2luZzwvcD48L3NwYW4+PC9kaXY+PC9mb3JlaWduT2JqZWN0PjwvZz48L2c+PGcgdHJhbnNmb3JtPSJ0cmFuc2xhdGUoLTEwNS43ODEyNSwgLTcyKSIgY2xhc3M9Im1lbWJlcnMtZ3JvdXAgdGV4dCI+PGcgdHJhbnNmb3JtPSJ0cmFuc2xhdGUoMCwtMTIpIiBzdHlsZT0iIiBjbGFzcz0ibGFiZWwiPjxmb3JlaWduT2JqZWN0IGhlaWdodD0iMjQiIHdpZHRoPSI2OC4yODc0OTg0NzQxMjExIj48ZGl2IHN0eWxlPSJkaXNwbGF5OiB0YWJsZS1jZWxsOyB3aGl0ZS1zcGFjZTogbm93cmFwOyBsaW5lLWhlaWdodDogMS41OyBtYXgtd2lkdGg6IDEyN3B4OyB0ZXh0LWFsaWduOiBjZW50ZXI7IiB4bWxucz0iaHR0cDovL3d3dy53My5vcmcvMTk5OS94aHRtbCI+PHNwYW4gc3R5bGU9IiIgY2xhc3M9Im5vZGVMYWJlbCBtYXJrZG93bi1ub2RlLWxhYmVsIj48cD4rU3RyaW5nIGlkPC9wPjwvc3Bhbj48L2Rpdj48L2ZvcmVpZ25PYmplY3Q+PC9nPjxnIHRyYW5zZm9ybT0idHJhbnNsYXRlKDAsMTIpIiBzdHlsZT0iIiBjbGFzcz0ibGFiZWwiPjxmb3JlaWduT2JqZWN0IGhlaWdodD0iMjQiIHdpZHRoPSIxMDUuMzAwMDAzMDUxNzU3ODEiPjxkaXYgc3R5bGU9ImRpc3BsYXk6IHRhYmxlLWNlbGw7IHdoaXRlLXNwYWNlOiBub3dyYXA7IGxpbmUtaGVpZ2h0OiAxLjU7IG1heC13aWR0aDogMTYzcHg7IHRleHQtYWxpZ246IGNlbnRlcjsiIHhtbG5zPSJodHRwOi8vd3d3LnczLm9yZy8xOTk5L3hodG1sIj48c3BhbiBzdHlsZT0iIiBjbGFzcz0ibm9kZUxhYmVsIG1hcmtkb3duLW5vZGUtbGFiZWwiPjxwPitTdHJpbmcgaG90ZWxJZDwvcD48L3NwYW4+PC9kaXY+PC9mb3JlaWduT2JqZWN0PjwvZz48ZyB0cmFuc2Zvcm09InRyYW5zbGF0ZSgwLDM2KSIgc3R5bGU9IiIgY2xhc3M9ImxhYmVsIj48Zm9yZWlnbk9iamVjdCBoZWlnaHQ9IjI0IiB3aWR0aD0iOTguMzM3NTAxNTI1ODc4OSI+PGRpdiBzdHlsZT0iZGlzcGxheTogdGFibGUtY2VsbDsgd2hpdGUtc3BhY2U6IG5vd3JhcDsgbGluZS1oZWlnaHQ6IDEuNTsgbWF4LXdpZHRoOiAxNTdweDsgdGV4dC1hbGlnbjogY2VudGVyOyIgeG1sbnM9Imh0dHA6Ly93d3cudzMub3JnLzE5OTkveGh0bWwiPjxzcGFuIHN0eWxlPSIiIGNsYXNzPSJub2RlTGFiZWwgbWFya2Rvd24tbm9kZS1sYWJlbCI+PHA+K1N0cmluZyB1c2VySWQ8L3A+PC9zcGFuPjwvZGl2PjwvZm9yZWlnbk9iamVjdD48L2c+PGcgdHJhbnNmb3JtPSJ0cmFuc2xhdGUoMCw2MCkiIHN0eWxlPSIiIGNsYXNzPSJsYWJlbCI+PGZvcmVpZ25PYmplY3QgaGVpZ2h0PSIyNCIgd2lkdGg9IjEzMi41NTAwMDMwNTE3NTc4Ij48ZGl2IHN0eWxlPSJkaXNwbGF5OiB0YWJsZS1jZWxsOyB3aGl0ZS1zcGFjZTogbm93cmFwOyBsaW5lLWhlaWdodDogMS41OyBtYXgtd2lkdGg6IDE5MnB4OyB0ZXh0LWFsaWduOiBjZW50ZXI7IiB4bWxucz0iaHR0cDovL3d3dy53My5vcmcvMTk5OS94aHRtbCI+PHNwYW4gc3R5bGU9IiIgY2xhc3M9Im5vZGVMYWJlbCBtYXJrZG93bi1ub2RlLWxhYmVsIj48cD4rU3RyaW5nIGhvdGVsTmFtZTwvcD48L3NwYW4+PC9kaXY+PC9mb3JlaWduT2JqZWN0PjwvZz48ZyB0cmFuc2Zvcm09InRyYW5zbGF0ZSgwLDg0KSIgc3R5bGU9IiIgY2xhc3M9ImxhYmVsIj48Zm9yZWlnbk9iamVjdCBoZWlnaHQ9IjI0IiB3aWR0aD0iMTY5LjU2MjUiPjxkaXYgc3R5bGU9ImRpc3BsYXk6IHRhYmxlLWNlbGw7IHdoaXRlLXNwYWNlOiBub3dyYXA7IGxpbmUtaGVpZ2h0OiAxLjU7IG1heC13aWR0aDogMjI2cHg7IHRleHQtYWxpZ246IGNlbnRlcjsiIHhtbG5zPSJodHRwOi8vd3d3LnczLm9yZy8xOTk5L3hodG1sIj48c3BhbiBzdHlsZT0iIiBjbGFzcz0ibm9kZUxhYmVsIG1hcmtkb3duLW5vZGUtbGFiZWwiPjxwPitEYXRlVGltZSBjaGVja0luRGF0ZTwvcD48L3NwYW4+PC9kaXY+PC9mb3JlaWduT2JqZWN0PjwvZz48ZyB0cmFuc2Zvcm09InRyYW5zbGF0ZSgwLDEwOCkiIHN0eWxlPSIiIGNsYXNzPSJsYWJlbCI+PGZvcmVpZ25PYmplY3QgaGVpZ2h0PSIyNCIgd2lkdGg9IjE4Mi4yMzc1MDMwNTE3NTc4Ij48ZGl2IHN0eWxlPSJkaXNwbGF5OiB0YWJsZS1jZWxsOyB3aGl0ZS1zcGFjZTogbm93cmFwOyBsaW5lLWhlaWdodDogMS41OyBtYXgtd2lkdGg6IDI0MHB4OyB0ZXh0LWFsaWduOiBjZW50ZXI7IiB4bWxucz0iaHR0cDovL3d3dy53My5vcmcvMTk5OS94aHRtbCI+PHNwYW4gc3R5bGU9IiIgY2xhc3M9Im5vZGVMYWJlbCBtYXJrZG93bi1ub2RlLWxhYmVsIj48cD4rRGF0ZVRpbWUgY2hlY2tPdXREYXRlPC9wPjwvc3Bhbj48L2Rpdj48L2ZvcmVpZ25PYmplY3Q+PC9nPjxnIHRyYW5zZm9ybT0idHJhbnNsYXRlKDAsMTMyKSIgc3R5bGU9IiIgY2xhc3M9ImxhYmVsIj48Zm9yZWlnbk9iamVjdCBoZWlnaHQ9IjI0IiB3aWR0aD0iMTMxLjgxMjUiPjxkaXYgc3R5bGU9ImRpc3BsYXk6IHRhYmxlLWNlbGw7IHdoaXRlLXNwYWNlOiBub3dyYXA7IGxpbmUtaGVpZ2h0OiAxLjU7IG1heC13aWR0aDogMTg4cHg7IHRleHQtYWxpZ246IGNlbnRlcjsiIHhtbG5zPSJodHRwOi8vd3d3LnczLm9yZy8xOTk5L3hodG1sIj48c3BhbiBzdHlsZT0iIiBjbGFzcz0ibm9kZUxhYmVsIG1hcmtkb3duLW5vZGUtbGFiZWwiPjxwPitkb3VibGUgdG90YWxQcmljZTwvcD48L3NwYW4+PC9kaXY+PC9mb3JlaWduT2JqZWN0PjwvZz48ZyB0cmFuc2Zvcm09InRyYW5zbGF0ZSgwLDE1NikiIHN0eWxlPSIiIGNsYXNzPSJsYWJlbCI+PGZvcmVpZ25PYmplY3QgaGVpZ2h0PSIyNCIgd2lkdGg9Ijk3LjU5OTk5ODQ3NDEyMTEiPjxkaXYgc3R5bGU9ImRpc3BsYXk6IHRhYmxlLWNlbGw7IHdoaXRlLXNwYWNlOiBub3dyYXA7IGxpbmUtaGVpZ2h0OiAxLjU7IG1heC13aWR0aDogMTU1cHg7IHRleHQtYWxpZ246IGNlbnRlcjsiIHhtbG5zPSJodHRwOi8vd3d3LnczLm9yZy8xOTk5L3hodG1sIj48c3BhbiBzdHlsZT0iIiBjbGFzcz0ibm9kZUxhYmVsIG1hcmtkb3duLW5vZGUtbGFiZWwiPjxwPitTdHJpbmcgc3RhdHVzPC9wPjwvc3Bhbj48L2Rpdj48L2ZvcmVpZ25PYmplY3Q+PC9nPjwvZz48ZyB0cmFuc2Zvcm09InRyYW5zbGF0ZSgtMTA1Ljc4MTI1LCAxNDQpIiBjbGFzcz0ibWV0aG9kcy1ncm91cCB0ZXh0Ij48L2c+PGcgc3R5bGU9IiIgY2xhc3M9ImRpdmlkZXIiPjxwYXRoIHN0eWxlPSIiIGZpbGw9Im5vbmUiIHN0cm9rZS13aWR0aD0iMS4zIiBzdHJva2U9IiM5OTkiIGQ9Ik0tMTE3Ljc4MTI1IC05NiBDLTY3LjI4NjI3OTAwMTQxMzY1IC05NiwgLTE2Ljc5MTMwODAwMjgyNzI5MyAtOTYsIDExNy43ODEyNSAtOTYgTS0xMTcuNzgxMjUgLTk2IEMtMjcuNzEzOTQyNDI2MDQ3MDI2IC05NiwgNjIuMzUzMzY1MTQ3OTA1OTUgLTk2LCAxMTcuNzgxMjUgLTk2Ij48L3BhdGg+PC9nPjxnIHN0eWxlPSIiIGNsYXNzPSJkaXZpZGVyIj48cGF0aCBzdHlsZT0iIiBmaWxsPSJub25lIiBzdHJva2Utd2lkdGg9IjEuMyIgc3Ryb2tlPSIjOTk5IiBkPSJNLTExNy43ODEyNSAxMjAgQy00Ny41ODE3NTY2NzUxMjExODQgMTIwLCAyMi42MTc3MzY2NDk3NTc2MyAxMjAsIDExNy43ODEyNSAxMjAgTS0xMTcuNzgxMjUgMTIwIEMtNDkuNjEzMTIxMzY3MDA5ODcgMTIwLCAxOC41NTUwMDcyNjU5ODAyNjUgMTIwLCAxMTcuNzgxMjUgMTIwIj48L3BhdGg+PC9nPjwvZz48ZyB0cmFuc2Zvcm09InRyYW5zbGF0ZSgzOTU1LjkyMzQyMzc2NzA5LCAxNjU1LjU5OTk5ODk1MDk1ODMpIiBpZD0iY2xhc3NJZC1DbGllbnQtNDAzIiBjbGFzcz0ibm9kZSBkZWZhdWx0Ij48ZyBjbGFzcz0iYmFzaWMgbGFiZWwtY29udGFpbmVyIj48cGF0aCBzdHlsZT0iIiBmaWxsPSIjZWVlIiBzdHJva2Utd2lkdGg9IjAiIHN0cm9rZT0ibm9uZSIgZD0iTS0xMjMuNDA2MjUgLTEwOCBMMTIzLjQwNjI1IC0xMDggTDEyMy40MDYyNSAxMDggTC0xMjMuNDA2MjUgMTA4Ij48L3BhdGg+PHBhdGggc3R5bGU9IiIgZmlsbD0ibm9uZSIgc3Ryb2tlLXdpZHRoPSIxLjMiIHN0cm9rZT0iIzk5OSIgZD0iTS0xMjMuNDA2MjUgLTEwOCBDLTQ1LjYzNDg2ODM2NDE4NTk2IC0xMDgsIDMyLjEzNjUxMzI3MTYyODA3NSAtMTA4LCAxMjMuNDA2MjUgLTEwOCBNLTEyMy40MDYyNSAtMTA4IEMtMjguMzMzMTY1MzEzMTczMjU0IC0xMDgsIDY2LjczOTkxOTM3MzY1MzQ5IC0xMDgsIDEyMy40MDYyNSAtMTA4IE0xMjMuNDA2MjUgLTEwOCBDMTIzLjQwNjI1IC00MC40NDU1OTk5NTMxNjczMiwgMTIzLjQwNjI1IDI3LjEwODgwMDA5MzY2NTM2NiwgMTIzLjQwNjI1IDEwOCBNMTIzLjQwNjI1IC0xMDggQzEyMy40MDYyNSAtNDYuMTI2ODIyOTIxMDQyNzksIDEyMy40MDYyNSAxNS43NDYzNTQxNTc5MTQ0MjUsIDEyMy40MDYyNSAxMDggTTEyMy40MDYyNSAxMDggQzU0LjcyNjg5NDQ5NTM0NTEzNSAxMDgsIC0xMy45NTI0NjEwMDkzMDk3MyAxMDgsIC0xMjMuNDA2MjUgMTA4IE0xMjMuNDA2MjUgMTA4IEM1MS45MTgwODgwNDY2NjMwNiAxMDgsIC0xOS41NzAwNzM5MDY2NzM4ODMgMTA4LCAtMTIzLjQwNjI1IDEwOCBNLTEyMy40MDYyNSAxMDggQy0xMjMuNDA2MjUgMzYuODMxNDg3MzExMTk4Njg2LCAtMTIzLjQwNjI1IC0zNC4zMzcwMjUzNzc2MDI2MywgLTEyMy40MDYyNSAtMTA4IE0tMTIzLjQwNjI1IDEwOCBDLTEyMy40MDYyNSA0OC42NTkwMzI4MjY3MDg1NTQsIC0xMjMuNDA2MjUgLTEwLjY4MTkzNDM0NjU4Mjg5MiwgLTEyMy40MDYyNSAtMTA4Ij48L3BhdGg+PC9nPjxnIHRyYW5zZm9ybT0idHJhbnNsYXRlKDAsIC04NCkiIGNsYXNzPSJhbm5vdGF0aW9uLWdyb3VwIHRleHQiPjwvZz48ZyB0cmFuc2Zvcm09InRyYW5zbGF0ZSgtMjIuMTM3NTAwNzYyOTM5NDUzLCAtODQpIiBjbGFzcz0ibGFiZWwtZ3JvdXAgdGV4dCI+PGcgdHJhbnNmb3JtPSJ0cmFuc2xhdGUoMCwtMTIpIiBzdHlsZT0iZm9udC13ZWlnaHQ6IGJvbGRlciIgY2xhc3M9ImxhYmVsIj48Zm9yZWlnbk9iamVjdCBoZWlnaHQ9IjI0IiB3aWR0aD0iNDQuMjc1MDAxNTI1ODc4OTA2Ij48ZGl2IHN0eWxlPSJkaXNwbGF5OiB0YWJsZS1jZWxsOyB3aGl0ZS1zcGFjZTogbm93cmFwOyBsaW5lLWhlaWdodDogMS41OyBtYXgtd2lkdGg6IDkxcHg7IHRleHQtYWxpZ246IGNlbnRlcjsiIHhtbG5zPSJodHRwOi8vd3d3LnczLm9yZy8xOTk5L3hodG1sIj48c3BhbiBzdHlsZT0iIiBjbGFzcz0ibm9kZUxhYmVsIG1hcmtkb3duLW5vZGUtbGFiZWwiPjxwPkNsaWVudDwvcD48L3NwYW4+PC9kaXY+PC9mb3JlaWduT2JqZWN0PjwvZz48L2c+PGcgdHJhbnNmb3JtPSJ0cmFuc2xhdGUoLTExMS40MDYyNSwgLTM2KSIgY2xhc3M9Im1lbWJlcnMtZ3JvdXAgdGV4dCI+PGcgdHJhbnNmb3JtPSJ0cmFuc2xhdGUoMCwtMTIpIiBzdHlsZT0iIiBjbGFzcz0ibGFiZWwiPjxmb3JlaWduT2JqZWN0IGhlaWdodD0iMjQiIHdpZHRoPSI2OC4yODc0OTg0NzQxMjExIj48ZGl2IHN0eWxlPSJkaXNwbGF5OiB0YWJsZS1jZWxsOyB3aGl0ZS1zcGFjZTogbm93cmFwOyBsaW5lLWhlaWdodDogMS41OyBtYXgtd2lkdGg6IDEyN3B4OyB0ZXh0LWFsaWduOiBjZW50ZXI7IiB4bWxucz0iaHR0cDovL3d3dy53My5vcmcvMTk5OS94aHRtbCI+PHNwYW4gc3R5bGU9IiIgY2xhc3M9Im5vZGVMYWJlbCBtYXJrZG93bi1ub2RlLWxhYmVsIj48cD4rU3RyaW5nIGlkPC9wPjwvc3Bhbj48L2Rpdj48L2ZvcmVpZ25PYmplY3Q+PC9nPjxnIHRyYW5zZm9ybT0idHJhbnNsYXRlKDAsMTIpIiBzdHlsZT0iIiBjbGFzcz0ibGFiZWwiPjxmb3JlaWduT2JqZWN0IGhlaWdodD0iMjQiIHdpZHRoPSIxMjQuMTI1Ij48ZGl2IHN0eWxlPSJkaXNwbGF5OiB0YWJsZS1jZWxsOyB3aGl0ZS1zcGFjZTogbm93cmFwOyBsaW5lLWhlaWdodDogMS41OyBtYXgtd2lkdGg6IDE4M3B4OyB0ZXh0LWFsaWduOiBjZW50ZXI7IiB4bWxucz0iaHR0cDovL3d3dy53My5vcmcvMTk5OS94aHRtbCI+PHNwYW4gc3R5bGU9IiIgY2xhc3M9Im5vZGVMYWJlbCBtYXJrZG93bi1ub2RlLWxhYmVsIj48cD4rU3RyaW5nIHVzZXJuYW1lPC9wPjwvc3Bhbj48L2Rpdj48L2ZvcmVpZ25PYmplY3Q+PC9nPjxnIHRyYW5zZm9ybT0idHJhbnNsYXRlKDAsMzYpIiBzdHlsZT0iIiBjbGFzcz0ibGFiZWwiPjxmb3JlaWduT2JqZWN0IGhlaWdodD0iMjQiIHdpZHRoPSI5NC41Ij48ZGl2IHN0eWxlPSJkaXNwbGF5OiB0YWJsZS1jZWxsOyB3aGl0ZS1zcGFjZTogbm93cmFwOyBsaW5lLWhlaWdodDogMS41OyBtYXgtd2lkdGg6IDE1MnB4OyB0ZXh0LWFsaWduOiBjZW50ZXI7IiB4bWxucz0iaHR0cDovL3d3dy53My5vcmcvMTk5OS94aHRtbCI+PHNwYW4gc3R5bGU9IiIgY2xhc3M9Im5vZGVMYWJlbCBtYXJrZG93bi1ub2RlLWxhYmVsIj48cD4rU3RyaW5nIGVtYWlsPC9wPjwvc3Bhbj48L2Rpdj48L2ZvcmVpZ25PYmplY3Q+PC9nPjxnIHRyYW5zZm9ybT0idHJhbnNsYXRlKDAsNjApIiBzdHlsZT0iIiBjbGFzcz0ibGFiZWwiPjxmb3JlaWduT2JqZWN0IGhlaWdodD0iMjQiIHdpZHRoPSIxMDAiPjxkaXYgc3R5bGU9ImRpc3BsYXk6IHRhYmxlLWNlbGw7IHdoaXRlLXNwYWNlOiBub3dyYXA7IGxpbmUtaGVpZ2h0OiAxLjU7IG1heC13aWR0aDogMTYxcHg7IHRleHQtYWxpZ246IGNlbnRlcjsiIHhtbG5zPSJodHRwOi8vd3d3LnczLm9yZy8xOTk5L3hodG1sIj48c3BhbiBzdHlsZT0iIiBjbGFzcz0ibm9kZUxhYmVsIG1hcmtkb3duLW5vZGUtbGFiZWwiPjxwPitib29sIGlzQWRtaW48L3A+PC9zcGFuPjwvZGl2PjwvZm9yZWlnbk9iamVjdD48L2c+PGcgdHJhbnNmb3JtPSJ0cmFuc2xhdGUoMCw4NCkiIHN0eWxlPSIiIGNsYXNzPSJsYWJlbCI+PGZvcmVpZ25PYmplY3QgaGVpZ2h0PSIyNCIgd2lkdGg9IjIwMC42NzUwMDMwNTE3NTc4Ij48ZGl2IHN0eWxlPSJkaXNwbGF5OiB0YWJsZS1jZWxsOyB3aGl0ZS1zcGFjZTogbm93cmFwOyBsaW5lLWhlaWdodDogMS41OyBtYXgtd2lkdGg6IDI2MHB4OyB0ZXh0LWFsaWduOiBjZW50ZXI7IiB4bWxucz0iaHR0cDovL3d3dy53My5vcmcvMTk5OS94aHRtbCI+PHNwYW4gc3R5bGU9IiIgY2xhc3M9Im5vZGVMYWJlbCBtYXJrZG93bi1ub2RlLWxhYmVsIj48cD4rU3RyaW5nPyBwcm9maWxlSW1hZ2VCYXNlNjQ8L3A+PC9zcGFuPjwvZGl2PjwvZm9yZWlnbk9iamVjdD48L2c+PC9nPjxnIHRyYW5zZm9ybT0idHJhbnNsYXRlKC0xMTEuNDA2MjUsIDEwOCkiIGNsYXNzPSJtZXRob2RzLWdyb3VwIHRleHQiPjwvZz48ZyBzdHlsZT0iIiBjbGFzcz0iZGl2aWRlciI+PHBhdGggc3R5bGU9IiIgZmlsbD0ibm9uZSIgc3Ryb2tlLXdpZHRoPSIxLjMiIHN0cm9rZT0iIzk5OSIgZD0iTS0xMjMuNDA2MjUgLTYwIEMtNjYuNDA4NjM1ODQwNzc1MjIgLTYwLCAtOS40MTEwMjE2ODE1NTA0NTEgLTYwLCAxMjMuNDA2MjUgLTYwIE0tMTIzLjQwNjI1IC02MCBDLTI4Ljg2ODU1NzE3ODM3MzAzOCAtNjAsIDY1LjY2OTEzNTY0MzI1MzkyIC02MCwgMTIzLjQwNjI1IC02MCI+PC9wYXRoPjwvZz48ZyBzdHlsZT0iIiBjbGFzcz0iZGl2aWRlciI+PHBhdGggc3R5bGU9IiIgZmlsbD0ibm9uZSIgc3Ryb2tlLXdpZHRoPSIxLjMiIHN0cm9rZT0iIzk5OSIgZD0iTS0xMjMuNDA2MjUgODQgQy00OC4xMzU5NzE4ODc5NTc0OCA4NCwgMjcuMTM0MzA2MjI0MDg1MDM3IDg0LCAxMjMuNDA2MjUgODQgTS0xMjMuNDA2MjUgODQgQy01OC4zMzIzNzU2MzAyMzgyNiA4NCwgNi43NDE0OTg3Mzk1MjM0NzkgODQsIDEyMy40MDYyNSA4NCI+PC9wYXRoPjwvZz48L2c+PGcgdHJhbnNmb3JtPSJ0cmFuc2xhdGUoMTkzLjYxODc0Mzg5NjQ4NDM4LCAxNDAxLjI5OTk5OTIzNzA2MDUpIiBpZD0iY2xhc3NJZC1Mb2dpblBhZ2UtNDA0IiBjbGFzcz0ibm9kZSBkZWZhdWx0Ij48ZyBjbGFzcz0iYmFzaWMgbGFiZWwtY29udGFpbmVyIj48cGF0aCBzdHlsZT0iIiBmaWxsPSIjZWVlIiBzdHJva2Utd2lkdGg9IjAiIHN0cm9rZT0ibm9uZSIgZD0iTS0xODUuNjE4NzQzODk2NDg0MzggLTk2IEwxODUuNjE4NzQzODk2NDg0MzggLTk2IEwxODUuNjE4NzQzODk2NDg0MzggOTYgTC0xODUuNjE4NzQzODk2NDg0MzggOTYiPjwvcGF0aD48cGF0aCBzdHlsZT0iIiBmaWxsPSJub25lIiBzdHJva2Utd2lkdGg9IjEuMyIgc3Ryb2tlPSIjOTk5IiBkPSJNLTE4NS42MTg3NDM4OTY0ODQzOCAtOTYgQy05Ni40NjE1Nzg1ODE3MjcyNCAtOTYsIC03LjMwNDQxMzI2Njk3MDEwMSAtOTYsIDE4NS42MTg3NDM4OTY0ODQzOCAtOTYgTS0xODUuNjE4NzQzODk2NDg0MzggLTk2IEMtODkuMTAxMzQzNTA2NzEwOTYgLTk2LCA3LjQxNjA1Njg4MzA2MjQ1MyAtOTYsIDE4NS42MTg3NDM4OTY0ODQzOCAtOTYgTTE4NS42MTg3NDM4OTY0ODQzOCAtOTYgQzE4NS42MTg3NDM4OTY0ODQzOCAtNTMuMjY3OTkxOTQwOTUxNzUsIDE4NS42MTg3NDM4OTY0ODQzOCAtMTAuNTM1OTgzODgxOTAzNTA1LCAxODUuNjE4NzQzODk2NDg0MzggOTYgTTE4NS42MTg3NDM4OTY0ODQzOCAtOTYgQzE4NS42MTg3NDM4OTY0ODQzOCAtNDIuMzAxMTE0Njk3MzUwNDQsIDE4NS42MTg3NDM4OTY0ODQzOCAxMS4zOTc3NzA2MDUyOTkxMTUsIDE4NS42MTg3NDM4OTY0ODQzOCA5NiBNMTg1LjYxODc0Mzg5NjQ4NDM4IDk2IEM3Mi4wNjg5NzQyMzc2MjcxNyA5NiwgLTQxLjQ4MDc5NTQyMTIzMDAzIDk2LCAtMTg1LjYxODc0Mzg5NjQ4NDM4IDk2IE0xODUuNjE4NzQzODk2NDg0MzggOTYgQzg4LjcwMzA1MjY0MDYwODMzIDk2LCAtOC4yMTI2Mzg2MTUyNjc3MDcgOTYsIC0xODUuNjE4NzQzODk2NDg0MzggOTYgTS0xODUuNjE4NzQzODk2NDg0MzggOTYgQy0xODUuNjE4NzQzODk2NDg0MzggMjEuNzAyODc5NzI2ODcwNDUsIC0xODUuNjE4NzQzODk2NDg0MzggLTUyLjU5NDI0MDU0NjI1OTEsIC0xODUuNjE4NzQzODk2NDg0MzggLTk2IE0tMTg1LjYxODc0Mzg5NjQ4NDM4IDk2IEMtMTg1LjYxODc0Mzg5NjQ4NDM4IDU2Ljk5NDQxNDYxMTQzNjUsIC0xODUuNjE4NzQzODk2NDg0MzggMTcuOTg4ODI5MjIyODcyOTk0LCAtMTg1LjYxODc0Mzg5NjQ4NDM4IC05NiI+PC9wYXRoPjwvZz48ZyB0cmFuc2Zvcm09InRyYW5zbGF0ZSgwLCAtNzIpIiBjbGFzcz0iYW5ub3RhdGlvbi1ncm91cCB0ZXh0Ij48L2c+PGcgdHJhbnNmb3JtPSJ0cmFuc2xhdGUoLTM3LjI3NTAwMTUyNTg3ODkwNiwgLTcyKSIgY2xhc3M9ImxhYmVsLWdyb3VwIHRleHQiPjxnIHRyYW5zZm9ybT0idHJhbnNsYXRlKDAsLTEyKSIgc3R5bGU9ImZvbnQtd2VpZ2h0OiBib2xkZXIiIGNsYXNzPSJsYWJlbCI+PGZvcmVpZ25PYmplY3QgaGVpZ2h0PSIyNCIgd2lkdGg9Ijc0LjU1MDAwMzA1MTc1NzgxIj48ZGl2IHN0eWxlPSJkaXNwbGF5OiB0YWJsZS1jZWxsOyB3aGl0ZS1zcGFjZTogbm93cmFwOyBsaW5lLWhlaWdodDogMS41OyBtYXgtd2lkdGg6IDEyNHB4OyB0ZXh0LWFsaWduOiBjZW50ZXI7IiB4bWxucz0iaHR0cDovL3d3dy53My5vcmcvMTk5OS94aHRtbCI+PHNwYW4gc3R5bGU9IiIgY2xhc3M9Im5vZGVMYWJlbCBtYXJrZG93bi1ub2RlLWxhYmVsIj48cD5Mb2dpblBhZ2U8L3A+PC9zcGFuPjwvZGl2PjwvZm9yZWlnbk9iamVjdD48L2c+PC9nPjxnIHRyYW5zZm9ybT0idHJhbnNsYXRlKC0xNzMuNjE4NzQzODk2NDg0MzgsIC0yNCkiIGNsYXNzPSJtZW1iZXJzLWdyb3VwIHRleHQiPjxnIHRyYW5zZm9ybT0idHJhbnNsYXRlKDAsLTEyKSIgc3R5bGU9IiIgY2xhc3M9ImxhYmVsIj48Zm9yZWlnbk9iamVjdCBoZWlnaHQ9IjI0IiB3aWR0aD0iMjgzLjc1Ij48ZGl2IHN0eWxlPSJkaXNwbGF5OiB0YWJsZS1jZWxsOyB3aGl0ZS1zcGFjZTogbm93cmFwOyBsaW5lLWhlaWdodDogMS41OyBtYXgtd2lkdGg6IDMzMXB4OyB0ZXh0LWFsaWduOiBjZW50ZXI7IiB4bWxucz0iaHR0cDovL3d3dy53My5vcmcvMTk5OS94aHRtbCI+PHNwYW4gc3R5bGU9IiIgY2xhc3M9Im5vZGVMYWJlbCBtYXJrZG93bi1ub2RlLWxhYmVsIj48cD4tVGV4dEVkaXRpbmdDb250cm9sbGVyIF9lbWFpbENvbnRyb2xsZXI8L3A+PC9zcGFuPjwvZGl2PjwvZm9yZWlnbk9iamVjdD48L2c+PGcgdHJhbnNmb3JtPSJ0cmFuc2xhdGUoMCwxMikiIHN0eWxlPSIiIGNsYXNzPSJsYWJlbCI+PGZvcmVpZ25PYmplY3QgaGVpZ2h0PSIyNCIgd2lkdGg9IjMwOS45NjI0OTM4OTY0ODQ0Ij48ZGl2IHN0eWxlPSJkaXNwbGF5OiB0YWJsZS1jZWxsOyB3aGl0ZS1zcGFjZTogbm93cmFwOyBsaW5lLWhlaWdodDogMS41OyBtYXgtd2lkdGg6IDM2MHB4OyB0ZXh0LWFsaWduOiBjZW50ZXI7IiB4bWxucz0iaHR0cDovL3d3dy53My5vcmcvMTk5OS94aHRtbCI+PHNwYW4gc3R5bGU9IiIgY2xhc3M9Im5vZGVMYWJlbCBtYXJrZG93bi1ub2RlLWxhYmVsIj48cD4tVGV4dEVkaXRpbmdDb250cm9sbGVyIF9wYXNzd29yZENvbnRyb2xsZXI8L3A+PC9zcGFuPjwvZGl2PjwvZm9yZWlnbk9iamVjdD48L2c+PC9nPjxnIHRyYW5zZm9ybT0idHJhbnNsYXRlKC0xNzMuNjE4NzQzODk2NDg0MzgsIDQ4KSIgY2xhc3M9Im1ldGhvZHMtZ3JvdXAgdGV4dCI+PGcgdHJhbnNmb3JtPSJ0cmFuc2xhdGUoMCwtMTIpIiBzdHlsZT0iIiBjbGFzcz0ibGFiZWwiPjxmb3JlaWduT2JqZWN0IGhlaWdodD0iMjQiIHdpZHRoPSIxNjguMjEyNTA5MTU1MjczNDQiPjxkaXYgc3R5bGU9ImRpc3BsYXk6IHRhYmxlLWNlbGw7IHdoaXRlLXNwYWNlOiBub3dyYXA7IGxpbmUtaGVpZ2h0OiAxLjU7IG1heC13aWR0aDogMjYzcHg7IHRleHQtYWxpZ246IGNlbnRlcjsiIHhtbG5zPSJodHRwOi8vd3d3LnczLm9yZy8xOTk5L3hodG1sIj48c3BhbiBzdHlsZT0iIiBjbGFzcz0ibm9kZUxhYmVsIG1hcmtkb3duLW5vZGUtbGFiZWwiPjxwPitGdXR1cmUmbHQ7dm9pZCZndDsgX3NpZ25JbigpPC9wPjwvc3Bhbj48L2Rpdj48L2ZvcmVpZ25PYmplY3Q+PC9nPjxnIHRyYW5zZm9ybT0idHJhbnNsYXRlKDAsMTIpIiBzdHlsZT0iIiBjbGFzcz0ibGFiZWwiPjxmb3JlaWduT2JqZWN0IGhlaWdodD0iMjQiIHdpZHRoPSIxODguNTEyNDk2OTQ4MjQyMiI+PGRpdiBzdHlsZT0iZGlzcGxheTogdGFibGUtY2VsbDsgd2hpdGUtc3BhY2U6IG5vd3JhcDsgbGluZS1oZWlnaHQ6IDEuNTsgbWF4LXdpZHRoOiAyNDZweDsgdGV4dC1hbGlnbjogY2VudGVyOyIgeG1sbnM9Imh0dHA6Ly93d3cudzMub3JnLzE5OTkveGh0bWwiPjxzcGFuIHN0eWxlPSIiIGNsYXNzPSJub2RlTGFiZWwgbWFya2Rvd24tbm9kZS1sYWJlbCI+PHA+K3ZvaWQgX25hdmlnYXRlVG9TaWduVXAoKTwvcD48L3NwYW4+PC9kaXY+PC9mb3JlaWduT2JqZWN0PjwvZz48L2c+PGcgc3R5bGU9IiIgY2xhc3M9ImRpdmlkZXIiPjxwYXRoIHN0eWxlPSIiIGZpbGw9Im5vbmUiIHN0cm9rZS13aWR0aD0iMS4zIiBzdHJva2U9IiM5OTkiIGQ9Ik0tMTg1LjYxODc0Mzg5NjQ4NDM4IC00OCBDLTM3LjE1NTg5MDM5OTUxNjM1IC00OCwgMTExLjMwNjk2MzA5NzQ1MTY3IC00OCwgMTg1LjYxODc0Mzg5NjQ4NDM4IC00OCBNLTE4NS42MTg3NDM4OTY0ODQzOCAtNDggQy04Ni43NDkwMjA3Mzg2MDY0IC00OCwgMTIuMTIwNzAyNDE5MjcxNTY2IC00OCwgMTg1LjYxODc0Mzg5NjQ4NDM4IC00OCI+PC9wYXRoPjwvZz48ZyBzdHlsZT0iIiBjbGFzcz0iZGl2aWRlciI+PHBhdGggc3R5bGU9IiIgZmlsbD0ibm9uZSIgc3Ryb2tlLXdpZHRoPSIxLjMiIHN0cm9rZT0iIzk5OSIgZD0iTS0xODUuNjE4NzQzODk2NDg0MzggMjQgQy05Ni41MzE3MDY5NTMwNDY4NiAyNCwgLTcuNDQ0NjcwMDA5NjA5MzU0IDI0LCAxODUuNjE4NzQzODk2NDg0MzggMjQgTS0xODUuNjE4NzQzODk2NDg0MzggMjQgQy0xMDkuNDg5ODkzODY2NDE4MDkgMjQsIC0zMy4zNjEwNDM4MzYzNTE4IDI0LCAxODUuNjE4NzQzODk2NDg0MzggMjQiPjwvcGF0aD48L2c+PC9nPjxnIHRyYW5zZm9ybT0idHJhbnNsYXRlKDEzMTYuNjA5MzQ0NDgyNDIxOSwgMTUwLjE5OTk5OTgwOTI2NTE0KSIgaWQ9ImNsYXNzSWQtU2lnbnVwUGFnZS00MDUiIGNsYXNzPSJub2RlIGRlZmF1bHQiPjxnIGNsYXNzPSJiYXNpYyBsYWJlbC1jb250YWluZXIiPjxwYXRoIHN0eWxlPSIiIGZpbGw9IiNlZWUiIHN0cm9rZS13aWR0aD0iMCIgc3Ryb2tlPSJub25lIiBkPSJNLTE4OS41ODc0OTM4OTY0ODQzOCAtOTYgTDE4OS41ODc0OTM4OTY0ODQzOCAtOTYgTDE4OS41ODc0OTM4OTY0ODQzOCA5NiBMLTE4OS41ODc0OTM4OTY0ODQzOCA5NiI+PC9wYXRoPjxwYXRoIHN0eWxlPSIiIGZpbGw9Im5vbmUiIHN0cm9rZS13aWR0aD0iMS4zIiBzdHJva2U9IiM5OTkiIGQ9Ik0tMTg5LjU4NzQ5Mzg5NjQ4NDM4IC05NiBDLTgwLjU1MzI1NzgyNjE4MDkxIC05NiwgMjguNDgwOTc4MjQ0MTIyNTU0IC05NiwgMTg5LjU4NzQ5Mzg5NjQ4NDM4IC05NiBNLTE4OS41ODc0OTM4OTY0ODQzOCAtOTYgQy04MC43NTY1NDk5NzAzNjg5MiAtOTYsIDI4LjA3NDM5Mzk1NTc0NjUzIC05NiwgMTg5LjU4NzQ5Mzg5NjQ4NDM4IC05NiBNMTg5LjU4NzQ5Mzg5NjQ4NDM4IC05NiBDMTg5LjU4NzQ5Mzg5NjQ4NDM4IC0yOC44MjY2MzU4NTM0MTE0MywgMTg5LjU4NzQ5Mzg5NjQ4NDM4IDM4LjM0NjcyODI5MzE3NzE0LCAxODkuNTg3NDkzODk2NDg0MzggOTYgTTE4OS41ODc0OTM4OTY0ODQzOCAtOTYgQzE4OS41ODc0OTM4OTY0ODQzOCAtNDAuODY3MTMxNjU5NTI5ODgsIDE4OS41ODc0OTM4OTY0ODQzOCAxNC4yNjU3MzY2ODA5NDAyMzYsIDE4OS41ODc0OTM4OTY0ODQzOCA5NiBNMTg5LjU4NzQ5Mzg5NjQ4NDM4IDk2IEMzOS4zOTI4ODMzMTgzNjg1NzUgOTYsIC0xMTAuODAxNzI3MjU5NzQ3MjIgOTYsIC0xODkuNTg3NDkzODk2NDg0MzggOTYgTTE4OS41ODc0OTM4OTY0ODQzOCA5NiBDNzEuNjE2MTM2MjI5MTY3OTggOTYsIC00Ni4zNTUyMjE0MzgxNDg0MiA5NiwgLTE4OS41ODc0OTM4OTY0ODQzOCA5NiBNLTE4OS41ODc0OTM4OTY0ODQzOCA5NiBDLTE4OS41ODc0OTM4OTY0ODQzOCA1Mi42NzczNTE4OTg5NTY2MiwgLTE4OS41ODc0OTM4OTY0ODQzOCA5LjM1NDcwMzc5NzkxMzI0NSwgLTE4OS41ODc0OTM4OTY0ODQzOCAtOTYgTS0xODkuNTg3NDkzODk2NDg0MzggOTYgQy0xODkuNTg3NDkzODk2NDg0MzggNTEuNzgzNDcwNjIzMDg1MjgsIC0xODkuNTg3NDkzODk2NDg0MzggNy41NjY5NDEyNDYxNzA1NTgsIC0xODkuNTg3NDkzODk2NDg0MzggLTk2Ij48L3BhdGg+PC9nPjxnIHRyYW5zZm9ybT0idHJhbnNsYXRlKDAsIC03MikiIGNsYXNzPSJhbm5vdGF0aW9uLWdyb3VwIHRleHQiPjwvZz48ZyB0cmFuc2Zvcm09InRyYW5zbGF0ZSgtNDEuNzk5OTk5MjM3MDYwNTUsIC03MikiIGNsYXNzPSJsYWJlbC1ncm91cCB0ZXh0Ij48ZyB0cmFuc2Zvcm09InRyYW5zbGF0ZSgwLC0xMikiIHN0eWxlPSJmb250LXdlaWdodDogYm9sZGVyIiBjbGFzcz0ibGFiZWwiPjxmb3JlaWduT2JqZWN0IGhlaWdodD0iMjQiIHdpZHRoPSI4My41OTk5OTg0NzQxMjExIj48ZGl2IHN0eWxlPSJkaXNwbGF5OiB0YWJsZS1jZWxsOyB3aGl0ZS1zcGFjZTogbm93cmFwOyBsaW5lLWhlaWdodDogMS41OyBtYXgtd2lkdGg6IDEzNHB4OyB0ZXh0LWFsaWduOiBjZW50ZXI7IiB4bWxucz0iaHR0cDovL3d3dy53My5vcmcvMTk5OS94aHRtbCI+PHNwYW4gc3R5bGU9IiIgY2xhc3M9Im5vZGVMYWJlbCBtYXJrZG93bi1ub2RlLWxhYmVsIj48cD5TaWdudXBQYWdlPC9wPjwvc3Bhbj48L2Rpdj48L2ZvcmVpZ25PYmplY3Q+PC9nPjwvZz48ZyB0cmFuc2Zvcm09InRyYW5zbGF0ZSgtMTc3LjU4NzQ5Mzg5NjQ4NDM4LCAtMjQpIiBjbGFzcz0ibWVtYmVycy1ncm91cCB0ZXh0Ij48ZyB0cmFuc2Zvcm09InRyYW5zbGF0ZSgwLC0xMikiIHN0eWxlPSIiIGNsYXNzPSJsYWJlbCI+PGZvcmVpZ25PYmplY3QgaGVpZ2h0PSIyNCIgd2lkdGg9IjMxMy4zNzUiPjxkaXYgc3R5bGU9ImRpc3BsYXk6IHRhYmxlLWNlbGw7IHdoaXRlLXNwYWNlOiBub3dyYXA7IGxpbmUtaGVpZ2h0OiAxLjU7IG1heC13aWR0aDogMzYycHg7IHRleHQtYWxpZ246IGNlbnRlcjsiIHhtbG5zPSJodHRwOi8vd3d3LnczLm9yZy8xOTk5L3hodG1sIj48c3BhbiBzdHlsZT0iIiBjbGFzcz0ibm9kZUxhYmVsIG1hcmtkb3duLW5vZGUtbGFiZWwiPjxwPi1UZXh0RWRpdGluZ0NvbnRyb2xsZXIgX3VzZXJuYW1lQ29udHJvbGxlcjwvcD48L3NwYW4+PC9kaXY+PC9mb3JlaWduT2JqZWN0PjwvZz48ZyB0cmFuc2Zvcm09InRyYW5zbGF0ZSgwLDEyKSIgc3R5bGU9IiIgY2xhc3M9ImxhYmVsIj48Zm9yZWlnbk9iamVjdCBoZWlnaHQ9IjI0IiB3aWR0aD0iMjgzLjc1Ij48ZGl2IHN0eWxlPSJkaXNwbGF5OiB0YWJsZS1jZWxsOyB3aGl0ZS1zcGFjZTogbm93cmFwOyBsaW5lLWhlaWdodDogMS41OyBtYXgtd2lkdGg6IDMzMXB4OyB0ZXh0LWFsaWduOiBjZW50ZXI7IiB4bWxucz0iaHR0cDovL3d3dy53My5vcmcvMTk5OS94aHRtbCI+PHNwYW4gc3R5bGU9IiIgY2xhc3M9Im5vZGVMYWJlbCBtYXJrZG93bi1ub2RlLWxhYmVsIj48cD4tVGV4dEVkaXRpbmdDb250cm9sbGVyIF9lbWFpbENvbnRyb2xsZXI8L3A+PC9zcGFuPjwvZGl2PjwvZm9yZWlnbk9iamVjdD48L2c+PGcgdHJhbnNmb3JtPSJ0cmFuc2xhdGUoMCwzNikiIHN0eWxlPSIiIGNsYXNzPSJsYWJlbCI+PGZvcmVpZ25PYmplY3QgaGVpZ2h0PSIyNCIgd2lkdGg9IjMwOS45NjI0OTM4OTY0ODQ0Ij48ZGl2IHN0eWxlPSJkaXNwbGF5OiB0YWJsZS1jZWxsOyB3aGl0ZS1zcGFjZTogbm93cmFwOyBsaW5lLWhlaWdodDogMS41OyBtYXgtd2lkdGg6IDM2MHB4OyB0ZXh0LWFsaWduOiBjZW50ZXI7IiB4bWxucz0iaHR0cDovL3d3dy53My5vcmcvMTk5OS94aHRtbCI+PHNwYW4gc3R5bGU9IiIgY2xhc3M9Im5vZGVMYWJlbCBtYXJrZG93bi1ub2RlLWxhYmVsIj48cD4tVGV4dEVkaXRpbmdDb250cm9sbGVyIF9wYXNzd29yZENvbnRyb2xsZXI8L3A+PC9zcGFuPjwvZGl2PjwvZm9yZWlnbk9iamVjdD48L2c+PC9nPjxnIHRyYW5zZm9ybT0idHJhbnNsYXRlKC0xNzcuNTg3NDkzODk2NDg0MzgsIDcyKSIgY2xhc3M9Im1ldGhvZHMtZ3JvdXAgdGV4dCI+PGcgdHJhbnNmb3JtPSJ0cmFuc2xhdGUoMCwtMTIpIiBzdHlsZT0iIiBjbGFzcz0ibGFiZWwiPjxmb3JlaWduT2JqZWN0IGhlaWdodD0iMjQiIHdpZHRoPSIxNzQuMzEyNSI+PGRpdiBzdHlsZT0iZGlzcGxheTogdGFibGUtY2VsbDsgd2hpdGUtc3BhY2U6IG5vd3JhcDsgbGluZS1oZWlnaHQ6IDEuNTsgbWF4LXdpZHRoOiAyNzBweDsgdGV4dC1hbGlnbjogY2VudGVyOyIgeG1sbnM9Imh0dHA6Ly93d3cudzMub3JnLzE5OTkveGh0bWwiPjxzcGFuIHN0eWxlPSIiIGNsYXNzPSJub2RlTGFiZWwgbWFya2Rvd24tbm9kZS1sYWJlbCI+PHA+K0Z1dHVyZSZsdDt2b2lkJmd0OyBfc2lnblVwKCk8L3A+PC9zcGFuPjwvZGl2PjwvZm9yZWlnbk9iamVjdD48L2c+PC9nPjxnIHN0eWxlPSIiIGNsYXNzPSJkaXZpZGVyIj48cGF0aCBzdHlsZT0iIiBmaWxsPSJub25lIiBzdHJva2Utd2lkdGg9IjEuMyIgc3Ryb2tlPSIjOTk5IiBkPSJNLTE4OS41ODc0OTM4OTY0ODQzOCAtNDggQy01NS44NTc2MzkxODMyMjI4NiAtNDgsIDc3Ljg3MjIxNTUzMDAzODY2IC00OCwgMTg5LjU4NzQ5Mzg5NjQ4NDM4IC00OCBNLTE4OS41ODc0OTM4OTY0ODQzOCAtNDggQy0xMDUuNjA4OTE1NTczNzM5MSAtNDgsIC0yMS42MzAzMzcyNTA5OTM4MiAtNDgsIDE4OS41ODc0OTM4OTY0ODQzOCAtNDgiPjwvcGF0aD48L2c+PGcgc3R5bGU9IiIgY2xhc3M9ImRpdmlkZXIiPjxwYXRoIHN0eWxlPSIiIGZpbGw9Im5vbmUiIHN0cm9rZS13aWR0aD0iMS4zIiBzdHJva2U9IiM5OTkiIGQ9Ik0tMTg5LjU4NzQ5Mzg5NjQ4NDM4IDQ4IEMtODQuMDMzMzAxNTMwNzkyNTYgNDgsIDIxLjUyMDg5MDgzNDg5OTI2MiA0OCwgMTg5LjU4NzQ5Mzg5NjQ4NDM4IDQ4IE0tMTg5LjU4NzQ5Mzg5NjQ4NDM4IDQ4IEMtMTA2LjYxOTI2MDk2NzU0NTEzIDQ4LCAtMjMuNjUxMDI4MDM4NjA1ODg3IDQ4LCAxODkuNTg3NDkzODk2NDg0MzggNDgiPjwvcGF0aD48L2c+PC9nPjxnIHRyYW5zZm9ybT0idHJhbnNsYXRlKDc0OS41OTA2MDY2ODk0NTMxLCA4NTMuODk5OTk5NjE4NTMwMykiIGlkPSJjbGFzc0lkLUhvbWVQYWdlLTQwNiIgY2xhc3M9Im5vZGUgZGVmYXVsdCI+PGcgY2xhc3M9ImJhc2ljIGxhYmVsLWNvbnRhaW5lciI+PHBhdGggc3R5bGU9IiIgZmlsbD0iI2VlZSIgc3Ryb2tlLXdpZHRoPSIwIiBzdHJva2U9Im5vbmUiIGQ9Ik0tMTQ1LjMyODEyNSAtMTY4IEwxNDUuMzI4MTI1IC0xNjggTDE0NS4zMjgxMjUgMTY4IEwtMTQ1LjMyODEyNSAxNjgiPjwvcGF0aD48cGF0aCBzdHlsZT0iIiBmaWxsPSJub25lIiBzdHJva2Utd2lkdGg9IjEuMyIgc3Ryb2tlPSIjOTk5IiBkPSJNLTE0NS4zMjgxMjUgLTE2OCBDLTYzLjU3ODQ5MDcxOTkwMTk1IC0xNjgsIDE4LjE3MTE0MzU2MDE5NjEgLTE2OCwgMTQ1LjMyODEyNSAtMTY4IE0tMTQ1LjMyODEyNSAtMTY4IEMtMzguMjM3MjIyNTM3MDQ0MDYgLTE2OCwgNjguODUzNjc5OTI1OTExODggLTE2OCwgMTQ1LjMyODEyNSAtMTY4IE0xNDUuMzI4MTI1IC0xNjggQzE0NS4zMjgxMjUgLTQyLjQ4ODExMjc4MDM5MzM2NSwgMTQ1LjMyODEyNSA4My4wMjM3NzQ0MzkyMTMyNywgMTQ1LjMyODEyNSAxNjggTTE0NS4zMjgxMjUgLTE2OCBDMTQ1LjMyODEyNSAtNDcuNzQ0MDI1MTQ5MTcxMTksIDE0NS4zMjgxMjUgNzIuNTExOTQ5NzAxNjU3NjEsIDE0NS4zMjgxMjUgMTY4IE0xNDUuMzI4MTI1IDE2OCBDNDEuODYzNjYzODU5MzczMDM0IDE2OCwgLTYxLjYwMDc5NzI4MTI1MzkzIDE2OCwgLTE0NS4zMjgxMjUgMTY4IE0xNDUuMzI4MTI1IDE2OCBDMzcuODg1MTQ5OTE4MTQ1OTQgMTY4LCAtNjkuNTU3ODI1MTYzNzA4MTIgMTY4LCAtMTQ1LjMyODEyNSAxNjggTS0xNDUuMzI4MTI1IDE2OCBDLTE0NS4zMjgxMjUgMzkuMTcxMzY0Njk4NTg4MzUsIC0xNDUuMzI4MTI1IC04OS42NTcyNzA2MDI4MjMzLCAtMTQ1LjMyODEyNSAtMTY4IE0tMTQ1LjMyODEyNSAxNjggQy0xNDUuMzI4MTI1IDk0LjcxNzA2Nzk2NjA0NDY0LCAtMTQ1LjMyODEyNSAyMS40MzQxMzU5MzIwODkyNzYsIC0xNDUuMzI4MTI1IC0xNjgiPjwvcGF0aD48L2c+PGcgdHJhbnNmb3JtPSJ0cmFuc2xhdGUoMCwgLTE0NCkiIGNsYXNzPSJhbm5vdGF0aW9uLWdyb3VwIHRleHQiPjwvZz48ZyB0cmFuc2Zvcm09InRyYW5zbGF0ZSgtMzguNjY4NzUwNzYyOTM5NDUsIC0xNDQpIiBjbGFzcz0ibGFiZWwtZ3JvdXAgdGV4dCI+PGcgdHJhbnNmb3JtPSJ0cmFuc2xhdGUoMCwtMTIpIiBzdHlsZT0iZm9udC13ZWlnaHQ6IGJvbGRlciIgY2xhc3M9ImxhYmVsIj48Zm9yZWlnbk9iamVjdCBoZWlnaHQ9IjI0IiB3aWR0aD0iNzcuMzM3NTAxNTI1ODc4OSI+PGRpdiBzdHlsZT0iZGlzcGxheTogdGFibGUtY2VsbDsgd2hpdGUtc3BhY2U6IG5vd3JhcDsgbGluZS1oZWlnaHQ6IDEuNTsgbWF4LXdpZHRoOiAxMjdweDsgdGV4dC1hbGlnbjogY2VudGVyOyIgeG1sbnM9Imh0dHA6Ly93d3cudzMub3JnLzE5OTkveGh0bWwiPjxzcGFuIHN0eWxlPSIiIGNsYXNzPSJub2RlTGFiZWwgbWFya2Rvd24tbm9kZS1sYWJlbCI+PHA+SG9tZVBhZ2U8L3A+PC9zcGFuPjwvZGl2PjwvZm9yZWlnbk9iamVjdD48L2c+PC9nPjxnIHRyYW5zZm9ybT0idHJhbnNsYXRlKC0xMzMuMzI4MTI1LCAtOTYpIiBjbGFzcz0ibWVtYmVycy1ncm91cCB0ZXh0Ij48ZyB0cmFuc2Zvcm09InRyYW5zbGF0ZSgwLC0xMikiIHN0eWxlPSIiIGNsYXNzPSJsYWJlbCI+PGZvcmVpZ25PYmplY3QgaGVpZ2h0PSIyNCIgd2lkdGg9IjE0MS40NzUwMDYxMDM1MTU2MiI+PGRpdiBzdHlsZT0iZGlzcGxheTogdGFibGUtY2VsbDsgd2hpdGUtc3BhY2U6IG5vd3JhcDsgbGluZS1oZWlnaHQ6IDEuNTsgbWF4LXdpZHRoOiAxOTZweDsgdGV4dC1hbGlnbjogY2VudGVyOyIgeG1sbnM9Imh0dHA6Ly93d3cudzMub3JnLzE5OTkveGh0bWwiPjxzcGFuIHN0eWxlPSIiIGNsYXNzPSJub2RlTGFiZWwgbWFya2Rvd24tbm9kZS1sYWJlbCI+PHA+LVVzZXI/IF9jdXJyZW50VXNlcjwvcD48L3NwYW4+PC9kaXY+PC9mb3JlaWduT2JqZWN0PjwvZz48ZyB0cmFuc2Zvcm09InRyYW5zbGF0ZSgwLDEyKSIgc3R5bGU9IiIgY2xhc3M9ImxhYmVsIj48Zm9yZWlnbk9iamVjdCBoZWlnaHQ9IjI0IiB3aWR0aD0iMTA1Ljg3NSI+PGRpdiBzdHlsZT0iZGlzcGxheTogdGFibGUtY2VsbDsgd2hpdGUtc3BhY2U6IG5vd3JhcDsgbGluZS1oZWlnaHQ6IDEuNTsgbWF4LXdpZHRoOiAxNjNweDsgdGV4dC1hbGlnbjogY2VudGVyOyIgeG1sbnM9Imh0dHA6Ly93d3cudzMub3JnLzE5OTkveGh0bWwiPjxzcGFuIHN0eWxlPSIiIGNsYXNzPSJub2RlTGFiZWwgbWFya2Rvd24tbm9kZS1sYWJlbCI+PHA+LWJvb2wgX2lzQWRtaW48L3A+PC9zcGFuPjwvZGl2PjwvZm9yZWlnbk9iamVjdD48L2c+PC9nPjxnIHRyYW5zZm9ybT0idHJhbnNsYXRlKC0xMzMuMzI4MTI1LCAtMjQpIiBjbGFzcz0ibWV0aG9kcy1ncm91cCB0ZXh0Ij48ZyB0cmFuc2Zvcm09InRyYW5zbGF0ZSgwLC0xMikiIHN0eWxlPSIiIGNsYXNzPSJsYWJlbCI+PGZvcmVpZ25PYmplY3QgaGVpZ2h0PSIyNCIgd2lkdGg9IjIyNy45ODc1MDMwNTE3NTc4Ij48ZGl2IHN0eWxlPSJkaXNwbGF5OiB0YWJsZS1jZWxsOyB3aGl0ZS1zcGFjZTogbm93cmFwOyBsaW5lLWhlaWdodDogMS41OyBtYXgtd2lkdGg6IDI4MXB4OyB0ZXh0LWFsaWduOiBjZW50ZXI7IiB4bWxucz0iaHR0cDovL3d3dy53My5vcmcvMTk5OS94aHRtbCI+PHNwYW4gc3R5bGU9IiIgY2xhc3M9Im5vZGVMYWJlbCBtYXJrZG93bi1ub2RlLWxhYmVsIj48cD4rdm9pZCBfb25JdGVtVGFwcGVkKGludCBpbmRleCk8L3A+PC9zcGFuPjwvZGl2PjwvZm9yZWlnbk9iamVjdD48L2c+PGcgdHJhbnNmb3JtPSJ0cmFuc2xhdGUoMCwxMikiIHN0eWxlPSIiIGNsYXNzPSJsYWJlbCI+PGZvcmVpZ25PYmplY3QgaGVpZ2h0PSIyNCIgd2lkdGg9IjIyMi42MDAwMDYxMDM1MTU2MiI+PGRpdiBzdHlsZT0iZGlzcGxheTogdGFibGUtY2VsbDsgd2hpdGUtc3BhY2U6IG5vd3JhcDsgbGluZS1oZWlnaHQ6IDEuNTsgbWF4LXdpZHRoOiAzMTZweDsgdGV4dC1hbGlnbjogY2VudGVyOyIgeG1sbnM9Imh0dHA6Ly93d3cudzMub3JnLzE5OTkveGh0bWwiPjxzcGFuIHN0eWxlPSIiIGNsYXNzPSJub2RlTGFiZWwgbWFya2Rvd24tbm9kZS1sYWJlbCI+PHA+K0Z1dHVyZSZsdDt2b2lkJmd0OyBfbG9hZFVzZXJEYXRhKCk8L3A+PC9zcGFuPjwvZGl2PjwvZm9yZWlnbk9iamVjdD48L2c+PGcgdHJhbnNmb3JtPSJ0cmFuc2xhdGUoMCwzNikiIHN0eWxlPSIiIGNsYXNzPSJsYWJlbCI+PGZvcmVpZ25PYmplY3QgaGVpZ2h0PSIyNCIgd2lkdGg9IjIwMy4xNTAwMDkxNTUyNzM0NCI+PGRpdiBzdHlsZT0iZGlzcGxheTogdGFibGUtY2VsbDsgd2hpdGUtc3BhY2U6IG5vd3JhcDsgbGluZS1oZWlnaHQ6IDEuNTsgbWF4LXdpZHRoOiAyOTdweDsgdGV4dC1hbGlnbjogY2VudGVyOyIgeG1sbnM9Imh0dHA6Ly93d3cudzMub3JnLzE5OTkveGh0bWwiPjxzcGFuIHN0eWxlPSIiIGNsYXNzPSJub2RlTGFiZWwgbWFya2Rvd24tbm9kZS1sYWJlbCI+PHA+K0Z1dHVyZSZsdDt2b2lkJmd0OyBfbG9hZEhvdGVscygpPC9wPjwvc3Bhbj48L2Rpdj48L2ZvcmVpZ25PYmplY3Q+PC9nPjxnIHRyYW5zZm9ybT0idHJhbnNsYXRlKDAsNjApIiBzdHlsZT0iIiBjbGFzcz0ibGFiZWwiPjxmb3JlaWduT2JqZWN0IGhlaWdodD0iMjQiIHdpZHRoPSIxODcuMDg3NTA5MTU1MjczNDQiPjxkaXYgc3R5bGU9ImRpc3BsYXk6IHRhYmxlLWNlbGw7IHdoaXRlLXNwYWNlOiBub3dyYXA7IGxpbmUtaGVpZ2h0OiAxLjU7IG1heC13aWR0aDogMjQwcHg7IHRleHQtYWxpZ246IGNlbnRlcjsiIHhtbG5zPSJodHRwOi8vd3d3LnczLm9yZy8xOTk5L3hodG1sIj48c3BhbiBzdHlsZT0iIiBjbGFzcz0ibm9kZUxhYmVsIG1hcmtkb3duLW5vZGUtbGFiZWwiPjxwPit2b2lkIF9uYXZpZ2F0ZVRvUHJvZmlsZSgpPC9wPjwvc3Bhbj48L2Rpdj48L2ZvcmVpZ25PYmplY3Q+PC9nPjxnIHRyYW5zZm9ybT0idHJhbnNsYXRlKDAsODQpIiBzdHlsZT0iIiBjbGFzcz0ibGFiZWwiPjxmb3JlaWduT2JqZWN0IGhlaWdodD0iMjQiIHdpZHRoPSIxODUuMTI1Ij48ZGl2IHN0eWxlPSJkaXNwbGF5OiB0YWJsZS1jZWxsOyB3aGl0ZS1zcGFjZTogbm93cmFwOyBsaW5lLWhlaWdodDogMS41OyBtYXgtd2lkdGg6IDI0MnB4OyB0ZXh0LWFsaWduOiBjZW50ZXI7IiB4bWxucz0iaHR0cDovL3d3dy53My5vcmcvMTk5OS94aHRtbCI+PHNwYW4gc3R5bGU9IiIgY2xhc3M9Im5vZGVMYWJlbCBtYXJrZG93bi1ub2RlLWxhYmVsIj48cD4rdm9pZCBfbmF2aWdhdGVUb0FkbWluKCk8L3A+PC9zcGFuPjwvZGl2PjwvZm9yZWlnbk9iamVjdD48L2c+PGcgdHJhbnNmb3JtPSJ0cmFuc2xhdGUoMCwxMDgpIiBzdHlsZT0iIiBjbGFzcz0ibGFiZWwiPjxmb3JlaWduT2JqZWN0IGhlaWdodD0iMjQiIHdpZHRoPSIxOTMuOTM3NSI+PGRpdiBzdHlsZT0iZGlzcGxheTogdGFibGUtY2VsbDsgd2hpdGUtc3BhY2U6IG5vd3JhcDsgbGluZS1oZWlnaHQ6IDEuNTsgbWF4LXdpZHRoOiAyNDdweDsgdGV4dC1hbGlnbjogY2VudGVyOyIgeG1sbnM9Imh0dHA6Ly93d3cudzMub3JnLzE5OTkveGh0bWwiPjxzcGFuIHN0eWxlPSIiIGNsYXNzPSJub2RlTGFiZWwgbWFya2Rvd24tbm9kZS1sYWJlbCI+PHA+K3ZvaWQgX25hdmlnYXRlVG9FeHBsb3JlKCk8L3A+PC9zcGFuPjwvZGl2PjwvZm9yZWlnbk9iamVjdD48L2c+PGcgdHJhbnNmb3JtPSJ0cmFuc2xhdGUoMCwxMzIpIiBzdHlsZT0iIiBjbGFzcz0ibGFiZWwiPjxmb3JlaWduT2JqZWN0IGhlaWdodD0iMjQiIHdpZHRoPSIyMDIuMzAwMDAzMDUxNzU3OCI+PGRpdiBzdHlsZT0iZGlzcGxheTogdGFibGUtY2VsbDsgd2hpdGUtc3BhY2U6IG5vd3JhcDsgbGluZS1oZWlnaHQ6IDEuNTsgbWF4LXdpZHRoOiAyNjBweDsgdGV4dC1hbGlnbjogY2VudGVyOyIgeG1sbnM9Imh0dHA6Ly93d3cudzMub3JnLzE5OTkveGh0bWwiPjxzcGFuIHN0eWxlPSIiIGNsYXNzPSJub2RlTGFiZWwgbWFya2Rvd24tbm9kZS1sYWJlbCI+PHA+K3ZvaWQgX25hdmlnYXRlVG9Cb29raW5ncygpPC9wPjwvc3Bhbj48L2Rpdj48L2ZvcmVpZ25PYmplY3Q+PC9nPjxnIHRyYW5zZm9ybT0idHJhbnNsYXRlKDAsMTU2KSIgc3R5bGU9IiIgY2xhc3M9ImxhYmVsIj48Zm9yZWlnbk9iamVjdCBoZWlnaHQ9IjI0IiB3aWR0aD0iMTgwLjg4NzQ5Njk0ODI0MjIiPjxkaXYgc3R5bGU9ImRpc3BsYXk6IHRhYmxlLWNlbGw7IHdoaXRlLXNwYWNlOiBub3dyYXA7IGxpbmUtaGVpZ2h0OiAxLjU7IG1heC13aWR0aDogMjc2cHg7IHRleHQtYWxpZ246IGNlbnRlcjsiIHhtbG5zPSJodHRwOi8vd3d3LnczLm9yZy8xOTk5L3hodG1sIj48c3BhbiBzdHlsZT0iIiBjbGFzcz0ibm9kZUxhYmVsIG1hcmtkb3duLW5vZGUtbGFiZWwiPjxwPitGdXR1cmUmbHQ7dm9pZCZndDsgX3NpZ25PdXQoKTwvcD48L3NwYW4+PC9kaXY+PC9mb3JlaWduT2JqZWN0PjwvZz48L2c+PGcgc3R5bGU9IiIgY2xhc3M9ImRpdmlkZXIiPjxwYXRoIHN0eWxlPSIiIGZpbGw9Im5vbmUiIHN0cm9rZS13aWR0aD0iMS4zIiBzdHJva2U9IiM5OTkiIGQ9Ik0tMTQ1LjMyODEyNSAtMTIwIEMtNDEuOTYwMTQzOTE1MzA1OTIgLTEyMCwgNjEuNDA3ODM3MTY5Mzg4MTYgLTEyMCwgMTQ1LjMyODEyNSAtMTIwIE0tMTQ1LjMyODEyNSAtMTIwIEMtNDIuNzk5Nzc1ODE4Mzk4NTE2IC0xMjAsIDU5LjcyODU3MzM2MzIwMjk3IC0xMjAsIDE0NS4zMjgxMjUgLTEyMCI+PC9wYXRoPjwvZz48ZyBzdHlsZT0iIiBjbGFzcz0iZGl2aWRlciI+PHBhdGggc3R5bGU9IiIgZmlsbD0ibm9uZSIgc3Ryb2tlLXdpZHRoPSIxLjMiIHN0cm9rZT0iIzk5OSIgZD0iTS0xNDUuMzI4MTI1IC00OCBDLTQ2LjEzMTM3MDYyMzk2MTM3NCAtNDgsIDUzLjA2NTM4Mzc1MjA3NzI1IC00OCwgMTQ1LjMyODEyNSAtNDggTS0xNDUuMzI4MTI1IC00OCBDLTU0LjUyOTA3NjI5ODgwNjg0IC00OCwgMzYuMjY5OTcyNDAyMzg2MzE1IC00OCwgMTQ1LjMyODEyNSAtNDgiPjwvcGF0aD48L2c+PC9nPjxnIHRyYW5zZm9ybT0idHJhbnNsYXRlKDEzMTYuNjA5MzQ0NDgyNDIxOSwgNzc5LjA5OTk5ODk1MDk1ODMpIiBpZD0iY2xhc3NJZC1Qcm9maWxlUGFnZS00MDciIGNsYXNzPSJub2RlIGRlZmF1bHQiPjxnIGNsYXNzPSJiYXNpYyBsYWJlbC1jb250YWluZXIiPjxwYXRoIHN0eWxlPSIiIGZpbGw9IiNlZWUiIHN0cm9rZS13aWR0aD0iMCIgc3Ryb2tlPSJub25lIiBkPSJNLTE0NC4zNjg3NTkxNTUyNzM0NCAtMTIwIEwxNDQuMzY4NzU5MTU1MjczNDQgLTEyMCBMMTQ0LjM2ODc1OTE1NTI3MzQ0IDEyMCBMLTE0NC4zNjg3NTkxNTUyNzM0NCAxMjAiPjwvcGF0aD48cGF0aCBzdHlsZT0iIiBmaWxsPSJub25lIiBzdHJva2Utd2lkdGg9IjEuMyIgc3Ryb2tlPSIjOTk5IiBkPSJNLTE0NC4zNjg3NTkxNTUyNzM0NCAtMTIwIEMtODEuMzI1MTQ1MDMzMDg2OTggLTEyMCwgLTE4LjI4MTUzMDkxMDkwMDUzIC0xMjAsIDE0NC4zNjg3NTkxNTUyNzM0NCAtMTIwIE0tMTQ0LjM2ODc1OTE1NTI3MzQ0IC0xMjAgQy03NC40ODcwNDI5MDM3OTI5OCAtMTIwLCAtNC42MDUzMjY2NTIzMTI1MjcgLTEyMCwgMTQ0LjM2ODc1OTE1NTI3MzQ0IC0xMjAgTTE0NC4zNjg3NTkxNTUyNzM0NCAtMTIwIEMxNDQuMzY4NzU5MTU1MjczNDQgLTUyLjI5OTkzNDUyNTcyMzksIDE0NC4zNjg3NTkxNTUyNzM0NCAxNS40MDAxMzA5NDg1NTIyMDMsIDE0NC4zNjg3NTkxNTUyNzM0NCAxMjAgTTE0NC4zNjg3NTkxNTUyNzM0NCAtMTIwIEMxNDQuMzY4NzU5MTU1MjczNDQgLTMzLjE4NjAzNzc2NjIxNDE4NCwgMTQ0LjM2ODc1OTE1NTI3MzQ0IDUzLjYyNzkyNDQ2NzU3MTYzLCAxNDQuMzY4NzU5MTU1MjczNDQgMTIwIE0xNDQuMzY4NzU5MTU1MjczNDQgMTIwIEM4Ni4yMjk3NDg1MDU3MjMzMSAxMjAsIDI4LjA5MDczNzg1NjE3MzE5IDEyMCwgLTE0NC4zNjg3NTkxNTUyNzM0NCAxMjAgTTE0NC4zNjg3NTkxNTUyNzM0NCAxMjAgQzY5LjA4MjM5MDU1NDM3NDI5IDEyMCwgLTYuMjAzOTc4MDQ2NTI0ODY3IDEyMCwgLTE0NC4zNjg3NTkxNTUyNzM0NCAxMjAgTS0xNDQuMzY4NzU5MTU1MjczNDQgMTIwIEMtMTQ0LjM2ODc1OTE1NTI3MzQ0IDcwLjk2MjQzNzkzMzEwODY3LCAtMTQ0LjM2ODc1OTE1NTI3MzQ0IDIxLjkyNDg3NTg2NjIxNzM1LCAtMTQ0LjM2ODc1OTE1NTI3MzQ0IC0xMjAgTS0xNDQuMzY4NzU5MTU1MjczNDQgMTIwIEMtMTQ0LjM2ODc1OTE1NTI3MzQ0IDU0LjM1NjIyNTcyMzUzODIxNiwgLTE0NC4zNjg3NTkxNTUyNzM0NCAtMTEuMjg3NTQ4NTUyOTIzNTY4LCAtMTQ0LjM2ODc1OTE1NTI3MzQ0IC0xMjAiPjwvcGF0aD48L2c+PGcgdHJhbnNmb3JtPSJ0cmFuc2xhdGUoMCwgLTk2KSIgY2xhc3M9ImFubm90YXRpb24tZ3JvdXAgdGV4dCI+PC9nPjxnIHRyYW5zZm9ybT0idHJhbnNsYXRlKC00Mi4xMzc1MDA3NjI5Mzk0NSwgLTk2KSIgY2xhc3M9ImxhYmVsLWdyb3VwIHRleHQiPjxnIHRyYW5zZm9ybT0idHJhbnNsYXRlKDAsLTEyKSIgc3R5bGU9ImZvbnQtd2VpZ2h0OiBib2xkZXIiIGNsYXNzPSJsYWJlbCI+PGZvcmVpZ25PYmplY3QgaGVpZ2h0PSIyNCIgd2lkdGg9Ijg0LjI3NTAwMTUyNTg3ODkiPjxkaXYgc3R5bGU9ImRpc3BsYXk6IHRhYmxlLWNlbGw7IHdoaXRlLXNwYWNlOiBub3dyYXA7IGxpbmUtaGVpZ2h0OiAxLjU7IG1heC13aWR0aDogMTI5cHg7IHRleHQtYWxpZ246IGNlbnRlcjsiIHhtbG5zPSJodHRwOi8vd3d3LnczLm9yZy8xOTk5L3hodG1sIj48c3BhbiBzdHlsZT0iIiBjbGFzcz0ibm9kZUxhYmVsIG1hcmtkb3duLW5vZGUtbGFiZWwiPjxwPlByb2ZpbGVQYWdlPC9wPjwvc3Bhbj48L2Rpdj48L2ZvcmVpZ25PYmplY3Q+PC9nPjwvZz48ZyB0cmFuc2Zvcm09InRyYW5zbGF0ZSgtMTMyLjM2ODc1OTE1NTI3MzQ0LCAtNDgpIiBjbGFzcz0ibWVtYmVycy1ncm91cCB0ZXh0Ij48ZyB0cmFuc2Zvcm09InRyYW5zbGF0ZSgwLC0xMikiIHN0eWxlPSIiIGNsYXNzPSJsYWJlbCI+PGZvcmVpZ25PYmplY3QgaGVpZ2h0PSIyNCIgd2lkdGg9IjE0MS40NzUwMDYxMDM1MTU2MiI+PGRpdiBzdHlsZT0iZGlzcGxheTogdGFibGUtY2VsbDsgd2hpdGUtc3BhY2U6IG5vd3JhcDsgbGluZS1oZWlnaHQ6IDEuNTsgbWF4LXdpZHRoOiAxOTZweDsgdGV4dC1hbGlnbjogY2VudGVyOyIgeG1sbnM9Imh0dHA6Ly93d3cudzMub3JnLzE5OTkveGh0bWwiPjxzcGFuIHN0eWxlPSIiIGNsYXNzPSJub2RlTGFiZWwgbWFya2Rvd24tbm9kZS1sYWJlbCI+PHA+LVVzZXI/IF9jdXJyZW50VXNlcjwvcD48L3NwYW4+PC9kaXY+PC9mb3JlaWduT2JqZWN0PjwvZz48ZyB0cmFuc2Zvcm09InRyYW5zbGF0ZSgwLDEyKSIgc3R5bGU9IiIgY2xhc3M9ImxhYmVsIj48Zm9yZWlnbk9iamVjdCBoZWlnaHQ9IjI0IiB3aWR0aD0iMTQxLjYxMjUwMzA1MTc1NzgiPjxkaXYgc3R5bGU9ImRpc3BsYXk6IHRhYmxlLWNlbGw7IHdoaXRlLXNwYWNlOiBub3dyYXA7IGxpbmUtaGVpZ2h0OiAxLjU7IG1heC13aWR0aDogMTkzcHg7IHRleHQtYWxpZ246IGNlbnRlcjsiIHhtbG5zPSJodHRwOi8vd3d3LnczLm9yZy8xOTk5L3hodG1sIj48c3BhbiBzdHlsZT0iIiBjbGFzcz0ibm9kZUxhYmVsIG1hcmtkb3duLW5vZGUtbGFiZWwiPjxwPi1DbGllbnQ/IF9jbGllbnREYXRhPC9wPjwvc3Bhbj48L2Rpdj48L2ZvcmVpZ25PYmplY3Q+PC9nPjxnIHRyYW5zZm9ybT0idHJhbnNsYXRlKDAsMzYpIiBzdHlsZT0iIiBjbGFzcz0ibGFiZWwiPjxmb3JlaWduT2JqZWN0IGhlaWdodD0iMjQiIHdpZHRoPSIxMTYuMjc1MDAxNTI1ODc4OSI+PGRpdiBzdHlsZT0iZGlzcGxheTogdGFibGUtY2VsbDsgd2hpdGUtc3BhY2U6IG5vd3JhcDsgbGluZS1oZWlnaHQ6IDEuNTsgbWF4LXdpZHRoOiAxNzRweDsgdGV4dC1hbGlnbjogY2VudGVyOyIgeG1sbnM9Imh0dHA6Ly93d3cudzMub3JnLzE5OTkveGh0bWwiPjxzcGFuIHN0eWxlPSIiIGNsYXNzPSJub2RlTGFiZWwgbWFya2Rvd24tbm9kZS1sYWJlbCI+PHA+LWJvb2wgX2lzTG9hZGluZzwvcD48L3NwYW4+PC9kaXY+PC9mb3JlaWduT2JqZWN0PjwvZz48L2c+PGcgdHJhbnNmb3JtPSJ0cmFuc2xhdGUoLTEzMi4zNjg3NTkxNTUyNzM0NCwgNDgpIiBjbGFzcz0ibWV0aG9kcy1ncm91cCB0ZXh0Ij48ZyB0cmFuc2Zvcm09InRyYW5zbGF0ZSgwLC0xMikiIHN0eWxlPSIiIGNsYXNzPSJsYWJlbCI+PGZvcmVpZ25PYmplY3QgaGVpZ2h0PSIyNCIgd2lkdGg9IjIyMi42MDAwMDYxMDM1MTU2MiI+PGRpdiBzdHlsZT0iZGlzcGxheTogdGFibGUtY2VsbDsgd2hpdGUtc3BhY2U6IG5vd3JhcDsgbGluZS1oZWlnaHQ6IDEuNTsgbWF4LXdpZHRoOiAzMTZweDsgdGV4dC1hbGlnbjogY2VudGVyOyIgeG1sbnM9Imh0dHA6Ly93d3cudzMub3JnLzE5OTkveGh0bWwiPjxzcGFuIHN0eWxlPSIiIGNsYXNzPSJub2RlTGFiZWwgbWFya2Rvd24tbm9kZS1sYWJlbCI+PHA+K0Z1dHVyZSZsdDt2b2lkJmd0OyBfbG9hZFVzZXJEYXRhKCk8L3A+PC9zcGFuPjwvZGl2PjwvZm9yZWlnbk9iamVjdD48L2c+PGcgdHJhbnNmb3JtPSJ0cmFuc2xhdGUoMCwxMikiIHN0eWxlPSIiIGNsYXNzPSJsYWJlbCI+PGZvcmVpZ25PYmplY3QgaGVpZ2h0PSIyNCIgd2lkdGg9IjE4MC44ODc0OTY5NDgyNDIyIj48ZGl2IHN0eWxlPSJkaXNwbGF5OiB0YWJsZS1jZWxsOyB3aGl0ZS1zcGFjZTogbm93cmFwOyBsaW5lLWhlaWdodDogMS41OyBtYXgtd2lkdGg6IDI3NnB4OyB0ZXh0LWFsaWduOiBjZW50ZXI7IiB4bWxucz0iaHR0cDovL3d3dy53My5vcmcvMTk5OS94aHRtbCI+PHNwYW4gc3R5bGU9IiIgY2xhc3M9Im5vZGVMYWJlbCBtYXJrZG93bi1ub2RlLWxhYmVsIj48cD4rRnV0dXJlJmx0O3ZvaWQmZ3Q7IF9zaWduT3V0KCk8L3A+PC9zcGFuPjwvZGl2PjwvZm9yZWlnbk9iamVjdD48L2c+PGcgdHJhbnNmb3JtPSJ0cmFuc2xhdGUoMCwzNikiIHN0eWxlPSIiIGNsYXNzPSJsYWJlbCI+PGZvcmVpZ25PYmplY3QgaGVpZ2h0PSIyNCIgd2lkdGg9IjIxNS40ODc1MDMwNTE3NTc4Ij48ZGl2IHN0eWxlPSJkaXNwbGF5OiB0YWJsZS1jZWxsOyB3aGl0ZS1zcGFjZTogbm93cmFwOyBsaW5lLWhlaWdodDogMS41OyBtYXgtd2lkdGg6IDI2N3B4OyB0ZXh0LWFsaWduOiBjZW50ZXI7IiB4bWxucz0iaHR0cDovL3d3dy53My5vcmcvMTk5OS94aHRtbCI+PHNwYW4gc3R5bGU9IiIgY2xhc3M9Im5vZGVMYWJlbCBtYXJrZG93bi1ub2RlLWxhYmVsIj48cD4rdm9pZCBfbmF2aWdhdGVUb0VkaXRQcm9maWxlKCk8L3A+PC9zcGFuPjwvZGl2PjwvZm9yZWlnbk9iamVjdD48L2c+PC9nPjxnIHN0eWxlPSIiIGNsYXNzPSJkaXZpZGVyIj48cGF0aCBzdHlsZT0iIiBmaWxsPSJub25lIiBzdHJva2Utd2lkdGg9IjEuMyIgc3Ryb2tlPSIjOTk5IiBkPSJNLTE0NC4zNjg3NTkxNTUyNzM0NCAtNzIgQy02My41MTAwNDAxODMzNTU2IC03MiwgMTcuMzQ4Njc4Nzg4NTYyMjQgLTcyLCAxNDQuMzY4NzU5MTU1MjczNDQgLTcyIE0tMTQ0LjM2ODc1OTE1NTI3MzQ0IC03MiBDLTcwLjkyNjc1NDcwNjAxNzk5IC03MiwgMi41MTUyNDk3NDMyMzc0NjE2IC03MiwgMTQ0LjM2ODc1OTE1NTI3MzQ0IC03MiI+PC9wYXRoPjwvZz48ZyBzdHlsZT0iIiBjbGFzcz0iZGl2aWRlciI+PHBhdGggc3R5bGU9IiIgZmlsbD0ibm9uZSIgc3Ryb2tlLXdpZHRoPSIxLjMiIHN0cm9rZT0iIzk5OSIgZD0iTS0xNDQuMzY4NzU5MTU1MjczNDQgMjQgQy01NC45OTUzOTI1MTYwNzQ5ODYgMjQsIDM0LjM3Nzk3NDEyMzEyMzQ2NSAyNCwgMTQ0LjM2ODc1OTE1NTI3MzQ0IDI0IE0tMTQ0LjM2ODc1OTE1NTI3MzQ0IDI0IEMtNTAuNjU1NTg5OTg0OTc2MSAyNCwgNDMuMDU3NTc5MTg1MzIxMjMgMjQsIDE0NC4zNjg3NTkxNTUyNzM0NCAyNCI+PC9wYXRoPjwvZz48L2c+PGcgdHJhbnNmb3JtPSJ0cmFuc2xhdGUoMTMxNi42MDkzNDQ0ODI0MjE5LCAxNDIwLjk5OTk5ODU2OTQ4ODUpIiBpZD0iY2xhc3NJZC1BZG1pblBhZ2UtNDA4IiBjbGFzcz0ibm9kZSBkZWZhdWx0Ij48ZyBjbGFzcz0iYmFzaWMgbGFiZWwtY29udGFpbmVyIj48cGF0aCBzdHlsZT0iIiBmaWxsPSIjZWVlIiBzdHJva2Utd2lkdGg9IjAiIHN0cm9rZT0ibm9uZSIgZD0iTS0yMDQuNjE1NjE1ODQ0NzI2NTYgLTE0NCBMMjA0LjYxNTYxNTg0NDcyNjU2IC0xNDQgTDIwNC42MTU2MTU4NDQ3MjY1NiAxNDQgTC0yMDQuNjE1NjE1ODQ0NzI2NTYgMTQ0Ij48L3BhdGg+PHBhdGggc3R5bGU9IiIgZmlsbD0ibm9uZSIgc3Ryb2tlLXdpZHRoPSIxLjMiIHN0cm9rZT0iIzk5OSIgZD0iTS0yMDQuNjE1NjE1ODQ0NzI2NTYgLTE0NCBDLTcwLjc1Mjg5MDg5MDgwMDUgLTE0NCwgNjMuMTA5ODM0MDYzMTI1NTYgLTE0NCwgMjA0LjYxNTYxNTg0NDcyNjU2IC0xNDQgTS0yMDQuNjE1NjE1ODQ0NzI2NTYgLTE0NCBDLTczLjcyOTI2ODg0MjE4NjIgLTE0NCwgNTcuMTU3MDc4MTYwMzU0MTYgLTE0NCwgMjA0LjYxNTYxNTg0NDcyNjU2IC0xNDQgTTIwNC42MTU2MTU4NDQ3MjY1NiAtMTQ0IEMyMDQuNjE1NjE1ODQ0NzI2NTYgLTQ2LjgyMDc5NzkyNjA2NjkxNiwgMjA0LjYxNTYxNTg0NDcyNjU2IDUwLjM1ODQwNDE0Nzg2NjE3LCAyMDQuNjE1NjE1ODQ0NzI2NTYgMTQ0IE0yMDQuNjE1NjE1ODQ0NzI2NTYgLTE0NCBDMjA0LjYxNTYxNTg0NDcyNjU2IC03Mi42ODEzNTQ2MTc3MDMyLCAyMDQuNjE1NjE1ODQ0NzI2NTYgLTEuMzYyNzA5MjM1NDA2NDEzMiwgMjA0LjYxNTYxNTg0NDcyNjU2IDE0NCBNMjA0LjYxNTYxNTg0NDcyNjU2IDE0NCBDMTIyLjcxMDU5MzQ2ODc1NTIgMTQ0LCA0MC44MDU1NzEwOTI3ODM4NSAxNDQsIC0yMDQuNjE1NjE1ODQ0NzI2NTYgMTQ0IE0yMDQuNjE1NjE1ODQ0NzI2NTYgMTQ0IEMxMTQuNzczODI3MjgxNTQxNDEgMTQ0LCAyNC45MzIwMzg3MTgzNTYyNjcgMTQ0LCAtMjA0LjYxNTYxNTg0NDcyNjU2IDE0NCBNLTIwNC42MTU2MTU4NDQ3MjY1NiAxNDQgQy0yMDQuNjE1NjE1ODQ0NzI2NTYgODQuMzU3NzMzOTQxMTQwMjIsIC0yMDQuNjE1NjE1ODQ0NzI2NTYgMjQuNzE1NDY3ODgyMjgwNDY0LCAtMjA0LjYxNTYxNTg0NDcyNjU2IC0xNDQgTS0yMDQuNjE1NjE1ODQ0NzI2NTYgMTQ0IEMtMjA0LjYxNTYxNTg0NDcyNjU2IDQ5LjgxNzc3MjM2NDk5NDcyNCwgLTIwNC42MTU2MTU4NDQ3MjY1NiAtNDQuMzY0NDU1MjcwMDEwNTUsIC0yMDQuNjE1NjE1ODQ0NzI2NTYgLTE0NCI+PC9wYXRoPjwvZz48ZyB0cmFuc2Zvcm09InRyYW5zbGF0ZSgwLCAtMTIwKSIgY2xhc3M9ImFubm90YXRpb24tZ3JvdXAgdGV4dCI+PC9nPjxnIHRyYW5zZm9ybT0idHJhbnNsYXRlKC00MC44OTM3NDkyMzcwNjA1NSwgLTEyMCkiIGNsYXNzPSJsYWJlbC1ncm91cCB0ZXh0Ij48ZyB0cmFuc2Zvcm09InRyYW5zbGF0ZSgwLC0xMikiIHN0eWxlPSJmb250LXdlaWdodDogYm9sZGVyIiBjbGFzcz0ibGFiZWwiPjxmb3JlaWduT2JqZWN0IGhlaWdodD0iMjQiIHdpZHRoPSI4MS43ODc0OTg0NzQxMjExIj48ZGl2IHN0eWxlPSJkaXNwbGF5OiB0YWJsZS1jZWxsOyB3aGl0ZS1zcGFjZTogbm93cmFwOyBsaW5lLWhlaWdodDogMS41OyBtYXgtd2lkdGg6IDEzMnB4OyB0ZXh0LWFsaWduOiBjZW50ZXI7IiB4bWxucz0iaHR0cDovL3d3dy53My5vcmcvMTk5OS94aHRtbCI+PHNwYW4gc3R5bGU9IiIgY2xhc3M9Im5vZGVMYWJlbCBtYXJrZG93bi1ub2RlLWxhYmVsIj48cD5BZG1pblBhZ2U8L3A+PC9zcGFuPjwvZGl2PjwvZm9yZWlnbk9iamVjdD48L2c+PC9nPjxnIHRyYW5zZm9ybT0idHJhbnNsYXRlKC0xOTIuNjE1NjE1ODQ0NzI2NTYsIC03MikiIGNsYXNzPSJtZW1iZXJzLWdyb3VwIHRleHQiPjxnIHRyYW5zZm9ybT0idHJhbnNsYXRlKDAsLTEyKSIgc3R5bGU9IiIgY2xhc3M9ImxhYmVsIj48Zm9yZWlnbk9iamVjdCBoZWlnaHQ9IjI0IiB3aWR0aD0iMTMzLjYyNSI+PGRpdiBzdHlsZT0iZGlzcGxheTogdGFibGUtY2VsbDsgd2hpdGUtc3BhY2U6IG5vd3JhcDsgbGluZS1oZWlnaHQ6IDEuNTsgbWF4LXdpZHRoOiAyMjlweDsgdGV4dC1hbGlnbjogY2VudGVyOyIgeG1sbnM9Imh0dHA6Ly93d3cudzMub3JnLzE5OTkveGh0bWwiPjxzcGFuIHN0eWxlPSIiIGNsYXNzPSJub2RlTGFiZWwgbWFya2Rvd24tbm9kZS1sYWJlbCI+PHA+LUxpc3QmbHQ7TWFwJmd0OyBfaG90ZWxzPC9wPjwvc3Bhbj48L2Rpdj48L2ZvcmVpZ25PYmplY3Q+PC9nPjxnIHRyYW5zZm9ybT0idHJhbnNsYXRlKDAsMTIpIiBzdHlsZT0iIiBjbGFzcz0ibGFiZWwiPjxmb3JlaWduT2JqZWN0IGhlaWdodD0iMjQiIHdpZHRoPSIxMTYuMjc1MDAxNTI1ODc4OSI+PGRpdiBzdHlsZT0iZGlzcGxheTogdGFibGUtY2VsbDsgd2hpdGUtc3BhY2U6IG5vd3JhcDsgbGluZS1oZWlnaHQ6IDEuNTsgbWF4LXdpZHRoOiAxNzRweDsgdGV4dC1hbGlnbjogY2VudGVyOyIgeG1sbnM9Imh0dHA6Ly93d3cudzMub3JnLzE5OTkveGh0bWwiPjxzcGFuIHN0eWxlPSIiIGNsYXNzPSJub2RlTGFiZWwgbWFya2Rvd24tbm9kZS1sYWJlbCI+PHA+LWJvb2wgX2lzTG9hZGluZzwvcD48L3NwYW4+PC9kaXY+PC9mb3JlaWduT2JqZWN0PjwvZz48L2c+PGcgdHJhbnNmb3JtPSJ0cmFuc2xhdGUoLTE5Mi42MTU2MTU4NDQ3MjY1NiwgMCkiIGNsYXNzPSJtZXRob2RzLWdyb3VwIHRleHQiPjxnIHRyYW5zZm9ybT0idHJhbnNsYXRlKDAsLTEyKSIgc3R5bGU9IiIgY2xhc3M9ImxhYmVsIj48Zm9yZWlnbk9iamVjdCBoZWlnaHQ9IjI0IiB3aWR0aD0iMjAzLjE1MDAwOTE1NTI3MzQ0Ij48ZGl2IHN0eWxlPSJkaXNwbGF5OiB0YWJsZS1jZWxsOyB3aGl0ZS1zcGFjZTogbm93cmFwOyBsaW5lLWhlaWdodDogMS41OyBtYXgtd2lkdGg6IDI5N3B4OyB0ZXh0LWFsaWduOiBjZW50ZXI7IiB4bWxucz0iaHR0cDovL3d3dy53My5vcmcvMTk5OS94aHRtbCI+PHNwYW4gc3R5bGU9IiIgY2xhc3M9Im5vZGVMYWJlbCBtYXJrZG93bi1ub2RlLWxhYmVsIj48cD4rRnV0dXJlJmx0O3ZvaWQmZ3Q7IF9sb2FkSG90ZWxzKCk8L3A+PC9zcGFuPjwvZGl2PjwvZm9yZWlnbk9iamVjdD48L2c+PGcgdHJhbnNmb3JtPSJ0cmFuc2xhdGUoMCwxMikiIHN0eWxlPSIiIGNsYXNzPSJsYWJlbCI+PGZvcmVpZ25PYmplY3QgaGVpZ2h0PSIyNCIgd2lkdGg9IjMwOS4xMTI1MTgzMTA1NDY5Ij48ZGl2IHN0eWxlPSJkaXNwbGF5OiB0YWJsZS1jZWxsOyB3aGl0ZS1zcGFjZTogbm93cmFwOyBsaW5lLWhlaWdodDogMS41OyBtYXgtd2lkdGg6IDM5OHB4OyB0ZXh0LWFsaWduOiBjZW50ZXI7IiB4bWxucz0iaHR0cDovL3d3dy53My5vcmcvMTk5OS94aHRtbCI+PHNwYW4gc3R5bGU9IiIgY2xhc3M9Im5vZGVMYWJlbCBtYXJrZG93bi1ub2RlLWxhYmVsIj48cD4rRnV0dXJlJmx0O3ZvaWQmZ3Q7IF9kZWxldGVIb3RlbChTdHJpbmcgaG90ZWxJZCk8L3A+PC9zcGFuPjwvZGl2PjwvZm9yZWlnbk9iamVjdD48L2c+PGcgdHJhbnNmb3JtPSJ0cmFuc2xhdGUoMCwzNikiIHN0eWxlPSIiIGNsYXNzPSJsYWJlbCI+PGZvcmVpZ25PYmplY3QgaGVpZ2h0PSIyNCIgd2lkdGg9IjIzOS42Mzc0OTY5NDgyNDIyIj48ZGl2IHN0eWxlPSJkaXNwbGF5OiB0YWJsZS1jZWxsOyB3aGl0ZS1zcGFjZTogbm93cmFwOyBsaW5lLWhlaWdodDogMS41OyBtYXgtd2lkdGg6IDI5N3B4OyB0ZXh0LWFsaWduOiBjZW50ZXI7IiB4bWxucz0iaHR0cDovL3d3dy53My5vcmcvMTk5OS94aHRtbCI+PHNwYW4gc3R5bGU9IiIgY2xhc3M9Im5vZGVMYWJlbCBtYXJrZG93bi1ub2RlLWxhYmVsIj48cD4rdm9pZCBfbmF2aWdhdGVUb0FkZEhvdGVsUGFnZSgpPC9wPjwvc3Bhbj48L2Rpdj48L2ZvcmVpZ25PYmplY3Q+PC9nPjxnIHRyYW5zZm9ybT0idHJhbnNsYXRlKDAsNjApIiBzdHlsZT0iIiBjbGFzcz0ibGFiZWwiPjxmb3JlaWduT2JqZWN0IGhlaWdodD0iMjQiIHdpZHRoPSIzNDQuMzM3NDkzODk2NDg0NCI+PGRpdiBzdHlsZT0iZGlzcGxheTogdGFibGUtY2VsbDsgd2hpdGUtc3BhY2U6IG5vd3JhcDsgbGluZS1oZWlnaHQ6IDEuNTsgbWF4LXdpZHRoOiA0MDBweDsgdGV4dC1hbGlnbjogY2VudGVyOyIgeG1sbnM9Imh0dHA6Ly93d3cudzMub3JnLzE5OTkveGh0bWwiPjxzcGFuIHN0eWxlPSIiIGNsYXNzPSJub2RlTGFiZWwgbWFya2Rvd24tbm9kZS1sYWJlbCI+PHA+K3ZvaWQgX25hdmlnYXRlVG9FZGl0SG90ZWxQYWdlKE1hcCBob3RlbERhdGEpPC9wPjwvc3Bhbj48L2Rpdj48L2ZvcmVpZ25PYmplY3Q+PC9nPjxnIHRyYW5zZm9ybT0idHJhbnNsYXRlKDAsODQpIiBzdHlsZT0iIiBjbGFzcz0ibGFiZWwiPjxmb3JlaWduT2JqZWN0IGhlaWdodD0iMjQiIHdpZHRoPSIyMjIuNjc1MDAzMDUxNzU3OCI+PGRpdiBzdHlsZT0iZGlzcGxheTogdGFibGUtY2VsbDsgd2hpdGUtc3BhY2U6IG5vd3JhcDsgbGluZS1oZWlnaHQ6IDEuNTsgbWF4LXdpZHRoOiAyNzdweDsgdGV4dC1hbGlnbjogY2VudGVyOyIgeG1sbnM9Imh0dHA6Ly93d3cudzMub3JnLzE5OTkveGh0bWwiPjxzcGFuIHN0eWxlPSIiIGNsYXNzPSJub2RlTGFiZWwgbWFya2Rvd24tbm9kZS1sYWJlbCI+PHA+K3ZvaWQgX25hdmlnYXRlVG9DbGllbnRzUGFnZSgpPC9wPjwvc3Bhbj48L2Rpdj48L2ZvcmVpZ25PYmplY3Q+PC9nPjxnIHRyYW5zZm9ybT0idHJhbnNsYXRlKDAsMTA4KSIgc3R5bGU9IiIgY2xhc3M9ImxhYmVsIj48Zm9yZWlnbk9iamVjdCBoZWlnaHQ9IjI0IiB3aWR0aD0iMTcyLjIxMjUwOTE1NTI3MzQ0Ij48ZGl2IHN0eWxlPSJkaXNwbGF5OiB0YWJsZS1jZWxsOyB3aGl0ZS1zcGFjZTogbm93cmFwOyBsaW5lLWhlaWdodDogMS41OyBtYXgtd2lkdGg6IDI2N3B4OyB0ZXh0LWFsaWduOiBjZW50ZXI7IiB4bWxucz0iaHR0cDovL3d3dy53My5vcmcvMTk5OS94aHRtbCI+PHNwYW4gc3R5bGU9IiIgY2xhc3M9Im5vZGVMYWJlbCBtYXJrZG93bi1ub2RlLWxhYmVsIj48cD4rRnV0dXJlJmx0O3ZvaWQmZ3Q7IF9sb2dvdXQoKTwvcD48L3NwYW4+PC9kaXY+PC9mb3JlaWduT2JqZWN0PjwvZz48L2c+PGcgc3R5bGU9IiIgY2xhc3M9ImRpdmlkZXIiPjxwYXRoIHN0eWxlPSIiIGZpbGw9Im5vbmUiIHN0cm9rZS13aWR0aD0iMS4zIiBzdHJva2U9IiM5OTkiIGQ9Ik0tMjA0LjYxNTYxNTg0NDcyNjU2IC05NiBDLTQzLjAxNjM0MTI3MDM2MzQgLTk2LCAxMTguNTgyOTMzMzAzOTk5NzcgLTk2LCAyMDQuNjE1NjE1ODQ0NzI2NTYgLTk2IE0tMjA0LjYxNTYxNTg0NDcyNjU2IC05NiBDLTY5LjUyMDMwNDg1NzMzOTcxIC05NiwgNjUuNTc1MDA2MTMwMDQ3MTQgLTk2LCAyMDQuNjE1NjE1ODQ0NzI2NTYgLTk2Ij48L3BhdGg+PC9nPjxnIHN0eWxlPSIiIGNsYXNzPSJkaXZpZGVyIj48cGF0aCBzdHlsZT0iIiBmaWxsPSJub25lIiBzdHJva2Utd2lkdGg9IjEuMyIgc3Ryb2tlPSIjOTk5IiBkPSJNLTIwNC42MTU2MTU4NDQ3MjY1NiAtMjQgQy0xMDUuMDU5OTA3OTkwNjE4MjcgLTI0LCAtNS41MDQyMDAxMzY1MDk5NzkgLTI0LCAyMDQuNjE1NjE1ODQ0NzI2NTYgLTI0IE0tMjA0LjYxNTYxNTg0NDcyNjU2IC0yNCBDLTg2LjYzMzE3NTU0NDAyOTQgLTI0LCAzMS4zNDkyNjQ3NTY2Njc3NjUgLTI0LCAyMDQuNjE1NjE1ODQ0NzI2NTYgLTI0Ij48L3BhdGg+PC9nPjwvZz48ZyB0cmFuc2Zvcm09InRyYW5zbGF0ZSgyMDIzLjQ3MDI2ODI0OTUxMTcsIDE3NTAuMDk5OTk4NDc0MTIxKSIgaWQ9ImNsYXNzSWQtQ2xpZW50c1BhZ2UtNDA5IiBjbGFzcz0ibm9kZSBkZWZhdWx0Ij48ZyBjbGFzcz0iYmFzaWMgbGFiZWwtY29udGFpbmVyIj48cGF0aCBzdHlsZT0iIiBmaWxsPSIjZWVlIiBzdHJva2Utd2lkdGg9IjAiIHN0cm9rZT0ibm9uZSIgZD0iTS0yMDMuMDc0OTk2OTQ4MjQyMiAtMTIwIEwyMDMuMDc0OTk2OTQ4MjQyMiAtMTIwIEwyMDMuMDc0OTk2OTQ4MjQyMiAxMjAgTC0yMDMuMDc0OTk2OTQ4MjQyMiAxMjAiPjwvcGF0aD48cGF0aCBzdHlsZT0iIiBmaWxsPSJub25lIiBzdHJva2Utd2lkdGg9IjEuMyIgc3Ryb2tlPSIjOTk5IiBkPSJNLTIwMy4wNzQ5OTY5NDgyNDIyIC0xMjAgQy0xMTAuODIzMTU3NTMwNTIzODYgLTEyMCwgLTE4LjU3MTMxODExMjgwNTUzIC0xMjAsIDIwMy4wNzQ5OTY5NDgyNDIyIC0xMjAgTS0yMDMuMDc0OTk2OTQ4MjQyMiAtMTIwIEMtNjEuNjk4NDg2MTEzODAyMDkgLTEyMCwgNzkuNjc4MDI0NzIwNjM4IC0xMjAsIDIwMy4wNzQ5OTY5NDgyNDIyIC0xMjAgTTIwMy4wNzQ5OTY5NDgyNDIyIC0xMjAgQzIwMy4wNzQ5OTY5NDgyNDIyIC0zMi4wNzQyMjA0NjYyMjI2MSwgMjAzLjA3NDk5Njk0ODI0MjIgNTUuODUxNTU5MDY3NTU0Nzc0LCAyMDMuMDc0OTk2OTQ4MjQyMiAxMjAgTTIwMy4wNzQ5OTY5NDgyNDIyIC0xMjAgQzIwMy4wNzQ5OTY5NDgyNDIyIC03MC45NjEwMDQ5NzY3NjY5MywgMjAzLjA3NDk5Njk0ODI0MjIgLTIxLjkyMjAwOTk1MzUzMzg2LCAyMDMuMDc0OTk2OTQ4MjQyMiAxMjAgTTIwMy4wNzQ5OTY5NDgyNDIyIDEyMCBDOTguOTY5MTE0NjE5ODg4MzYgMTIwLCAtNS4xMzY3Njc3MDg0NjU0NyAxMjAsIC0yMDMuMDc0OTk2OTQ4MjQyMiAxMjAgTTIwMy4wNzQ5OTY5NDgyNDIyIDEyMCBDODAuMTY3MjgyNjMxNTU5NzkgMTIwLCAtNDIuNzQwNDMxNjg1MTIyNjE2IDEyMCwgLTIwMy4wNzQ5OTY5NDgyNDIyIDEyMCBNLTIwMy4wNzQ5OTY5NDgyNDIyIDEyMCBDLTIwMy4wNzQ5OTY5NDgyNDIyIDY2LjU0NzUxNTIzNzU4MDExLCAtMjAzLjA3NDk5Njk0ODI0MjIgMTMuMDk1MDMwNDc1MTYwMjE1LCAtMjAzLjA3NDk5Njk0ODI0MjIgLTEyMCBNLTIwMy4wNzQ5OTY5NDgyNDIyIDEyMCBDLTIwMy4wNzQ5OTY5NDgyNDIyIDQ2LjQ4MzY1MTIwOTk1OTEyLCAtMjAzLjA3NDk5Njk0ODI0MjIgLTI3LjAzMjY5NzU4MDA4MTc2LCAtMjAzLjA3NDk5Njk0ODI0MjIgLTEyMCI+PC9wYXRoPjwvZz48ZyB0cmFuc2Zvcm09InRyYW5zbGF0ZSgwLCAtOTYpIiBjbGFzcz0iYW5ub3RhdGlvbi1ncm91cCB0ZXh0Ij48L2c+PGcgdHJhbnNmb3JtPSJ0cmFuc2xhdGUoLTQyLjc3NTAwMTUyNTg3ODkwNiwgLTk2KSIgY2xhc3M9ImxhYmVsLWdyb3VwIHRleHQiPjxnIHRyYW5zZm9ybT0idHJhbnNsYXRlKDAsLTEyKSIgc3R5bGU9ImZvbnQtd2VpZ2h0OiBib2xkZXIiIGNsYXNzPSJsYWJlbCI+PGZvcmVpZ25PYmplY3QgaGVpZ2h0PSIyNCIgd2lkdGg9Ijg1LjU1MDAwMzA1MTc1NzgxIj48ZGl2IHN0eWxlPSJkaXNwbGF5OiB0YWJsZS1jZWxsOyB3aGl0ZS1zcGFjZTogbm93cmFwOyBsaW5lLWhlaWdodDogMS41OyBtYXgtd2lkdGg6IDEzMnB4OyB0ZXh0LWFsaWduOiBjZW50ZXI7IiB4bWxucz0iaHR0cDovL3d3dy53My5vcmcvMTk5OS94aHRtbCI+PHNwYW4gc3R5bGU9IiIgY2xhc3M9Im5vZGVMYWJlbCBtYXJrZG93bi1ub2RlLWxhYmVsIj48cD5DbGllbnRzUGFnZTwvcD48L3NwYW4+PC9kaXY+PC9mb3JlaWduT2JqZWN0PjwvZz48L2c+PGcgdHJhbnNmb3JtPSJ0cmFuc2xhdGUoLTE5MS4wNzQ5OTY5NDgyNDIyLCAtNDgpIiBjbGFzcz0ibWVtYmVycy1ncm91cCB0ZXh0Ij48ZyB0cmFuc2Zvcm09InRyYW5zbGF0ZSgwLC0xMikiIHN0eWxlPSIiIGNsYXNzPSJsYWJlbCI+PGZvcmVpZ25PYmplY3QgaGVpZ2h0PSIyNCIgd2lkdGg9IjEzNy41MjUwMDkxNTUyNzM0NCI+PGRpdiBzdHlsZT0iZGlzcGxheTogdGFibGUtY2VsbDsgd2hpdGUtc3BhY2U6IG5vd3JhcDsgbGluZS1oZWlnaHQ6IDEuNTsgbWF4LXdpZHRoOiAyMzFweDsgdGV4dC1hbGlnbjogY2VudGVyOyIgeG1sbnM9Imh0dHA6Ly93d3cudzMub3JnLzE5OTkveGh0bWwiPjxzcGFuIHN0eWxlPSIiIGNsYXNzPSJub2RlTGFiZWwgbWFya2Rvd24tbm9kZS1sYWJlbCI+PHA+LUxpc3QmbHQ7TWFwJmd0OyBfY2xpZW50czwvcD48L3NwYW4+PC9kaXY+PC9mb3JlaWduT2JqZWN0PjwvZz48ZyB0cmFuc2Zvcm09InRyYW5zbGF0ZSgwLDEyKSIgc3R5bGU9IiIgY2xhc3M9ImxhYmVsIj48Zm9yZWlnbk9iamVjdCBoZWlnaHQ9IjI0IiB3aWR0aD0iMTE2LjI3NTAwMTUyNTg3ODkiPjxkaXYgc3R5bGU9ImRpc3BsYXk6IHRhYmxlLWNlbGw7IHdoaXRlLXNwYWNlOiBub3dyYXA7IGxpbmUtaGVpZ2h0OiAxLjU7IG1heC13aWR0aDogMTc0cHg7IHRleHQtYWxpZ246IGNlbnRlcjsiIHhtbG5zPSJodHRwOi8vd3d3LnczLm9yZy8xOTk5L3hodG1sIj48c3BhbiBzdHlsZT0iIiBjbGFzcz0ibm9kZUxhYmVsIG1hcmtkb3duLW5vZGUtbGFiZWwiPjxwPi1ib29sIF9pc0xvYWRpbmc8L3A+PC9zcGFuPjwvZGl2PjwvZm9yZWlnbk9iamVjdD48L2c+PGcgdHJhbnNmb3JtPSJ0cmFuc2xhdGUoMCwzNikiIHN0eWxlPSIiIGNsYXNzPSJsYWJlbCI+PGZvcmVpZ25PYmplY3QgaGVpZ2h0PSIyNCIgd2lkdGg9IjI0MC40Mzc1Ij48ZGl2IHN0eWxlPSJkaXNwbGF5OiB0YWJsZS1jZWxsOyB3aGl0ZS1zcGFjZTogbm93cmFwOyBsaW5lLWhlaWdodDogMS41OyBtYXgtd2lkdGg6IDMzOHB4OyB0ZXh0LWFsaWduOiBjZW50ZXI7IiB4bWxucz0iaHR0cDovL3d3dy53My5vcmcvMTk5OS94aHRtbCI+PHNwYW4gc3R5bGU9IiIgY2xhc3M9Im5vZGVMYWJlbCBtYXJrZG93bi1ub2RlLWxhYmVsIj48cD4tTWFwJmx0O1N0cmluZywgaW50Jmd0OyBfYm9va2luZ0NvdW50czwvcD48L3NwYW4+PC9kaXY+PC9mb3JlaWduT2JqZWN0PjwvZz48L2c+PGcgdHJhbnNmb3JtPSJ0cmFuc2xhdGUoLTE5MS4wNzQ5OTY5NDgyNDIyLCA0OCkiIGNsYXNzPSJtZXRob2RzLWdyb3VwIHRleHQiPjxnIHRyYW5zZm9ybT0idHJhbnNsYXRlKDAsLTEyKSIgc3R5bGU9IiIgY2xhc3M9ImxhYmVsIj48Zm9yZWlnbk9iamVjdCBoZWlnaHQ9IjI0IiB3aWR0aD0iMjA2Ljk3NTAwNjEwMzUxNTYyIj48ZGl2IHN0eWxlPSJkaXNwbGF5OiB0YWJsZS1jZWxsOyB3aGl0ZS1zcGFjZTogbm93cmFwOyBsaW5lLWhlaWdodDogMS41OyBtYXgtd2lkdGg6IDI5OXB4OyB0ZXh0LWFsaWduOiBjZW50ZXI7IiB4bWxucz0iaHR0cDovL3d3dy53My5vcmcvMTk5OS94aHRtbCI+PHNwYW4gc3R5bGU9IiIgY2xhc3M9Im5vZGVMYWJlbCBtYXJrZG93bi1ub2RlLWxhYmVsIj48cD4rRnV0dXJlJmx0O3ZvaWQmZ3Q7IF9sb2FkQ2xpZW50cygpPC9wPjwvc3Bhbj48L2Rpdj48L2ZvcmVpZ25PYmplY3Q+PC9nPjxnIHRyYW5zZm9ybT0idHJhbnNsYXRlKDAsMTIpIiBzdHlsZT0iIiBjbGFzcz0ibGFiZWwiPjxmb3JlaWduT2JqZWN0IGhlaWdodD0iMjQiIHdpZHRoPSIzMTYuODI1MDEyMjA3MDMxMjUiPjxkaXYgc3R5bGU9ImRpc3BsYXk6IHRhYmxlLWNlbGw7IHdoaXRlLXNwYWNlOiBub3dyYXA7IGxpbmUtaGVpZ2h0OiAxLjU7IG1heC13aWR0aDogNDAycHg7IHRleHQtYWxpZ246IGNlbnRlcjsiIHhtbG5zPSJodHRwOi8vd3d3LnczLm9yZy8xOTk5L3hodG1sIj48c3BhbiBzdHlsZT0iIiBjbGFzcz0ibm9kZUxhYmVsIG1hcmtkb3duLW5vZGUtbGFiZWwiPjxwPitGdXR1cmUmbHQ7dm9pZCZndDsgX2RlbGV0ZUNsaWVudChTdHJpbmcgY2xpZW50SWQpPC9wPjwvc3Bhbj48L2Rpdj48L2ZvcmVpZ25PYmplY3Q+PC9nPjxnIHRyYW5zZm9ybT0idHJhbnNsYXRlKDAsMzYpIiBzdHlsZT0iIiBjbGFzcz0ibGFiZWwiPjxmb3JlaWduT2JqZWN0IGhlaWdodD0iMjQiIHdpZHRoPSIzMzkuMzc1Ij48ZGl2IHN0eWxlPSJkaXNwbGF5OiB0YWJsZS1jZWxsOyB3aGl0ZS1zcGFjZTogbm93cmFwOyBsaW5lLWhlaWdodDogMS41OyBtYXgtd2lkdGg6IDM5MXB4OyB0ZXh0LWFsaWduOiBjZW50ZXI7IiB4bWxucz0iaHR0cDovL3d3dy53My5vcmcvMTk5OS94aHRtbCI+PHNwYW4gc3R5bGU9IiIgY2xhc3M9Im5vZGVMYWJlbCBtYXJrZG93bi1ub2RlLWxhYmVsIj48cD4rdm9pZCBfbmF2aWdhdGVUb0NsaWVudERldGFpbHMoTWFwIGNsaWVudERhdGEpPC9wPjwvc3Bhbj48L2Rpdj48L2ZvcmVpZ25PYmplY3Q+PC9nPjwvZz48ZyBzdHlsZT0iIiBjbGFzcz0iZGl2aWRlciI+PHBhdGggc3R5bGU9IiIgZmlsbD0ibm9uZSIgc3Ryb2tlLXdpZHRoPSIxLjMiIHN0cm9rZT0iIzk5OSIgZD0iTS0yMDMuMDc0OTk2OTQ4MjQyMiAtNzIgQy0xMTQuNTIxNjkyNzE5NjgxMTMgLTcyLCAtMjUuOTY4Mzg4NDkxMTIwMDY2IC03MiwgMjAzLjA3NDk5Njk0ODI0MjIgLTcyIE0tMjAzLjA3NDk5Njk0ODI0MjIgLTcyIEMtMTE0Ljc3MDYyOTU4MjgwMjkxIC03MiwgLTI2LjQ2NjI2MjIxNzM2MzYzNSAtNzIsIDIwMy4wNzQ5OTY5NDgyNDIyIC03MiI+PC9wYXRoPjwvZz48ZyBzdHlsZT0iIiBjbGFzcz0iZGl2aWRlciI+PHBhdGggc3R5bGU9IiIgZmlsbD0ibm9uZSIgc3Ryb2tlLXdpZHRoPSIxLjMiIHN0cm9rZT0iIzk5OSIgZD0iTS0yMDMuMDc0OTk2OTQ4MjQyMiAyNCBDLTc3LjQwNDA4Mjk3OTI4Nzg5IDI0LCA0OC4yNjY4MzA5ODk2NjY0IDI0LCAyMDMuMDc0OTk2OTQ4MjQyMiAyNCBNLTIwMy4wNzQ5OTY5NDgyNDIyIDI0IEMtNDcuNjI4OTA5Mzc2MTY2ODMgMjQsIDEwNy44MTcxNzgxOTU5MDg1MyAyNCwgMjAzLjA3NDk5Njk0ODI0MjIgMjQiPjwvcGF0aD48L2c+PC9nPjxnIHRyYW5zZm9ybT0idHJhbnNsYXRlKDI3OTkuNzI5NjM3MTQ1OTk2LCAxMjI5LjI5OTk5ODc2MDIyMzQpIiBpZD0iY2xhc3NJZC1BZGRIb3RlbFBhZ2UtNDEwIiBjbGFzcz0ibm9kZSBkZWZhdWx0Ij48ZyBjbGFzcz0iYmFzaWMgbGFiZWwtY29udGFpbmVyIj48cGF0aCBzdHlsZT0iIiBmaWxsPSIjZWVlIiBzdHJva2Utd2lkdGg9IjAiIHN0cm9rZT0ibm9uZSIgZD0iTS0xODguODAzMTMxMTAzNTE1NjIgLTg0IEwxODguODAzMTMxMTAzNTE1NjIgLTg0IEwxODguODAzMTMxMTAzNTE1NjIgODQgTC0xODguODAzMTMxMTAzNTE1NjIgODQiPjwvcGF0aD48cGF0aCBzdHlsZT0iIiBmaWxsPSJub25lIiBzdHJva2Utd2lkdGg9IjEuMyIgc3Ryb2tlPSIjOTk5IiBkPSJNLTE4OC44MDMxMzExMDM1MTU2MiAtODQgQy0xMDguMzQ3MTkxODczMDk3MTUgLTg0LCAtMjcuODkxMjUyNjQyNjc4NjY2IC04NCwgMTg4LjgwMzEzMTEwMzUxNTYyIC04NCBNLTE4OC44MDMxMzExMDM1MTU2MiAtODQgQy00Ni45MjE5NjI5MjU1MzU4NjUgLTg0LCA5NC45NTkyMDUyNTI0NDM5IC04NCwgMTg4LjgwMzEzMTEwMzUxNTYyIC04NCBNMTg4LjgwMzEzMTEwMzUxNTYyIC04NCBDMTg4LjgwMzEzMTEwMzUxNTYyIC00Mi40MTcyOTM4ODg1MjQ4NiwgMTg4LjgwMzEzMTEwMzUxNTYyIC0wLjgzNDU4Nzc3NzA0OTcxOTYsIDE4OC44MDMxMzExMDM1MTU2MiA4NCBNMTg4LjgwMzEzMTEwMzUxNTYyIC04NCBDMTg4LjgwMzEzMTEwMzUxNTYyIC0xNy40MTg3MTE0MzAyMTk3NzMsIDE4OC44MDMxMzExMDM1MTU2MiA0OS4xNjI1NzcxMzk1NjA0NTQsIDE4OC44MDMxMzExMDM1MTU2MiA4NCBNMTg4LjgwMzEzMTEwMzUxNTYyIDg0IEM4My41NTU2MDc3MjAzNzMwMiA4NCwgLTIxLjY5MTkxNTY2Mjc2OTU5IDg0LCAtMTg4LjgwMzEzMTEwMzUxNTYyIDg0IE0xODguODAzMTMxMTAzNTE1NjIgODQgQzU4Ljg0NDY1ODQ4Nzk4MzkxIDg0LCAtNzEuMTEzODE0MTI3NTQ3ODEgODQsIC0xODguODAzMTMxMTAzNTE1NjIgODQgTS0xODguODAzMTMxMTAzNTE1NjIgODQgQy0xODguODAzMTMxMTAzNTE1NjIgMzEuMDExMTc1NDA1NzUyNzI0LCAtMTg4LjgwMzEzMTEwMzUxNTYyIC0yMS45Nzc2NDkxODg0OTQ1NTMsIC0xODguODAzMTMxMTAzNTE1NjIgLTg0IE0tMTg4LjgwMzEzMTEwMzUxNTYyIDg0IEMtMTg4LjgwMzEzMTEwMzUxNTYyIDI5LjA0MDk2OTM1ODQ5MTczLCAtMTg4LjgwMzEzMTEwMzUxNTYyIC0yNS45MTgwNjEyODMwMTY1NCwgLTE4OC44MDMxMzExMDM1MTU2MiAtODQiPjwvcGF0aD48L2c+PGcgdHJhbnNmb3JtPSJ0cmFuc2xhdGUoMCwgLTYwKSIgY2xhc3M9ImFubm90YXRpb24tZ3JvdXAgdGV4dCI+PC9nPjxnIHRyYW5zZm9ybT0idHJhbnNsYXRlKC01MS42ODEyNTE1MjU4Nzg5MDYsIC02MCkiIGNsYXNzPSJsYWJlbC1ncm91cCB0ZXh0Ij48ZyB0cmFuc2Zvcm09InRyYW5zbGF0ZSgwLC0xMikiIHN0eWxlPSJmb250LXdlaWdodDogYm9sZGVyIiBjbGFzcz0ibGFiZWwiPjxmb3JlaWduT2JqZWN0IGhlaWdodD0iMjQiIHdpZHRoPSIxMDMuMzYyNTAzMDUxNzU3ODEiPjxkaXYgc3R5bGU9ImRpc3BsYXk6IHRhYmxlLWNlbGw7IHdoaXRlLXNwYWNlOiBub3dyYXA7IGxpbmUtaGVpZ2h0OiAxLjU7IG1heC13aWR0aDogMTUzcHg7IHRleHQtYWxpZ246IGNlbnRlcjsiIHhtbG5zPSJodHRwOi8vd3d3LnczLm9yZy8xOTk5L3hodG1sIj48c3BhbiBzdHlsZT0iIiBjbGFzcz0ibm9kZUxhYmVsIG1hcmtkb3duLW5vZGUtbGFiZWwiPjxwPkFkZEhvdGVsUGFnZTwvcD48L3NwYW4+PC9kaXY+PC9mb3JlaWduT2JqZWN0PjwvZz48L2c+PGcgdHJhbnNmb3JtPSJ0cmFuc2xhdGUoLTE3Ni44MDMxMzExMDM1MTU2MiwgLTEyKSIgY2xhc3M9Im1lbWJlcnMtZ3JvdXAgdGV4dCI+PGcgdHJhbnNmb3JtPSJ0cmFuc2xhdGUoMCwtMTIpIiBzdHlsZT0iIiBjbGFzcz0ibGFiZWwiPjxmb3JlaWduT2JqZWN0IGhlaWdodD0iMjQiIHdpZHRoPSIyODMuMjEyNDkzODk2NDg0NCI+PGRpdiBzdHlsZT0iZGlzcGxheTogdGFibGUtY2VsbDsgd2hpdGUtc3BhY2U6IG5vd3JhcDsgbGluZS1oZWlnaHQ6IDEuNTsgbWF4LXdpZHRoOiAzMzJweDsgdGV4dC1hbGlnbjogY2VudGVyOyIgeG1sbnM9Imh0dHA6Ly93d3cudzMub3JnLzE5OTkveGh0bWwiPjxzcGFuIHN0eWxlPSIiIGNsYXNzPSJub2RlTGFiZWwgbWFya2Rvd24tbm9kZS1sYWJlbCI+PHA+LVRleHRFZGl0aW5nQ29udHJvbGxlciBfbmFtZUNvbnRyb2xsZXI8L3A+PC9zcGFuPjwvZGl2PjwvZm9yZWlnbk9iamVjdD48L2c+PGcgdHJhbnNmb3JtPSJ0cmFuc2xhdGUoMCwxMikiIHN0eWxlPSIiIGNsYXNzPSJsYWJlbCI+PGZvcmVpZ25PYmplY3QgaGVpZ2h0PSIyNCIgd2lkdGg9IjMwMS45MjUwMTgzMTA1NDY5Ij48ZGl2IHN0eWxlPSJkaXNwbGF5OiB0YWJsZS1jZWxsOyB3aGl0ZS1zcGFjZTogbm93cmFwOyBsaW5lLWhlaWdodDogMS41OyBtYXgtd2lkdGg6IDM0OXB4OyB0ZXh0LWFsaWduOiBjZW50ZXI7IiB4bWxucz0iaHR0cDovL3d3dy53My5vcmcvMTk5OS94aHRtbCI+PHNwYW4gc3R5bGU9IiIgY2xhc3M9Im5vZGVMYWJlbCBtYXJrZG93bi1ub2RlLWxhYmVsIj48cD4tVGV4dEVkaXRpbmdDb250cm9sbGVyIF9sb2NhdGlvbkNvbnRyb2xsZXI8L3A+PC9zcGFuPjwvZGl2PjwvZm9yZWlnbk9iamVjdD48L2c+PC9nPjxnIHRyYW5zZm9ybT0idHJhbnNsYXRlKC0xNzYuODAzMTMxMTAzNTE1NjIsIDYwKSIgY2xhc3M9Im1ldGhvZHMtZ3JvdXAgdGV4dCI+PGcgdHJhbnNmb3JtPSJ0cmFuc2xhdGUoMCwtMTIpIiBzdHlsZT0iIiBjbGFzcz0ibGFiZWwiPjxmb3JlaWduT2JqZWN0IGhlaWdodD0iMjQiIHdpZHRoPSIxOTIuMjg3NTA2MTAzNTE1NjIiPjxkaXYgc3R5bGU9ImRpc3BsYXk6IHRhYmxlLWNlbGw7IHdoaXRlLXNwYWNlOiBub3dyYXA7IGxpbmUtaGVpZ2h0OiAxLjU7IG1heC13aWR0aDogMjg2cHg7IHRleHQtYWxpZ246IGNlbnRlcjsiIHhtbG5zPSJodHRwOi8vd3d3LnczLm9yZy8xOTk5L3hodG1sIj48c3BhbiBzdHlsZT0iIiBjbGFzcz0ibm9kZUxhYmVsIG1hcmtkb3duLW5vZGUtbGFiZWwiPjxwPitGdXR1cmUmbHQ7dm9pZCZndDsgX2FkZEhvdGVsKCk8L3A+PC9zcGFuPjwvZGl2PjwvZm9yZWlnbk9iamVjdD48L2c+PC9nPjxnIHN0eWxlPSIiIGNsYXNzPSJkaXZpZGVyIj48cGF0aCBzdHlsZT0iIiBmaWxsPSJub25lIiBzdHJva2Utd2lkdGg9IjEuMyIgc3Ryb2tlPSIjOTk5IiBkPSJNLTE4OC44MDMxMzExMDM1MTU2MiAtMzYgQy05MC44MzAzMTA0MzQ5MTY5OCAtMzYsIDcuMTQyNTEwMjMzNjgxNjYyIC0zNiwgMTg4LjgwMzEzMTEwMzUxNTYyIC0zNiBNLTE4OC44MDMxMzExMDM1MTU2MiAtMzYgQy01My4zMzI4ODk5NTQxMDYyMzYgLTM2LCA4Mi4xMzczNTExOTUzMDMxNSAtMzYsIDE4OC44MDMxMzExMDM1MTU2MiAtMzYiPjwvcGF0aD48L2c+PGcgc3R5bGU9IiIgY2xhc3M9ImRpdmlkZXIiPjxwYXRoIHN0eWxlPSIiIGZpbGw9Im5vbmUiIHN0cm9rZS13aWR0aD0iMS4zIiBzdHJva2U9IiM5OTkiIGQ9Ik0tMTg4LjgwMzEzMTEwMzUxNTYyIDM2IEMtNjguNjk1MDM3MTY1NzM3NTUgMzYsIDUxLjQxMzA1Njc3MjA0MDUzNCAzNiwgMTg4LjgwMzEzMTEwMzUxNTYyIDM2IE0tMTg4LjgwMzEzMTEwMzUxNTYyIDM2IEMtNjYuNTkxOTQ2MjE0NDgzNzMgMzYsIDU1LjYxOTIzODY3NDU0ODE3IDM2LCAxODguODAzMTMxMTAzNTE1NjIgMzYiPjwvcGF0aD48L2c+PC9nPjxnIHRyYW5zZm9ybT0idHJhbnNsYXRlKDI3OTkuNzI5NjM3MTQ1OTk2LCAxNDQ3LjI5OTk5ODc2MDIyMzQpIiBpZD0iY2xhc3NJZC1FZGl0SG90ZWxQYWdlLTQxMSIgY2xhc3M9Im5vZGUgZGVmYXVsdCI+PGcgY2xhc3M9ImJhc2ljIGxhYmVsLWNvbnRhaW5lciI+PHBhdGggc3R5bGU9IiIgZmlsbD0iI2VlZSIgc3Ryb2tlLXdpZHRoPSIwIiBzdHJva2U9Im5vbmUiIGQ9Ik0tMTc5LjY0Mzc1MzA1MTc1NzggLTg0IEwxNzkuNjQzNzUzMDUxNzU3OCAtODQgTDE3OS42NDM3NTMwNTE3NTc4IDg0IEwtMTc5LjY0Mzc1MzA1MTc1NzggODQiPjwvcGF0aD48cGF0aCBzdHlsZT0iIiBmaWxsPSJub25lIiBzdHJva2Utd2lkdGg9IjEuMyIgc3Ryb2tlPSIjOTk5IiBkPSJNLTE3OS42NDM3NTMwNTE3NTc4IC04NCBDLTc5LjgwMTQxNzA1MjUzMDg3IC04NCwgMjAuMDQwOTE4OTQ2Njk2MDggLTg0LCAxNzkuNjQzNzUzMDUxNzU3OCAtODQgTS0xNzkuNjQzNzUzMDUxNzU3OCAtODQgQy00MC4wMjc4MzA2MDA2NDI3NDQgLTg0LCA5OS41ODgwOTE4NTA0NzIzMiAtODQsIDE3OS42NDM3NTMwNTE3NTc4IC04NCBNMTc5LjY0Mzc1MzA1MTc1NzggLTg0IEMxNzkuNjQzNzUzMDUxNzU3OCAtMTcuNjA3MTA4OTM2NzQ3MDUzLCAxNzkuNjQzNzUzMDUxNzU3OCA0OC43ODU3ODIxMjY1MDU4OSwgMTc5LjY0Mzc1MzA1MTc1NzggODQgTTE3OS42NDM3NTMwNTE3NTc4IC04NCBDMTc5LjY0Mzc1MzA1MTc1NzggLTI1LjQwOTQ0MjIzMTU2NTYzNSwgMTc5LjY0Mzc1MzA1MTc1NzggMzMuMTgxMTE1NTM2ODY4NzMsIDE3OS42NDM3NTMwNTE3NTc4IDg0IE0xNzkuNjQzNzUzMDUxNzU3OCA4NCBDNTAuNzI1NDgxNTY5MDcwMTI2IDg0LCAtNzguMTkyNzg5OTEzNjE3NTYgODQsIC0xNzkuNjQzNzUzMDUxNzU3OCA4NCBNMTc5LjY0Mzc1MzA1MTc1NzggODQgQzEwMy43NzgzOTM4NDQzMjk3IDg0LCAyNy45MTMwMzQ2MzY5MDE1ODUgODQsIC0xNzkuNjQzNzUzMDUxNzU3OCA4NCBNLTE3OS42NDM3NTMwNTE3NTc4IDg0IEMtMTc5LjY0Mzc1MzA1MTc1NzggMTkuMjMyMjU4NDI4NzE4NzIzLCAtMTc5LjY0Mzc1MzA1MTc1NzggLTQ1LjUzNTQ4MzE0MjU2MjU1NSwgLTE3OS42NDM3NTMwNTE3NTc4IC04NCBNLTE3OS42NDM3NTMwNTE3NTc4IDg0IEMtMTc5LjY0Mzc1MzA1MTc1NzggMzAuMTUzODAzNzk5ODAzMjA3LCAtMTc5LjY0Mzc1MzA1MTc1NzggLTIzLjY5MjM5MjQwMDM5MzU4NywgLTE3OS42NDM3NTMwNTE3NTc4IC04NCI+PC9wYXRoPjwvZz48ZyB0cmFuc2Zvcm09InRyYW5zbGF0ZSgwLCAtNjApIiBjbGFzcz0iYW5ub3RhdGlvbi1ncm91cCB0ZXh0Ij48L2c+PGcgdHJhbnNmb3JtPSJ0cmFuc2xhdGUoLTUyLjA3NTAwMDc2MjkzOTQ1LCAtNjApIiBjbGFzcz0ibGFiZWwtZ3JvdXAgdGV4dCI+PGcgdHJhbnNmb3JtPSJ0cmFuc2xhdGUoMCwtMTIpIiBzdHlsZT0iZm9udC13ZWlnaHQ6IGJvbGRlciIgY2xhc3M9ImxhYmVsIj48Zm9yZWlnbk9iamVjdCBoZWlnaHQ9IjI0IiB3aWR0aD0iMTA0LjE1MDAwMTUyNTg3ODkiPjxkaXYgc3R5bGU9ImRpc3BsYXk6IHRhYmxlLWNlbGw7IHdoaXRlLXNwYWNlOiBub3dyYXA7IGxpbmUtaGVpZ2h0OiAxLjU7IG1heC13aWR0aDogMTUwcHg7IHRleHQtYWxpZ246IGNlbnRlcjsiIHhtbG5zPSJodHRwOi8vd3d3LnczLm9yZy8xOTk5L3hodG1sIj48c3BhbiBzdHlsZT0iIiBjbGFzcz0ibm9kZUxhYmVsIG1hcmtkb3duLW5vZGUtbGFiZWwiPjxwPkVkaXRIb3RlbFBhZ2U8L3A+PC9zcGFuPjwvZGl2PjwvZm9yZWlnbk9iamVjdD48L2c+PC9nPjxnIHRyYW5zZm9ybT0idHJhbnNsYXRlKC0xNjcuNjQzNzUzMDUxNzU3OCwgLTEyKSIgY2xhc3M9Im1lbWJlcnMtZ3JvdXAgdGV4dCI+PGcgdHJhbnNmb3JtPSJ0cmFuc2xhdGUoMCwtMTIpIiBzdHlsZT0iIiBjbGFzcz0ibGFiZWwiPjxmb3JlaWduT2JqZWN0IGhlaWdodD0iMjQiIHdpZHRoPSIyNTIuMDYyNSI+PGRpdiBzdHlsZT0iZGlzcGxheTogdGFibGUtY2VsbDsgd2hpdGUtc3BhY2U6IG5vd3JhcDsgbGluZS1oZWlnaHQ6IDEuNTsgbWF4LXdpZHRoOiAzNDlweDsgdGV4dC1hbGlnbjogY2VudGVyOyIgeG1sbnM9Imh0dHA6Ly93d3cudzMub3JnLzE5OTkveGh0bWwiPjxzcGFuIHN0eWxlPSIiIGNsYXNzPSJub2RlTGFiZWwgbWFya2Rvd24tbm9kZS1sYWJlbCI+PHA+K01hcCZsdDtTdHJpbmcsIGR5bmFtaWMmZ3Q7IGhvdGVsVG9FZGl0PC9wPjwvc3Bhbj48L2Rpdj48L2ZvcmVpZ25PYmplY3Q+PC9nPjxnIHRyYW5zZm9ybT0idHJhbnNsYXRlKDAsMTIpIiBzdHlsZT0iIiBjbGFzcz0ibGFiZWwiPjxmb3JlaWduT2JqZWN0IGhlaWdodD0iMjQiIHdpZHRoPSIyODMuMjEyNDkzODk2NDg0NCI+PGRpdiBzdHlsZT0iZGlzcGxheTogdGFibGUtY2VsbDsgd2hpdGUtc3BhY2U6IG5vd3JhcDsgbGluZS1oZWlnaHQ6IDEuNTsgbWF4LXdpZHRoOiAzMzJweDsgdGV4dC1hbGlnbjogY2VudGVyOyIgeG1sbnM9Imh0dHA6Ly93d3cudzMub3JnLzE5OTkveGh0bWwiPjxzcGFuIHN0eWxlPSIiIGNsYXNzPSJub2RlTGFiZWwgbWFya2Rvd24tbm9kZS1sYWJlbCI+PHA+LVRleHRFZGl0aW5nQ29udHJvbGxlciBfbmFtZUNvbnRyb2xsZXI8L3A+PC9zcGFuPjwvZGl2PjwvZm9yZWlnbk9iamVjdD48L2c+PC9nPjxnIHRyYW5zZm9ybT0idHJhbnNsYXRlKC0xNjcuNjQzNzUzMDUxNzU3OCwgNjApIiBjbGFzcz0ibWV0aG9kcy1ncm91cCB0ZXh0Ij48ZyB0cmFuc2Zvcm09InRyYW5zbGF0ZSgwLC0xMikiIHN0eWxlPSIiIGNsYXNzPSJsYWJlbCI+PGZvcmVpZ25PYmplY3QgaGVpZ2h0PSIyNCIgd2lkdGg9IjIxNi4xMDAwMDYxMDM1MTU2MiI+PGRpdiBzdHlsZT0iZGlzcGxheTogdGFibGUtY2VsbDsgd2hpdGUtc3BhY2U6IG5vd3JhcDsgbGluZS1oZWlnaHQ6IDEuNTsgbWF4LXdpZHRoOiAzMDlweDsgdGV4dC1hbGlnbjogY2VudGVyOyIgeG1sbnM9Imh0dHA6Ly93d3cudzMub3JnLzE5OTkveGh0bWwiPjxzcGFuIHN0eWxlPSIiIGNsYXNzPSJub2RlTGFiZWwgbWFya2Rvd24tbm9kZS1sYWJlbCI+PHA+K0Z1dHVyZSZsdDt2b2lkJmd0OyBfdXBkYXRlSG90ZWwoKTwvcD48L3NwYW4+PC9kaXY+PC9mb3JlaWduT2JqZWN0PjwvZz48L2c+PGcgc3R5bGU9IiIgY2xhc3M9ImRpdmlkZXIiPjxwYXRoIHN0eWxlPSIiIGZpbGw9Im5vbmUiIHN0cm9rZS13aWR0aD0iMS4zIiBzdHJva2U9IiM5OTkiIGQ9Ik0tMTc5LjY0Mzc1MzA1MTc1NzggLTM2IEMtOTQuODMxNzc5MjcwOTU3MjggLTM2LCAtMTAuMDE5ODA1NDkwMTU2NzU2IC0zNiwgMTc5LjY0Mzc1MzA1MTc1NzggLTM2IE0tMTc5LjY0Mzc1MzA1MTc1NzggLTM2IEMtNTcuODY0NzQ3OTA4NTI3OTMgLTM2LCA2My45MTQyNTcyMzQ3MDE5NSAtMzYsIDE3OS42NDM3NTMwNTE3NTc4IC0zNiI+PC9wYXRoPjwvZz48ZyBzdHlsZT0iIiBjbGFzcz0iZGl2aWRlciI+PHBhdGggc3R5bGU9IiIgZmlsbD0ibm9uZSIgc3Ryb2tlLXdpZHRoPSIxLjMiIHN0cm9rZT0iIzk5OSIgZD0iTS0xNzkuNjQzNzUzMDUxNzU3OCAzNiBDLTEwNi45MDg3NjkzNzQ1MzUzMiAzNiwgLTM0LjE3Mzc4NTY5NzMxMjg0IDM2LCAxNzkuNjQzNzUzMDUxNzU3OCAzNiBNLTE3OS42NDM3NTMwNTE3NTc4IDM2IEMtNDUuNjcxMzg3NzQyMDY5MjcgMzYsIDg4LjMwMDk3NzU2NzYxOTI3IDM2LCAxNzkuNjQzNzUzMDUxNzU3OCAzNiI+PC9wYXRoPjwvZz48L2c+PGcgdHJhbnNmb3JtPSJ0cmFuc2xhdGUoMjc5OS43Mjk2MzcxNDU5OTYsIDE3MzguODk5OTk4NjY0ODU2KSIgaWQ9ImNsYXNzSWQtQ2xpZW50RGV0YWlsc1BhZ2UtNDEyIiBjbGFzcz0ibm9kZSBkZWZhdWx0Ij48ZyBjbGFzcz0iYmFzaWMgbGFiZWwtY29udGFpbmVyIj48cGF0aCBzdHlsZT0iIiBmaWxsPSIjZWVlIiBzdHJva2Utd2lkdGg9IjAiIHN0cm9rZT0ibm9uZSIgZD0iTS0xODcuMjUzMTI4MDUxNzU3OCAtODQgTDE4Ny4yNTMxMjgwNTE3NTc4IC04NCBMMTg3LjI1MzEyODA1MTc1NzggODQgTC0xODcuMjUzMTI4MDUxNzU3OCA4NCI+PC9wYXRoPjxwYXRoIHN0eWxlPSIiIGZpbGw9Im5vbmUiIHN0cm9rZS13aWR0aD0iMS4zIiBzdHJva2U9IiM5OTkiIGQ9Ik0tMTg3LjI1MzEyODA1MTc1NzggLTg0IEMtNjUuNjQwNTgxODkxMDk0OTUgLTg0LCA1NS45NzE5NjQyNjk1Njc5MDYgLTg0LCAxODcuMjUzMTI4MDUxNzU3OCAtODQgTS0xODcuMjUzMTI4MDUxNzU3OCAtODQgQy0xMDUuNjczODc5Mjc2Mzk5MDkgLTg0LCAtMjQuMDk0NjMwNTAxMDQwMzcgLTg0LCAxODcuMjUzMTI4MDUxNzU3OCAtODQgTTE4Ny4yNTMxMjgwNTE3NTc4IC04NCBDMTg3LjI1MzEyODA1MTc1NzggLTM5LjQ2MDY4NzI4NzU3NjE2NCwgMTg3LjI1MzEyODA1MTc1NzggNS4wNzg2MjU0MjQ4NDc2NzIsIDE4Ny4yNTMxMjgwNTE3NTc4IDg0IE0xODcuMjUzMTI4MDUxNzU3OCAtODQgQzE4Ny4yNTMxMjgwNTE3NTc4IC00My4yOTcwMzgyNjMxNzczNiwgMTg3LjI1MzEyODA1MTc1NzggLTIuNTk0MDc2NTI2MzU0NzI2MywgMTg3LjI1MzEyODA1MTc1NzggODQgTTE4Ny4yNTMxMjgwNTE3NTc4IDg0IEM5OS41MDUzMzg3NjkzMzA5OCA4NCwgMTEuNzU3NTQ5NDg2OTA0MTQgODQsIC0xODcuMjUzMTI4MDUxNzU3OCA4NCBNMTg3LjI1MzEyODA1MTc1NzggODQgQzg1LjYxNDk3Njk3NjM1NTU5IDg0LCAtMTYuMDIzMTc0MDk5MDQ2NjI4IDg0LCAtMTg3LjI1MzEyODA1MTc1NzggODQgTS0xODcuMjUzMTI4MDUxNzU3OCA4NCBDLTE4Ny4yNTMxMjgwNTE3NTc4IDMzLjAxMjU1Nzk0NTc4OTQ5LCAtMTg3LjI1MzEyODA1MTc1NzggLTE3Ljk3NDg4NDEwODQyMTAyMywgLTE4Ny4yNTMxMjgwNTE3NTc4IC04NCBNLTE4Ny4yNTMxMjgwNTE3NTc4IDg0IEMtMTg3LjI1MzEyODA1MTc1NzggNDguMzczMTc4MDIzNjkxNCwgLTE4Ny4yNTMxMjgwNTE3NTc4IDEyLjc0NjM1NjA0NzM4MjgwNCwgLTE4Ny4yNTMxMjgwNTE3NTc4IC04NCI+PC9wYXRoPjwvZz48ZyB0cmFuc2Zvcm09InRyYW5zbGF0ZSgwLCAtNjApIiBjbGFzcz0iYW5ub3RhdGlvbi1ncm91cCB0ZXh0Ij48L2c+PGcgdHJhbnNmb3JtPSJ0cmFuc2xhdGUoLTY0LjY5Mzc0ODQ3NDEyMTEsIC02MCkiIGNsYXNzPSJsYWJlbC1ncm91cCB0ZXh0Ij48ZyB0cmFuc2Zvcm09InRyYW5zbGF0ZSgwLC0xMikiIHN0eWxlPSJmb250LXdlaWdodDogYm9sZGVyIiBjbGFzcz0ibGFiZWwiPjxmb3JlaWduT2JqZWN0IGhlaWdodD0iMjQiIHdpZHRoPSIxMjkuMzg3NDk2OTQ4MjQyMiI+PGRpdiBzdHlsZT0iZGlzcGxheTogdGFibGUtY2VsbDsgd2hpdGUtc3BhY2U6IG5vd3JhcDsgbGluZS1oZWlnaHQ6IDEuNTsgbWF4LXdpZHRoOiAxNzNweDsgdGV4dC1hbGlnbjogY2VudGVyOyIgeG1sbnM9Imh0dHA6Ly93d3cudzMub3JnLzE5OTkveGh0bWwiPjxzcGFuIHN0eWxlPSIiIGNsYXNzPSJub2RlTGFiZWwgbWFya2Rvd24tbm9kZS1sYWJlbCI+PHA+Q2xpZW50RGV0YWlsc1BhZ2U8L3A+PC9zcGFuPjwvZGl2PjwvZm9yZWlnbk9iamVjdD48L2c+PC9nPjxnIHRyYW5zZm9ybT0idHJhbnNsYXRlKC0xNzUuMjUzMTI4MDUxNzU3OCwgLTEyKSIgY2xhc3M9Im1lbWJlcnMtZ3JvdXAgdGV4dCI+PGcgdHJhbnNmb3JtPSJ0cmFuc2xhdGUoMCwtMTIpIiBzdHlsZT0iIiBjbGFzcz0ibGFiZWwiPjxmb3JlaWduT2JqZWN0IGhlaWdodD0iMjQiIHdpZHRoPSIyMTEuNjg3NSI+PGRpdiBzdHlsZT0iZGlzcGxheTogdGFibGUtY2VsbDsgd2hpdGUtc3BhY2U6IG5vd3JhcDsgbGluZS1oZWlnaHQ6IDEuNTsgbWF4LXdpZHRoOiAzMDhweDsgdGV4dC1hbGlnbjogY2VudGVyOyIgeG1sbnM9Imh0dHA6Ly93d3cudzMub3JnLzE5OTkveGh0bWwiPjxzcGFuIHN0eWxlPSIiIGNsYXNzPSJub2RlTGFiZWwgbWFya2Rvd24tbm9kZS1sYWJlbCI+PHA+K01hcCZsdDtTdHJpbmcsIGR5bmFtaWMmZ3Q7IGNsaWVudDwvcD48L3NwYW4+PC9kaXY+PC9mb3JlaWduT2JqZWN0PjwvZz48ZyB0cmFuc2Zvcm09InRyYW5zbGF0ZSgwLDEyKSIgc3R5bGU9IiIgY2xhc3M9ImxhYmVsIj48Zm9yZWlnbk9iamVjdCBoZWlnaHQ9IjI0IiB3aWR0aD0iMTUyIj48ZGl2IHN0eWxlPSJkaXNwbGF5OiB0YWJsZS1jZWxsOyB3aGl0ZS1zcGFjZTogbm93cmFwOyBsaW5lLWhlaWdodDogMS41OyBtYXgtd2lkdGg6IDI1MnB4OyB0ZXh0LWFsaWduOiBjZW50ZXI7IiB4bWxucz0iaHR0cDovL3d3dy53My5vcmcvMTk5OS94aHRtbCI+PHNwYW4gc3R5bGU9IiIgY2xhc3M9Im5vZGVMYWJlbCBtYXJrZG93bi1ub2RlLWxhYmVsIj48cD4tTGlzdCZsdDtNYXAmZ3Q7IF9ib29raW5nczwvcD48L3NwYW4+PC9kaXY+PC9mb3JlaWduT2JqZWN0PjwvZz48L2c+PGcgdHJhbnNmb3JtPSJ0cmFuc2xhdGUoLTE3NS4yNTMxMjgwNTE3NTc4LCA2MCkiIGNsYXNzPSJtZXRob2RzLWdyb3VwIHRleHQiPjxnIHRyYW5zZm9ybT0idHJhbnNsYXRlKDAsLTEyKSIgc3R5bGU9IiIgY2xhc3M9ImxhYmVsIj48Zm9yZWlnbk9iamVjdCBoZWlnaHQ9IjI0IiB3aWR0aD0iMjg1LjgxMjUiPjxkaXYgc3R5bGU9ImRpc3BsYXk6IHRhYmxlLWNlbGw7IHdoaXRlLXNwYWNlOiBub3dyYXA7IGxpbmUtaGVpZ2h0OiAxLjU7IG1heC13aWR0aDogMzgwcHg7IHRleHQtYWxpZ246IGNlbnRlcjsiIHhtbG5zPSJodHRwOi8vd3d3LnczLm9yZy8xOTk5L3hodG1sIj48c3BhbiBzdHlsZT0iIiBjbGFzcz0ibm9kZUxhYmVsIG1hcmtkb3duLW5vZGUtbGFiZWwiPjxwPitGdXR1cmUmbHQ7dm9pZCZndDsgX2xvYWRCb29raW5nc0ZvckNsaWVudCgpPC9wPjwvc3Bhbj48L2Rpdj48L2ZvcmVpZ25PYmplY3Q+PC9nPjwvZz48ZyBzdHlsZT0iIiBjbGFzcz0iZGl2aWRlciI+PHBhdGggc3R5bGU9IiIgZmlsbD0ibm9uZSIgc3Ryb2tlLXdpZHRoPSIxLjMiIHN0cm9rZT0iIzk5OSIgZD0iTS0xODcuMjUzMTI4MDUxNzU3OCAtMzYgQy01Ni45MzcyNzQ4NTg5Mzk4MTYgLTM2LCA3My4zNzg1NzgzMzM4NzgxOCAtMzYsIDE4Ny4yNTMxMjgwNTE3NTc4IC0zNiBNLTE4Ny4yNTMxMjgwNTE3NTc4IC0zNiBDLTg5LjM3NTc4NjQ4NTUyOTY5IC0zNiwgOC41MDE1NTUwODA2OTg0MzggLTM2LCAxODcuMjUzMTI4MDUxNzU3OCAtMzYiPjwvcGF0aD48L2c+PGcgc3R5bGU9IiIgY2xhc3M9ImRpdmlkZXIiPjxwYXRoIHN0eWxlPSIiIGZpbGw9Im5vbmUiIHN0cm9rZS13aWR0aD0iMS4zIiBzdHJva2U9IiM5OTkiIGQ9Ik0tMTg3LjI1MzEyODA1MTc1NzggMzYgQy0zOC4wOTg2NzE0MjE1MTMwMiAzNiwgMTExLjA1NTc4NTIwODczMTc4IDM2LCAxODcuMjUzMTI4MDUxNzU3OCAzNiBNLTE4Ny4yNTMxMjgwNTE3NTc4IDM2IEMtNTYuOTIxNjI3ODgwNzQwNzcgMzYsIDczLjQwOTg3MjI5MDI3NjI3IDM2LCAxODcuMjUzMTI4MDUxNzU3OCAzNiI+PC9wYXRoPjwvZz48L2c+PGcgdHJhbnNmb3JtPSJ0cmFuc2xhdGUoMTMxNi42MDkzNDQ0ODI0MjE5LCA1NjcuMDk5OTk4OTUwOTU4MykiIGlkPSJjbGFzc0lkLUV4cGxvcmVQYWdlLTQxMyIgY2xhc3M9Im5vZGUgZGVmYXVsdCI+PGcgY2xhc3M9ImJhc2ljIGxhYmVsLWNvbnRhaW5lciI+PHBhdGggc3R5bGU9IiIgZmlsbD0iI2VlZSIgc3Ryb2tlLXdpZHRoPSIwIiBzdHJva2U9Im5vbmUiIGQ9Ik0tNTcuNzMxMjUwNzYyOTM5NDUgLTQyIEw1Ny43MzEyNTA3NjI5Mzk0NSAtNDIgTDU3LjczMTI1MDc2MjkzOTQ1IDQyIEwtNTcuNzMxMjUwNzYyOTM5NDUgNDIiPjwvcGF0aD48cGF0aCBzdHlsZT0iIiBmaWxsPSJub25lIiBzdHJva2Utd2lkdGg9IjEuMyIgc3Ryb2tlPSIjOTk5IiBkPSJNLTU3LjczMTI1MDc2MjkzOTQ1IC00MiBDLTI3LjIxNzM4NDQxNjc2NjAwNiAtNDIsIDMuMjk2NDgxOTI5NDA3NDQxNyAtNDIsIDU3LjczMTI1MDc2MjkzOTQ1IC00MiBNLTU3LjczMTI1MDc2MjkzOTQ1IC00MiBDLTI3Ljg2MTMwOTkzMDA4MTQ2NSAtNDIsIDIuMDA4NjMwOTAyNzc2NTI0IC00MiwgNTcuNzMxMjUwNzYyOTM5NDUgLTQyIE01Ny43MzEyNTA3NjI5Mzk0NSAtNDIgQzU3LjczMTI1MDc2MjkzOTQ1IC0xNC40NTc3MTE5MjExMDE3NTEsIDU3LjczMTI1MDc2MjkzOTQ1IDEzLjA4NDU3NjE1Nzc5NjQ5OCwgNTcuNzMxMjUwNzYyOTM5NDUgNDIgTTU3LjczMTI1MDc2MjkzOTQ1IC00MiBDNTcuNzMxMjUwNzYyOTM5NDUgLTI0LjY4NzMzMzQ4NzkyMDgsIDU3LjczMTI1MDc2MjkzOTQ1IC03LjM3NDY2Njk3NTg0MTU5OSwgNTcuNzMxMjUwNzYyOTM5NDUgNDIgTTU3LjczMTI1MDc2MjkzOTQ1IDQyIEMyOC4zODU1MzgyOTU0MDEzMTggNDIsIC0wLjk2MDE3NDE3MjEzNjgxNzEgNDIsIC01Ny43MzEyNTA3NjI5Mzk0NSA0MiBNNTcuNzMxMjUwNzYyOTM5NDUgNDIgQzIxLjEyMjU4MTAyMzEzMjA3OCA0MiwgLTE1LjQ4NjA4ODcxNjY3NTI5NyA0MiwgLTU3LjczMTI1MDc2MjkzOTQ1IDQyIE0tNTcuNzMxMjUwNzYyOTM5NDUgNDIgQy01Ny43MzEyNTA3NjI5Mzk0NSAyMC43OTEwNjMwNzEwNzY2OTIsIC01Ny43MzEyNTA3NjI5Mzk0NSAtMC40MTc4NzM4NTc4NDY2MTUyNCwgLTU3LjczMTI1MDc2MjkzOTQ1IC00MiBNLTU3LjczMTI1MDc2MjkzOTQ1IDQyIEMtNTcuNzMxMjUwNzYyOTM5NDUgMTQuNzM3NTEzMzM4NTM1MzkzLCAtNTcuNzMxMjUwNzYyOTM5NDUgLTEyLjUyNDk3MzMyMjkyOTIxMywgLTU3LjczMTI1MDc2MjkzOTQ1IC00MiI+PC9wYXRoPjwvZz48ZyB0cmFuc2Zvcm09InRyYW5zbGF0ZSgwLCAtMTgpIiBjbGFzcz0iYW5ub3RhdGlvbi1ncm91cCB0ZXh0Ij48L2c+PGcgdHJhbnNmb3JtPSJ0cmFuc2xhdGUoLTQ1LjczMTI1MDc2MjkzOTQ1LCAtMTgpIiBjbGFzcz0ibGFiZWwtZ3JvdXAgdGV4dCI+PGcgdHJhbnNmb3JtPSJ0cmFuc2xhdGUoMCwtMTIpIiBzdHlsZT0iZm9udC13ZWlnaHQ6IGJvbGRlciIgY2xhc3M9ImxhYmVsIj48Zm9yZWlnbk9iamVjdCBoZWlnaHQ9IjI0IiB3aWR0aD0iOTEuNDYyNTAxNTI1ODc4OSI+PGRpdiBzdHlsZT0iZGlzcGxheTogdGFibGUtY2VsbDsgd2hpdGUtc3BhY2U6IG5vd3JhcDsgbGluZS1oZWlnaHQ6IDEuNTsgbWF4LXdpZHRoOiAxMzZweDsgdGV4dC1hbGlnbjogY2VudGVyOyIgeG1sbnM9Imh0dHA6Ly93d3cudzMub3JnLzE5OTkveGh0bWwiPjxzcGFuIHN0eWxlPSIiIGNsYXNzPSJub2RlTGFiZWwgbWFya2Rvd24tbm9kZS1sYWJlbCI+PHA+RXhwbG9yZVBhZ2U8L3A+PC9zcGFuPjwvZGl2PjwvZm9yZWlnbk9iamVjdD48L2c+PC9nPjxnIHRyYW5zZm9ybT0idHJhbnNsYXRlKC00NS43MzEyNTA3NjI5Mzk0NSwgMzApIiBjbGFzcz0ibWVtYmVycy1ncm91cCB0ZXh0Ij48L2c+PGcgdHJhbnNmb3JtPSJ0cmFuc2xhdGUoLTQ1LjczMTI1MDc2MjkzOTQ1LCA2MCkiIGNsYXNzPSJtZXRob2RzLWdyb3VwIHRleHQiPjwvZz48ZyBzdHlsZT0iIiBjbGFzcz0iZGl2aWRlciI+PHBhdGggc3R5bGU9IiIgZmlsbD0ibm9uZSIgc3Ryb2tlLXdpZHRoPSIxLjMiIHN0cm9rZT0iIzk5OSIgZD0iTS01Ny43MzEyNTA3NjI5Mzk0NSA2IEMtMTkuOTYyNjUwNjY1MDA5MDA4IDYsIDE3LjgwNTk0OTQzMjkyMTQzNyA2LCA1Ny43MzEyNTA3NjI5Mzk0NSA2IE0tNTcuNzMxMjUwNzYyOTM5NDUgNiBDLTE1LjExMTI2MTc1NDYxMDY0NSA2LCAyNy41MDg3MjcyNTM3MTgxNjMgNiwgNTcuNzMxMjUwNzYyOTM5NDUgNiI+PC9wYXRoPjwvZz48ZyBzdHlsZT0iIiBjbGFzcz0iZGl2aWRlciI+PHBhdGggc3R5bGU9IiIgZmlsbD0ibm9uZSIgc3Ryb2tlLXdpZHRoPSIxLjMiIHN0cm9rZT0iIzk5OSIgZD0iTS01Ny43MzEyNTA3NjI5Mzk0NSAyNCBDLTE4LjQ3MjE3MzAyOTQ2NTY5NCAyNCwgMjAuNzg2OTA0NzA0MDA4MDY2IDI0LCA1Ny43MzEyNTA3NjI5Mzk0NSAyNCBNLTU3LjczMTI1MDc2MjkzOTQ1IDI0IEMtMzEuODYyMjI2NzkyNzAzNzk3IDI0LCAtNS45OTMyMDI4MjI0NjgxNDIgMjQsIDU3LjczMTI1MDc2MjkzOTQ1IDI0Ij48L3BhdGg+PC9nPjwvZz48ZyB0cmFuc2Zvcm09InRyYW5zbGF0ZSgzNDQ1LjEyOTY2MTU2MDA1ODYsIDc1Mi44OTk5OTk2MTg1MzAzKSIgaWQ9ImNsYXNzSWQtQm9va2luZ3NQYWdlLTQxNCIgY2xhc3M9Im5vZGUgZGVmYXVsdCI+PGcgY2xhc3M9ImJhc2ljIGxhYmVsLWNvbnRhaW5lciI+PHBhdGggc3R5bGU9IiIgZmlsbD0iI2VlZSIgc3Ryb2tlLXdpZHRoPSIwIiBzdHJva2U9Im5vbmUiIGQ9Ik0tNjEuOTY4NzUgLTQyIEw2MS45Njg3NSAtNDIgTDYxLjk2ODc1IDQyIEwtNjEuOTY4NzUgNDIiPjwvcGF0aD48cGF0aCBzdHlsZT0iIiBmaWxsPSJub25lIiBzdHJva2Utd2lkdGg9IjEuMyIgc3Ryb2tlPSIjOTk5IiBkPSJNLTYxLjk2ODc1IC00MiBDLTMzLjMwNzUyNzU3ODMyMDA2IC00MiwgLTQuNjQ2MzA1MTU2NjQwMTE4IC00MiwgNjEuOTY4NzUgLTQyIE0tNjEuOTY4NzUgLTQyIEMtMTkuMTY0NjAxNTcxMzY4ODI3IC00MiwgMjMuNjM5NTQ2ODU3MjYyMzQ2IC00MiwgNjEuOTY4NzUgLTQyIE02MS45Njg3NSAtNDIgQzYxLjk2ODc1IC0yNC41OTg1MzA2OTkzMDIxODQsIDYxLjk2ODc1IC03LjE5NzA2MTM5ODYwNDM2OSwgNjEuOTY4NzUgNDIgTTYxLjk2ODc1IC00MiBDNjEuOTY4NzUgLTIyLjk0MDMzNDI3NzE0MzY0NSwgNjEuOTY4NzUgLTMuODgwNjY4NTU0Mjg3MjksIDYxLjk2ODc1IDQyIE02MS45Njg3NSA0MiBDMTkuMDE5MzEyOTAzMTkwNzggNDIsIC0yMy45MzAxMjQxOTM2MTg0NCA0MiwgLTYxLjk2ODc1IDQyIE02MS45Njg3NSA0MiBDMjMuODA2MzIzOTkzMTI1OTE1IDQyLCAtMTQuMzU2MTAyMDEzNzQ4MTcgNDIsIC02MS45Njg3NSA0MiBNLTYxLjk2ODc1IDQyIEMtNjEuOTY4NzUgMTAuNTMxNDE4NTE0MjM0MTM3LCAtNjEuOTY4NzUgLTIwLjkzNzE2Mjk3MTUzMTcyNywgLTYxLjk2ODc1IC00MiBNLTYxLjk2ODc1IDQyIEMtNjEuOTY4NzUgMTkuNTAyNzQ1MTg3MzAyODA3LCAtNjEuOTY4NzUgLTIuOTk0NTA5NjI1Mzk0Mzg2LCAtNjEuOTY4NzUgLTQyIj48L3BhdGg+PC9nPjxnIHRyYW5zZm9ybT0idHJhbnNsYXRlKDAsIC0xOCkiIGNsYXNzPSJhbm5vdGF0aW9uLWdyb3VwIHRleHQiPjwvZz48ZyB0cmFuc2Zvcm09InRyYW5zbGF0ZSgtNDkuOTY4NzUsIC0xOCkiIGNsYXNzPSJsYWJlbC1ncm91cCB0ZXh0Ij48ZyB0cmFuc2Zvcm09InRyYW5zbGF0ZSgwLC0xMikiIHN0eWxlPSJmb250LXdlaWdodDogYm9sZGVyIiBjbGFzcz0ibGFiZWwiPjxmb3JlaWduT2JqZWN0IGhlaWdodD0iMjQiIHdpZHRoPSI5OS45Mzc1Ij48ZGl2IHN0eWxlPSJkaXNwbGF5OiB0YWJsZS1jZWxsOyB3aGl0ZS1zcGFjZTogbm93cmFwOyBsaW5lLWhlaWdodDogMS41OyBtYXgtd2lkdGg6IDE0OXB4OyB0ZXh0LWFsaWduOiBjZW50ZXI7IiB4bWxucz0iaHR0cDovL3d3dy53My5vcmcvMTk5OS94aHRtbCI+PHNwYW4gc3R5bGU9IiIgY2xhc3M9Im5vZGVMYWJlbCBtYXJrZG93bi1ub2RlLWxhYmVsIj48cD5Cb29raW5nc1BhZ2U8L3A+PC9zcGFuPjwvZGl2PjwvZm9yZWlnbk9iamVjdD48L2c+PC9nPjxnIHRyYW5zZm9ybT0idHJhbnNsYXRlKC00OS45Njg3NSwgMzApIiBjbGFzcz0ibWVtYmVycy1ncm91cCB0ZXh0Ij48L2c+PGcgdHJhbnNmb3JtPSJ0cmFuc2xhdGUoLTQ5Ljk2ODc1LCA2MCkiIGNsYXNzPSJtZXRob2RzLWdyb3VwIHRleHQiPjwvZz48ZyBzdHlsZT0iIiBjbGFzcz0iZGl2aWRlciI+PHBhdGggc3R5bGU9IiIgZmlsbD0ibm9uZSIgc3Ryb2tlLXdpZHRoPSIxLjMiIHN0cm9rZT0iIzk5OSIgZD0iTS02MS45Njg3NSA2IEMtMzYuNjg0OTk4Njc5NjcyNTUgNiwgLTExLjQwMTI0NzM1OTM0NTEwNiA2LCA2MS45Njg3NSA2IE0tNjEuOTY4NzUgNiBDLTE4LjY3NzU4NjQ5NzY0MTYgNiwgMjQuNjEzNTc3MDA0NzE2ODAyIDYsIDYxLjk2ODc1IDYiPjwvcGF0aD48L2c+PGcgc3R5bGU9IiIgY2xhc3M9ImRpdmlkZXIiPjxwYXRoIHN0eWxlPSIiIGZpbGw9Im5vbmUiIHN0cm9rZS13aWR0aD0iMS4zIiBzdHJva2U9IiM5OTkiIGQ9Ik0tNjEuOTY4NzUgMjQgQy0yMi42MjczODgzNzA0ODIwMDIgMjQsIDE2LjcxMzk3MzI1OTAzNTk5NiAyNCwgNjEuOTY4NzUgMjQgTS02MS45Njg3NSAyNCBDLTI1Ljc1NDQ2NzkyMzQzNzM5NiAyNCwgMTAuNDU5ODE0MTUzMTI1MjA4IDI0LCA2MS45Njg3NSAyNCI+PC9wYXRoPjwvZz48L2c+PGcgdHJhbnNmb3JtPSJ0cmFuc2xhdGUoMjAyMy40NzAyNjgyNDk1MTE3LCA4MzMuMTk5OTk4ODU1NTkwOCkiIGlkPSJjbGFzc0lkLUVkaXRQcm9maWxlUGFnZS00MTUiIGNsYXNzPSJub2RlIGRlZmF1bHQiPjxnIGNsYXNzPSJiYXNpYyBsYWJlbC1jb250YWluZXIiPjxwYXRoIHN0eWxlPSIiIGZpbGw9IiNlZWUiIHN0cm9rZS13aWR0aD0iMCIgc3Ryb2tlPSJub25lIiBkPSJNLTY4Ljg5Mzc0OTIzNzA2MDU1IC00MiBMNjguODkzNzQ5MjM3MDYwNTUgLTQyIEw2OC44OTM3NDkyMzcwNjA1NSA0MiBMLTY4Ljg5Mzc0OTIzNzA2MDU1IDQyIj48L3BhdGg+PHBhdGggc3R5bGU9IiIgZmlsbD0ibm9uZSIgc3Ryb2tlLXdpZHRoPSIxLjMiIHN0cm9rZT0iIzk5OSIgZD0iTS02OC44OTM3NDkyMzcwNjA1NSAtNDIgQy0xOS45NDg5OTg3MjMyMjMzMDUgLTQyLCAyOC45OTU3NTE3OTA2MTM5MzcgLTQyLCA2OC44OTM3NDkyMzcwNjA1NSAtNDIgTS02OC44OTM3NDkyMzcwNjA1NSAtNDIgQy0yOC4zNjgxMjk4NzM5NDc2MjMgLTQyLCAxMi4xNTc0ODk0ODkxNjUzIC00MiwgNjguODkzNzQ5MjM3MDYwNTUgLTQyIE02OC44OTM3NDkyMzcwNjA1NSAtNDIgQzY4Ljg5Mzc0OTIzNzA2MDU1IC0xMC43NDIzNTMyOTIyNDY1NDEsIDY4Ljg5Mzc0OTIzNzA2MDU1IDIwLjUxNTI5MzQxNTUwNjkxOCwgNjguODkzNzQ5MjM3MDYwNTUgNDIgTTY4Ljg5Mzc0OTIzNzA2MDU1IC00MiBDNjguODkzNzQ5MjM3MDYwNTUgLTEwLjE4MTA5OTY3OTg1Nzg5NCwgNjguODkzNzQ5MjM3MDYwNTUgMjEuNjM3ODAwNjQwMjg0MjEyLCA2OC44OTM3NDkyMzcwNjA1NSA0MiBNNjguODkzNzQ5MjM3MDYwNTUgNDIgQzIwLjIwNjUyNjExNjMxNTYgNDIsIC0yOC40ODA2OTcwMDQ0MjkzNDUgNDIsIC02OC44OTM3NDkyMzcwNjA1NSA0MiBNNjguODkzNzQ5MjM3MDYwNTUgNDIgQzM0LjAzNDg2NDUwMzIwNTM1IDQyLCAtMC44MjQwMjAyMzA2NDk4NTAzIDQyLCAtNjguODkzNzQ5MjM3MDYwNTUgNDIgTS02OC44OTM3NDkyMzcwNjA1NSA0MiBDLTY4Ljg5Mzc0OTIzNzA2MDU1IDkuNjI3NDgzNDQzMzc0NjQzLCAtNjguODkzNzQ5MjM3MDYwNTUgLTIyLjc0NTAzMzExMzI1MDcxMywgLTY4Ljg5Mzc0OTIzNzA2MDU1IC00MiBNLTY4Ljg5Mzc0OTIzNzA2MDU1IDQyIEMtNjguODkzNzQ5MjM3MDYwNTUgMjMuNTg4NDk0Njc4OTYyNjI2LCAtNjguODkzNzQ5MjM3MDYwNTUgNS4xNzY5ODkzNTc5MjUyNTEsIC02OC44OTM3NDkyMzcwNjA1NSAtNDIiPjwvcGF0aD48L2c+PGcgdHJhbnNmb3JtPSJ0cmFuc2xhdGUoMCwgLTE4KSIgY2xhc3M9ImFubm90YXRpb24tZ3JvdXAgdGV4dCI+PC9nPjxnIHRyYW5zZm9ybT0idHJhbnNsYXRlKC01Ni44OTM3NDkyMzcwNjA1NSwgLTE4KSIgY2xhc3M9ImxhYmVsLWdyb3VwIHRleHQiPjxnIHRyYW5zZm9ybT0idHJhbnNsYXRlKDAsLTEyKSIgc3R5bGU9ImZvbnQtd2VpZ2h0OiBib2xkZXIiIGNsYXNzPSJsYWJlbCI+PGZvcmVpZ25PYmplY3QgaGVpZ2h0PSIyNCIgd2lkdGg9IjExMy43ODc0OTg0NzQxMjExIj48ZGl2IHN0eWxlPSJkaXNwbGF5OiB0YWJsZS1jZWxsOyB3aGl0ZS1zcGFjZTogbm93cmFwOyBsaW5lLWhlaWdodDogMS41OyBtYXgtd2lkdGg6IDE1NnB4OyB0ZXh0LWFsaWduOiBjZW50ZXI7IiB4bWxucz0iaHR0cDovL3d3dy53My5vcmcvMTk5OS94aHRtbCI+PHNwYW4gc3R5bGU9IiIgY2xhc3M9Im5vZGVMYWJlbCBtYXJrZG93bi1ub2RlLWxhYmVsIj48cD5FZGl0UHJvZmlsZVBhZ2U8L3A+PC9zcGFuPjwvZGl2PjwvZm9yZWlnbk9iamVjdD48L2c+PC9nPjxnIHRyYW5zZm9ybT0idHJhbnNsYXRlKC01Ni44OTM3NDkyMzcwNjA1NSwgMzApIiBjbGFzcz0ibWVtYmVycy1ncm91cCB0ZXh0Ij48L2c+PGcgdHJhbnNmb3JtPSJ0cmFuc2xhdGUoLTU2Ljg5Mzc0OTIzNzA2MDU1LCA2MCkiIGNsYXNzPSJtZXRob2RzLWdyb3VwIHRleHQiPjwvZz48ZyBzdHlsZT0iIiBjbGFzcz0iZGl2aWRlciI+PHBhdGggc3R5bGU9IiIgZmlsbD0ibm9uZSIgc3Ryb2tlLXdpZHRoPSIxLjMiIHN0cm9rZT0iIzk5OSIgZD0iTS02OC44OTM3NTMwNTE3NTc4MSA2IEMtMTcuOTYwMzUxMTQyNDA3NjI1IDYsIDMyLjk3MzA1MDc2Njk0MjU2IDYsIDY4Ljg5Mzc1MzA1MTc1NzgxIDYgTS02OC44OTM3NTMwNTE3NTc4MSA2IEMtMjIuNTEwOTYwNjkyNzU5OTMgNiwgMjMuODcxODMxNjY2MjM3OTUyIDYsIDY4Ljg5Mzc1MzA1MTc1NzgxIDYiPjwvcGF0aD48L2c+PGcgc3R5bGU9IiIgY2xhc3M9ImRpdmlkZXIiPjxwYXRoIHN0eWxlPSIiIGZpbGw9Im5vbmUiIHN0cm9rZS13aWR0aD0iMS4zIiBzdHJva2U9IiM5OTkiIGQ9Ik0tNjguODkzNzUzMDUxNzU3ODEgMjQgQy0zMC4zNTMwMzEzOTQwODc1MyAyNCwgOC4xODc2OTAyNjM1ODI3NTIgMjQsIDY4Ljg5Mzc1MzA1MTc1NzgxIDI0IE0tNjguODkzNzUzMDUxNzU3ODEgMjQgQy0yOS4zOTU5NDY0MTMxOTE3OCAyNCwgMTAuMTAxODYwMjI1Mzc0MjUzIDI0LCA2OC44OTM3NTMwNTE3NTc4MSAyNCI+PC9wYXRoPjwvZz48L2c+PC9nPjwvZz48L2c+PC9zdmc+;" vertex="1" parent="1">
                        <mxGeometry x="-2090" y="-2140" width="5220" height="2297.6" as="geometry"/>
                    </mxCell>
                </UserObject>
            </root>
        </mxGraphModel>
    </diagram>
</mxfile>